<svg id="backpack" enable-background="new 0 0 300 300" height="512" viewBox="0 0 300 300" width="512" xmlns="http://www.w3.org/2000/svg"><path d="m262 73.525c0-6.355-5.172-11.525-11.527-11.525h-20.473c-.417 0-.797.119-1.175.237-3.417-2.271-7.043-4.24-10.825-5.926v-.311c0-16.543-13.457-30-30-30s-30 13.457-30 30v.285c-3.797 1.69-7.437 3.666-10.867 5.944-.366-.11-.731-.229-1.133-.229h-20.473c-6.355 0-11.527 5.17-11.527 11.525l-.059 179.482c0 11.574 9.418 20.992 20.992 20.992h106.074c11.574 0 20.992-9.418 20.992-20.992v-179.482zm-8 136.704h-12v-12.229c2.211 0 4-1.791 4-4v-16c0-2.209-1.789-4-4-4h-108c-2.211 0-4 1.791-4 4v16c0 2.209 1.789 4 4 4v12.229h-12.059v-86.314c0-36.408 29.621-66.027 66.031-66.027 36.406 0 66.027 29.619 66.027 66.027v86.314zm-16-20.229h-100v-8h100zm-96 8h80v8c0 2.209 1.789 4 4 4s4-1.791 4-4v-8h4v30.137c0 5.502-4.477 9.979-9.977 9.979h-72.047c-5.5 0-9.977-4.477-9.977-9.979v-30.137zm46-164c11.171 0 20.406 8.378 21.798 19.178-6.903-2.134-14.231-3.292-21.825-3.292-7.574 0-14.882 1.154-21.769 3.277 1.399-10.792 10.63-19.163 21.796-19.163zm-66 39.525c0-1.943 1.582-3.525 3.527-3.525h11.875c-6.252 5.868-11.478 12.788-15.402 20.502zm119.008 192.475h-106.074c-7.164 0-12.992-5.828-12.992-12.992v-34.779h12.058v9.908c0 9.914 8.062 17.979 17.977 17.979h72.047c9.914 0 17.977-8.064 17.977-17.979v-9.908h12v34.779c-.001 7.164-5.829 12.992-12.993 12.992zm-2.467-196h11.932c1.945 0 3.527 1.582 3.527 3.525v17.096c-3.93-7.761-9.175-14.723-15.459-20.621z"/><path d="m188 66c-31.98 0-58 26.02-58 58 0 2.209 1.789 4 4 4s4-1.791 4-4c0-27.57 22.43-50 50-50s50 22.43 50 50c0 2.209 1.789 4 4 4s4-1.791 4-4c0-31.98-26.02-58-58-58z"/><path d="m67.898 56.242c-1.562-1.562-4.094-1.562-5.656 0-1.562 1.561-1.562 4.094 0 5.656l5.656 5.658c.781.781 1.805 1.172 2.828 1.172s2.047-.391 2.828-1.172c1.562-1.561 1.562-4.094 0-5.656z"/><path d="m48.102 47.758c.781.781 1.805 1.172 2.828 1.172s2.047-.391 2.828-1.172c1.562-1.561 1.562-4.094 0-5.656l-5.656-5.658c-1.562-1.562-4.094-1.562-5.656 0-1.562 1.561-1.562 4.094 0 5.656z"/><path d="m67.898 36.443-5.656 5.658c-1.562 1.562-1.562 4.096 0 5.656.781.781 1.805 1.172 2.828 1.172s2.047-.391 2.828-1.172l5.656-5.658c1.562-1.562 1.562-4.096 0-5.656-1.562-1.562-4.093-1.562-5.656 0z"/><path d="m45.273 68.729c1.023 0 2.047-.391 2.828-1.172l5.656-5.658c1.562-1.562 1.562-4.096 0-5.656-1.562-1.562-4.094-1.562-5.656 0l-5.656 5.657c-1.562 1.562-1.562 4.096 0 5.656.782.782 1.805 1.173 2.828 1.173z"/><path d="m66 109.901c-2.264 0-4.099 1.835-4.099 4.099s1.835 4.099 4.099 4.099 4.099-1.835 4.099-4.099-1.835-4.099-4.099-4.099z"/><path d="m126 42.099c2.264 0 4.099-1.835 4.099-4.099s-1.835-4.099-4.099-4.099-4.099 1.835-4.099 4.099 1.835 4.099 4.099 4.099z"/><path d="m50 162c-6.617 0-12 5.383-12 12s5.383 12 12 12 12-5.383 12-12-5.383-12-12-12zm0 16c-2.207 0-4-1.795-4-4s1.793-4 4-4 4 1.795 4 4-1.793 4-4 4z"/></svg>