<svg id="hat" enable-background="new 0 0 300 300" height="512" viewBox="0 0 300 300" width="512" xmlns="http://www.w3.org/2000/svg"><path d="m231.95 194.417v-42.297c0-47.461-38.609-86.07-86.07-86.07s-86.074 38.609-86.074 86.07v42.312c-9.021 1.769-15.855 9.72-15.855 19.251v28.734c0 10.824 8.809 19.633 19.633 19.633h164.734c10.824 0 19.633-8.809 19.633-19.633v-28.734c-.001-9.58-6.91-17.553-16.001-19.266zm-108.726-116.989-.207.271c-13.953 18.227-21.637 40.828-21.637 63.637 0 2.211 1.789 4 4 4s4-1.789 4-4c0-21.062 7.098-41.934 19.988-58.777l4.648-6.078c.36-.47.58-.996.704-1.538 3.655-.527 7.361-.892 11.16-.892 4.584 0 9.052.476 13.422 1.238.136.414.301.825.582 1.191l4.648 6.078c12.891 16.844 19.988 37.715 19.988 58.777 0 2.211 1.789 4 4 4s4-1.789 4-4c0-22.518-7.516-44.815-21.133-62.919 30.542 10.604 52.563 39.599 52.563 73.704v41.93h-156.144v-41.93c0-35.168 23.386-64.957 55.418-74.692zm-31.383 124.622v52h-15.715v-52zm8 0h24v12h-7.891c-2.211 0-4 1.789-4 4v16c0 2.211 1.789 4 4 4h7.891v16h-24zm60 0v12h-28v-12zm-39.891 28v-8h52v8zm11.891 8h28v16h-28zm36 0h8.109c2.211 0 4-1.789 4-4v-16c0-2.211-1.789-4-4-4h-8.109v-12h24.285v52h-24.285zm32.285-36h15.715v52h-15.715zm-148.176 40.367v-28.734c0-6.414 5.219-11.633 11.633-11.633h4.543v52h-4.543c-6.414 0-11.633-5.219-11.633-11.633zm188 0c0 6.414-5.219 11.633-11.633 11.633h-4.477v-52h4.477c6.414 0 11.633 5.219 11.633 11.633z"/><path d="m248.853 59.296c-1.562-1.562-4.094-1.562-5.656 0s-1.562 4.094 0 5.656l4.863 4.863c.781.781 1.805 1.172 2.828 1.172s2.047-.391 2.828-1.172c1.562-1.562 1.562-4.094 0-5.656z"/><path d="m231.048 52.804c.781.781 1.805 1.172 2.828 1.172s2.047-.391 2.828-1.172c1.562-1.562 1.562-4.094 0-5.656l-4.863-4.863c-1.562-1.562-4.094-1.562-5.656 0s-1.562 4.094 0 5.656z"/><path d="m248.06 42.284-4.863 4.863c-1.562 1.562-1.562 4.094 0 5.656.781.781 1.805 1.172 2.828 1.172s2.047-.391 2.828-1.172l4.863-4.863c1.562-1.562 1.562-4.094 0-5.656s-4.094-1.562-5.656 0z"/><path d="m229.013 70.987c1.023 0 2.047-.391 2.828-1.172l4.863-4.863c1.562-1.562 1.562-4.094 0-5.656s-4.094-1.562-5.656 0l-4.863 4.863c-1.562 1.562-1.562 4.094 0 5.656.781.782 1.804 1.172 2.828 1.172z"/><path d="m259.95 109.95c-2.264 0-4.099 1.836-4.099 4.1s1.835 4.099 4.099 4.099 4.099-1.835 4.099-4.099-1.835-4.1-4.099-4.1z"/><path d="m71.95 46.149c2.264 0 4.099-1.835 4.099-4.099s-1.835-4.1-4.099-4.1-4.099 1.836-4.099 4.1 1.835 4.099 4.099 4.099z"/><path d="m59.95 78.05c0-6.617-5.383-12-12-12s-12 5.383-12 12 5.383 12 12 12 12-5.383 12-12zm-16 0c0-2.207 1.793-4 4-4s4 1.793 4 4-1.793 4-4 4-4-1.793-4-4z"/></svg>