<svg id="woman_x5F_blazer" enable-background="new 0 0 300 300" height="512" viewBox="0 0 300 300" width="512" xmlns="http://www.w3.org/2000/svg"><path d="m235.548 276.135h-27.425c-2.209 0-4-1.791-4-4v-100.533l-4.188-57.454c-.161-2.203 1.495-4.119 3.698-4.28 2.193-.167 4.12 1.496 4.28 3.698l4.198 57.599c.007.097.011.194.011.291v96.679h19.861c4.604-43.929-2.557-136.764-5.924-175.405-.806-9.249-3.46-18.092-7.89-26.283l-.22-.407c-1.053-1.942-.331-4.37 1.611-5.422 1.943-1.054 4.371-.33 5.422 1.612l.222.409c4.955 9.162 7.924 19.052 8.825 29.397 3.481 39.954 10.985 137.534 5.484 180.606-.252 1.997-1.951 3.493-3.965 3.493z"/><path d="m98.1 276.135h-26.778c-2.018 0-3.72-1.503-3.969-3.505-5.353-42.928 1.929-140.193 5.307-180.019.912-10.746 4.046-20.983 9.314-30.425 1.077-1.93 3.514-2.62 5.442-1.544 1.929 1.077 2.621 3.513 1.544 5.442-4.711 8.444-7.514 17.597-8.329 27.204-3.268 38.514-10.214 131.04-5.737 174.847h19.206v-96.679c0-.117.005-.235.016-.353l5.096-57.624c.195-2.201 2.132-3.831 4.337-3.632 2.2.194 3.827 2.136 3.632 4.337l-5.08 57.448v100.502c-.001 2.21-1.792 4.001-4.001 4.001z"/><path d="m208.121 229.041c-1.781 0-3.405-1.198-3.87-3.003l-6.749-26.177c-7.01-13.983-7.091-33.828-7.091-34.674 0-40.477 19.587-85.913 25.706-99.121-10.375-4.563-21.523-7.492-33.948-8.927-2.194-.253-3.768-2.238-3.515-4.433s2.229-3.772 4.433-3.515c14.785 1.708 27.91 5.418 40.126 11.342.96.466 1.694 1.296 2.04 2.306.345 1.01.272 2.116-.202 3.071-.267.537-26.64 54.227-26.64 99.276 0 .188.092 19.16 6.411 31.419.137.266.243.546.317.835l6.857 26.601c.552 2.139-.735 4.32-2.875 4.871-.333.088-.67.129-1 .129z"/><path d="m160.129 275.592c-.752 0-1.495-.212-2.141-.621-.917-.581-1.558-1.509-1.777-2.571l-2.938-14.251-2.939 14.251c-.219 1.063-.86 1.99-1.776 2.571-.916.58-2.028.765-3.084.509l-46.925-11.379c-2.146-.521-3.465-2.684-2.944-4.83.521-2.147 2.684-3.46 4.83-2.945l42.9 10.403 6.021-29.195c.383-1.858 2.02-3.192 3.917-3.192 1.897 0 3.534 1.334 3.918 3.192l6.019 29.195 41.616-10.091c2.148-.515 4.309.799 4.83 2.945s-.798 4.31-2.945 4.83l-45.64 11.066c-.31.076-.627.113-.942.113z"/><path d="m98.427 229.042c-.331 0-.667-.041-1.001-.128-2.139-.551-3.426-2.732-2.875-4.871l6.856-26.601c.075-.289.181-.569.318-.835 6.338-12.296 6.412-31.229 6.412-31.418 0-41.349-21.6-91.886-25.358-98.094-.152-.138-.294-.289-.425-.452-1.04-1.291-1.176-3.09-.341-4.522.534-.916 1.406-1.562 2.389-1.845 2.211-.71 22.949-7.291 41.615-10.465 2.172-.372 4.244 1.095 4.614 3.273.371 2.178-1.095 4.244-3.273 4.614-13.458 2.289-28.438 6.534-35.898 8.774.698 1.459 1.521 3.282 2.512 5.565 3.122 7.197 6.392 15.831 9.207 24.311 5.911 17.806 12.957 44.203 12.957 68.842 0 .846-.082 20.689-7.092 34.673l-6.747 26.177c-.465 1.804-2.089 3.002-3.87 3.002z"/><path d="m200.194 200.135h-24.58c-2.209 0-4-1.791-4-4s1.791-4 4-4h24.58c2.209 0 4 1.791 4 4s-1.791 4-4 4z"/><path d="m133.468 200.135h-28c-2.209 0-4-1.791-4-4s1.791-4 4-4h28c2.209 0 4 1.791 4 4s-1.791 4-4 4z"/><path d="m153.468 244.135c-2.209 0-4-1.791-4-4v-136c0-2.209 1.791-4 4-4s4 1.791 4 4v136c0 2.209-1.791 4-4 4z"/><path d="m137.468 44.136c-1.637 0-3.174-1.013-3.762-2.642-.75-2.078.326-4.37 2.403-5.121 16.579-5.99 21.642-5.99 38.683-.012 2.085.731 3.182 3.014 2.45 5.099-.73 2.084-3.013 3.182-5.099 2.45-15.339-5.38-18.452-5.383-33.317-.012-.448.161-.907.238-1.358.238z"/><path d="m153.468 138.7c-.752 0-1.501-.212-2.155-.63-1.149-.735-1.845-2.006-1.845-3.37v-17.731c0-.34.043-.679.129-1.008l20-76.835c.406-1.559 1.708-2.723 3.303-2.952 1.598-.229 3.172.521 4 1.904l10.998 18.362c.312.52.501 1.104.554 1.709l.973 11.191c.124 1.435-.532 2.826-1.719 3.642l-3.801 2.614 3.801 2.614c1.266.871 1.921 2.389 1.687 3.907-.274 1.776-7.035 43.638-34.246 56.213-.536.248-1.108.37-1.679.37zm4-21.219v10.199c15.691-11.633 21.93-36.492 23.558-44.354l-6.447-4.433c-1.085-.746-1.733-1.979-1.733-3.296s.648-2.549 1.733-3.296l6.674-4.589-.691-7.951-5.624-9.39z"/><path d="m153.468 138.7c-.622 0-1.244-.145-1.816-.436-24.767-12.621-30.891-54.429-31.14-56.202-.201-1.435.39-2.867 1.544-3.742l3.59-2.723-3.59-2.723c-1.086-.823-1.678-2.143-1.571-3.501l.881-11.191c.053-.674.276-1.324.649-1.889l12.114-18.362c.89-1.348 2.501-2.03 4.09-1.726 1.586.303 2.835 1.532 3.165 3.113l16 76.835c.056.268.084.542.084.815v17.732c0 1.392-.724 2.684-1.91 3.411-.64.391-1.365.589-2.09.589zm-24.645-55.471c1.404 7.564 6.876 32.026 20.645 43.949v-9.796l-13.956-67.019-6.251 9.476-.628 7.983 6.051 4.589c.997.756 1.583 1.936 1.583 3.187s-.586 2.431-1.583 3.187z"/><path d="m60.404 65.07c-1.023 0-2.047-.391-2.828-1.171l-4.861-4.86c-1.563-1.562-1.563-4.095 0-5.657 1.561-1.563 4.094-1.562 5.657 0l4.861 4.86c1.563 1.562 1.563 4.095 0 5.657-.781.78-1.805 1.171-2.829 1.171z"/><path d="m43.392 48.059c-1.024 0-2.047-.391-2.829-1.171l-4.86-4.86c-1.562-1.563-1.562-4.095 0-5.657 1.563-1.562 4.095-1.562 5.657 0l4.86 4.86c1.562 1.563 1.562 4.095 0 5.657-.781.78-1.804 1.171-2.828 1.171z"/><path d="m55.543 48.059c-1.024 0-2.047-.391-2.829-1.172-1.562-1.562-1.562-4.095 0-5.657l4.861-4.86c1.563-1.562 4.095-1.561 5.657 0 1.562 1.562 1.562 4.095 0 5.657l-4.861 4.86c-.781.781-1.805 1.172-2.828 1.172z"/><path d="m38.532 65.07c-1.024 0-2.047-.391-2.829-1.171-1.562-1.563-1.562-4.095 0-5.657l4.86-4.86c1.563-1.562 4.095-1.562 5.657 0 1.562 1.563 1.562 4.095 0 5.657l-4.86 4.86c-.78.78-1.804 1.171-2.828 1.171z"/><circle cx="45.468" cy="112.135" r="4.099"/><circle cx="245.468" cy="44.135" r="4.099"/><path d="m261.468 104.135c-6.617 0-12-5.383-12-12s5.383-12 12-12 12 5.383 12 12-5.383 12-12 12zm0-16c-2.206 0-4 1.794-4 4s1.794 4 4 4 4-1.794 4-4-1.794-4-4-4z"/></svg>