<svg id="boxers" enable-background="new 0 0 300 300" height="512" viewBox="0 0 300 300" width="512" xmlns="http://www.w3.org/2000/svg"><path d="m246 100.469v-20c0-2.211-1.791-4-4-4h-172c-2.209 0-4 1.789-4 4v20c0 .534.114 1.04.304 1.505-13.434 32.72-20.304 67.248-20.304 102.714v59.781c0 2.211 1.791 4 4 4h91.867c1.52 0 2.908-.863 3.584-2.223l10.549-21.287 10.548 21.287c.676 1.359 2.064 2.223 3.584 2.223h91.868c2.209 0 4-1.789 4-4v-59.781c0-35.466-6.87-69.993-20.304-102.713.19-.466.304-.972.304-1.506zm-172-16h164v12h-52-60-52zm82 148c-14.336 0-26-11.664-26-26v-102h52v102c0 14.336-11.664 26-26 26zm-16.615 28h-85.385v-55.781c0-34.614 6.733-68.309 19.917-100.219h16.967c-5.839 7.359-9.94 15.94-12.161 25.625-.494 2.152.852 4.301 3.004 4.793.301.07.602.102.898.102 1.822 0 3.471-1.254 3.895-3.105 2.359-10.285 7.072-19.152 14.01-26.359.302-.313.493-.684.673-1.055h20.797v102c0 16.559 11.906 30.374 27.605 33.376zm118.615 0h-85.385l-10.219-20.624c15.698-3.003 27.604-16.818 27.604-33.376v-102h16.798c.179.371.371.741.673 1.055 6.938 7.207 11.65 16.074 14.01 26.359.424 1.852 2.072 3.105 3.895 3.105.297 0 .598-.031.898-.102 2.152-.492 3.498-2.641 3.004-4.793-2.221-9.685-6.322-18.266-12.161-25.625h20.967c13.183 31.911 19.916 65.605 19.916 100.22z"/><path d="m242.105 60.234c.781.781 1.807 1.172 2.83 1.172s2.047-.391 2.828-1.172c1.562-1.559 1.562-4.094.002-5.656l-4.859-4.863c-1.562-1.562-4.096-1.562-5.658 0-1.562 1.559-1.562 4.094-.002 5.656z"/><path d="m225.094 43.223c.781.781 1.807 1.172 2.83 1.172s2.047-.391 2.828-1.172c1.562-1.559 1.562-4.094.002-5.656l-4.859-4.863c-1.562-1.562-4.096-1.562-5.658 0-1.562 1.559-1.562 4.094-.002 5.656z"/><path d="m240.076 44.395c1.023 0 2.049-.391 2.83-1.172l4.859-4.863c1.561-1.562 1.561-4.098-.002-5.656-1.562-1.562-4.096-1.562-5.658 0l-4.859 4.863c-1.561 1.562-1.561 4.098.002 5.656.781.781 1.805 1.172 2.828 1.172z"/><path d="m223.064 61.406c1.023 0 2.049-.391 2.83-1.172l4.859-4.863c1.561-1.562 1.561-4.098-.002-5.656-1.562-1.562-4.096-1.562-5.658 0l-4.859 4.863c-1.561 1.562-1.561 4.098.002 5.656.782.782 1.805 1.172 2.828 1.172z"/><path d="m266 76.369c-2.264 0-4.099 1.836-4.099 4.1s1.835 4.099 4.099 4.099 4.099-1.835 4.099-4.099-1.835-4.1-4.099-4.1z"/><path d="m98 48.568c2.264 0 4.099-1.835 4.099-4.099s-1.835-4.1-4.099-4.1-4.099 1.836-4.099 4.1 1.835 4.099 4.099 4.099z"/><path d="m34 92.369c-2.264 0-4.099 1.836-4.099 4.1s1.835 4.099 4.099 4.099 4.099-1.835 4.099-4.099-1.835-4.1-4.099-4.1z"/><path d="m46 56.469c6.617 0 12-5.383 12-12s-5.383-12-12-12-12 5.383-12 12 5.383 12 12 12zm0-16c2.205 0 4 1.793 4 4s-1.795 4-4 4-4-1.793-4-4 1.795-4 4-4z"/></svg>