<svg id="work_x5F_case" enable-background="new 0 0 300 300" height="512" viewBox="0 0 300 300" width="512" xmlns="http://www.w3.org/2000/svg"><path d="m236.227 100.477h-36.588c-2.798-25.033-24.265-44.427-49.639-44.427-25.494 0-46.836 19.346-49.632 44.428h-36.595c-15.312-.001-27.773 12.46-27.773 27.775v19.797 6.482 85.742c0 15.314 12.461 27.775 27.773 27.775h172.453c15.312 0 27.773-12.461 27.773-27.775v-85.742-6.482-19.797c.001-15.315-12.46-27.776-27.772-27.776zm-86.227-36.427c21.016 0 38.833 15.834 41.582 36.428h-83.17c2.744-20.634 20.475-36.428 41.588-36.428zm-106 64.203c0-10.904 8.871-19.775 19.773-19.775h172.453c10.902 0 19.773 8.871 19.773 19.775v19.797 6.482c0 11.865-9.652 21.518-21.516 21.518h-6.483v-.465c0-8.75-7.117-15.869-15.867-15.869s-15.871 7.119-15.871 15.869v.465h-92.262v-.465c0-8.75-7.117-15.869-15.867-15.869s-15.871 7.119-15.871 15.869v.465h-6.746c-11.864 0-21.516-9.653-21.516-21.518v-6.482zm160.262 47.332c0-4.34 3.531-7.869 7.871-7.869s7.867 3.529 7.867 7.869v16.596c0 4.34-3.527 7.869-7.867 7.869s-7.871-3.529-7.871-7.869zm-108.262 16.596c0 4.34-3.527 7.869-7.867 7.869s-7.871-3.529-7.871-7.869v-16.596c0-4.34 3.531-7.869 7.871-7.869s7.867 3.529 7.867 7.869zm160 48.093c0 10.904-8.871 19.775-19.773 19.775h-172.454c-10.902.001-19.773-8.87-19.773-19.775v-65.601c5.39 5.754 13.029 9.376 21.516 9.376h6.746v8.131c0 8.75 7.121 15.869 15.871 15.869s15.867-7.118 15.867-15.868v-8.131h92.262v8.131c0 8.75 7.121 15.869 15.871 15.869s15.867-7.119 15.867-15.869v-8.131h6.484c8.486 0 16.126-3.622 21.516-9.376z"/><circle cx="88" cy="184.05" r="3.987"/><circle cx="212" cy="184.05" r="3.987"/><path d="m69.898 73.606c.781.781 1.805 1.172 2.828 1.172s2.047-.391 2.828-1.172c1.562-1.561 1.562-4.094 0-5.656l-5.656-5.658c-1.562-1.562-4.094-1.562-5.656 0-1.562 1.561-1.562 4.094 0 5.656z"/><path d="m50.102 53.807c.781.781 1.805 1.172 2.828 1.172s2.047-.391 2.828-1.172c1.562-1.561 1.562-4.094 0-5.656l-5.656-5.658c-1.562-1.562-4.094-1.562-5.656 0-1.562 1.561-1.562 4.094 0 5.656z"/><path d="m67.07 54.979c1.023 0 2.047-.391 2.828-1.172l5.656-5.658c1.562-1.562 1.562-4.096 0-5.656-1.562-1.562-4.094-1.562-5.656 0l-5.656 5.658c-1.562 1.562-1.562 4.096 0 5.656.781.782 1.805 1.172 2.828 1.172z"/><path d="m47.273 74.778c1.023 0 2.047-.391 2.828-1.172l5.656-5.658c1.562-1.562 1.562-4.096 0-5.656-1.562-1.562-4.094-1.562-5.656 0l-5.656 5.658c-1.562 1.562-1.562 4.096 0 5.656.782.782 1.805 1.172 2.828 1.172z"/><path d="m172 40.149c2.264 0 4.099-1.835 4.099-4.099s-1.835-4.1-4.099-4.1-4.099 1.835-4.099 4.099 1.835 4.1 4.099 4.1z"/><path d="m244 80.05c6.617 0 12-5.383 12-12s-5.383-12-12-12-12 5.383-12 12 5.383 12 12 12zm0-16c2.207 0 4 1.795 4 4s-1.793 4-4 4-4-1.795-4-4 1.793-4 4-4z"/><path d="m120 132.05h60c2.211 0 4-1.791 4-4s-1.789-4-4-4h-60c-2.211 0-4 1.791-4 4s1.789 4 4 4z"/></svg>