<svg id="purse_x5F_crossbody" enable-background="new 0 0 300 300" height="512" viewBox="0 0 300 300" width="512" xmlns="http://www.w3.org/2000/svg"><path d="m267.783 233.145-19.129-123.357c-.102-.652-.39-1.21-.754-1.708v-.08c0-2.209-1.789-4-4-4h-48.203c-2.03-22.392-20.886-40-43.797-40h-16c-22.912 0-41.767 17.608-43.797 40h-56.203c-2.211 0-4 1.791-4 4v91.186c0 11.282 6.533 21.043 16 25.771v26.853c0 8.928 7.262 16.191 16.191 16.191h151.617c4.194 0 7.985-1.644 10.863-4.268.42.149.857.268 1.328.268h13.445c7.824 0 15.227-3.406 20.316-9.348 5.091-5.94 7.322-13.78 6.123-21.508zm-20.907-.788c.254 1.957-.32 3.854-1.625 5.34-1.305 1.484-3.109 2.303-5.086 2.303h-8.265v-15.044c5.26-2.626 9.619-6.791 12.446-11.929zm-110.976-160.357h16c18.5 0 33.781 14.025 35.777 32h-87.555c1.997-17.975 17.278-32 35.778-32zm-96 127.186v-87.186h56 96 48v87.186c0 11.477-9.336 20.814-20.812 20.814h-15.188v-8c0-6.617-5.383-12-12-12s-12 5.383-12 12v8h-80v-8c0-6.617-5.383-12-12-12s-12 5.383-12 12v8h-15.188c-11.476 0-20.812-9.338-20.812-20.814zm156 12.814v28c0 2.205-1.793 4-4 4s-4-1.795-4-4v-28c0-2.205 1.793-4 4-4s4 1.795 4 4zm-104 28c0 2.205-1.793 4-4 4s-4-1.795-4-4v-28c0-2.205 1.793-4 4-4s4 1.795 4 4zm123.808 20h-151.617c-4.516 0-8.191-3.674-8.191-8.191v-24.244c1.569.265 3.169.435 4.812.435h15.188v12c0 6.617 5.383 12 12 12s12-5.383 12-12v-12h80v12c0 6.617 5.383 12 12 12s12-5.383 12-12v-12h15.188c1.643 0 3.244-.17 4.812-.435v16.435 7.809c0 4.517-3.676 8.191-8.192 8.191zm39.879-10.553c-3.566 4.164-8.758 6.553-14.242 6.553h-9.445v-4.191-3.809h8.266c4.25 0 8.297-1.832 11.098-5.027 2.805-3.193 4.098-7.441 3.543-11.654l-6.734-51.443c-.024-.183-.125-.329-.172-.502v-22.236l11.977 77.234c.838 5.417-.724 10.913-4.291 15.075z"/><path d="m65.798 73.557c.781.781 1.805 1.172 2.828 1.172s2.047-.391 2.828-1.172c1.562-1.561 1.562-4.094 0-5.656l-5.656-5.658c-1.562-1.562-4.094-1.562-5.656 0-1.562 1.561-1.562 4.094 0 5.656z"/><path d="m46.001 53.758c.781.781 1.805 1.172 2.828 1.172s2.047-.391 2.828-1.172c1.562-1.561 1.562-4.094 0-5.656l-5.656-5.658c-1.562-1.562-4.094-1.562-5.656 0-1.562 1.561-1.562 4.094 0 5.656z"/><path d="m62.97 54.93c1.023 0 2.047-.391 2.828-1.172l5.656-5.658c1.562-1.562 1.562-4.096 0-5.656-1.562-1.562-4.094-1.562-5.656 0l-5.656 5.658c-1.562 1.562-1.562 4.096 0 5.656.781.781 1.805 1.172 2.828 1.172z"/><path d="m43.173 74.729c1.023 0 2.047-.391 2.828-1.172l5.656-5.658c1.562-1.562 1.562-4.096 0-5.656-1.562-1.562-4.094-1.562-5.656 0l-5.656 5.657c-1.562 1.562-1.562 4.096 0 5.656.781.782 1.805 1.173 2.828 1.173z"/><path d="m219.9 88.099c2.264 0 4.099-1.835 4.099-4.099s-1.835-4.099-4.099-4.099-4.1 1.835-4.1 4.099 1.836 4.099 4.1 4.099z"/><path d="m115.9 44.099c2.264 0 4.099-1.835 4.099-4.099s-1.835-4.099-4.099-4.099-4.1 1.835-4.1 4.099 1.836 4.099 4.1 4.099z"/><path d="m243.9 56c6.617 0 12-5.383 12-12s-5.383-12-12-12-12 5.383-12 12 5.383 12 12 12zm0-16c2.207 0 4 1.795 4 4s-1.793 4-4 4-4-1.795-4-4 1.793-4 4-4z"/></svg>