<svg id="sweater_x5F_women" enable-background="new 0 0 300 300" height="512" viewBox="0 0 300 300" width="512" xmlns="http://www.w3.org/2000/svg"><path d="m53.95 70.469c0-6.617-5.383-12-12-12s-12 5.383-12 12 5.383 12 12 12 12-5.383 12-12zm-16 0c0-2.207 1.795-4 4-4s4 1.793 4 4-1.795 4-4 4-4-1.793-4-4z"/><path d="m262.056 58.234c.781.781 1.807 1.172 2.83 1.172s2.047-.391 2.828-1.172c1.562-1.559 1.562-4.094.002-5.656l-4.859-4.863c-1.562-1.562-4.096-1.562-5.658 0-1.562 1.559-1.562 4.094-.002 5.656z"/><path d="m245.044 41.223c.781.781 1.807 1.172 2.83 1.172s2.047-.391 2.828-1.172c1.562-1.559 1.562-4.094.002-5.656l-4.859-4.863c-1.562-1.562-4.096-1.562-5.658 0-1.562 1.559-1.562 4.094-.002 5.656z"/><path d="m260.026 42.395c1.023 0 2.049-.391 2.83-1.172l4.859-4.863c1.561-1.562 1.561-4.098-.002-5.656-1.562-1.562-4.096-1.562-5.658 0l-4.859 4.863c-1.561 1.562-1.561 4.098.002 5.656.782.781 1.805 1.172 2.828 1.172z"/><path d="m243.015 59.406c1.023 0 2.049-.391 2.83-1.172l4.859-4.863c1.561-1.562 1.561-4.098-.002-5.656-1.562-1.562-4.096-1.562-5.658 0l-4.859 4.863c-1.561 1.562-1.561 4.098.002 5.656.781.782 1.804 1.172 2.828 1.172z"/><path d="m265.95 94.369c-2.264 0-4.099 1.835-4.099 4.099s1.835 4.099 4.099 4.099 4.099-1.835 4.099-4.099-1.835-4.099-4.099-4.099z"/><path d="m65.95 42.568c2.264 0 4.099-1.835 4.099-4.099s-1.835-4.099-4.099-4.099-4.099 1.835-4.099 4.099 1.835 4.099 4.099 4.099z"/><path d="m233.389 68.564c-1.027-3.577-3.365-6.724-6.62-8.682l-41.219-24.84c-.938-.565-2.011-.685-3.001-.446-.203-.032-.386-.121-.599-.121h-68c-.125 0-.231.06-.353.071-.004.001-.007.001-.011.002-1.105.105-2.05.64-2.708 1.46l-35.549 23.781c-.984.66-1.887 1.434-2.682 2.297-.265.286-.417.626-.583.958-.736.406-1.379.961-1.741 1.737-.354.758-35.34 77.215-32.117 185.805.158 5.309.371 10.668.705 16.129.129 2.109 1.879 3.754 3.992 3.754h36.043c1.893 0 3.527-1.328 3.916-3.18l3.35-16 .844-4.035c.188-.896.318-1.804.491-2.704.779 1.292 1.58 2.49 2.403 3.584v14.335c0 2.211 1.791 4 4 4h112c2.209 0 4-1.789 4-4v-16c0-.334-.113-.631-.19-.941 1.036-1.615 2.041-3.396 3.014-5.342.341 2.088.682 4.176 1.098 6.247l.969 4.824 3.215 16c.375 1.867 2.016 3.211 3.922 3.211h34.598c2.117 0 3.867-1.648 3.992-3.766.324-5.457.531-10.812.686-16.117 3.18-108.496-27.318-180.973-27.627-181.691-.055-.127-.172-.209-.238-.33zm-83.669 1.424c-4.6-.004-8.434-1.934-11.053-5.469l-16.326-22.043h53.466l-15.187 21.735c-2.521 3.613-6.496 5.719-10.9 5.777zm-74.108 2.782c9.85 9.102 8.266 22.27 7.361 29.777-.553 4.574-.795 9.559-.768 15.688l.445 93.52c.055 11.34-1.098 22.73-3.428 33.859l-.178.855h-32.941c-1.916-89.606 22.336-156.09 29.509-173.699zm-28.927 189.699c-.141-2.698-.223-5.343-.319-8h31.005l-1.675 8zm43.54-140.29c4.55 7.586 14.011 15.998 17.94 18.243.615.352 1.299.527 1.984.527s1.371-.176 1.986-.527c5.262-3.008 20.467-17.09 20.467-25.418 0-7.801-6.348-14.148-14.148-14.148-3.018 0-5.918.969-8.305 2.703-2.387-1.734-5.287-2.703-8.305-2.703-4.594 0-8.643 2.235-11.229 5.637.09-1.052.192-2.083.313-3.09.946-7.858 3.007-25.372-10.752-37.23l33.273-22.258 18.787 25.367c3.364 4.538 8.191 7.446 13.603 8.366-.059.273-.166.53-.166.821v164h-50c-2.151-3.087-4.155-7.149-5.989-12.058.661-6.216.998-12.462.968-18.696zm5.469-7.175c0-3.391 2.76-6.148 6.15-6.148 1.996 0 3.877.98 5.031 2.625 1.5 2.133 5.047 2.133 6.547 0 1.154-1.645 3.035-2.625 5.031-2.625 3.391 0 6.148 2.758 6.148 6.141-.115 2.945-8.578 12.762-14.453 17.152-5.875-4.391-14.338-14.204-14.454-17.145zm2.256 143.465v-8h104v8zm104.262-16h-48.537v-164c0-.31-.11-.585-.177-.875 5.514-1.012 10.382-4.081 13.68-8.801l17.445-24.969 38.018 22.91c1.002.604 1.809 1.455 2.384 2.438-10.947 8.418-16.109 19.826-14.81 33.265.281 2.906.105 6.582-.064 10.133-.098 2.062-.193 4.07-.201 5.918l.469 94.07c.018 3.592.187 7.187.425 10.779-2.598 8.219-5.494 14.662-8.632 19.132zm23.041 20-1.607-8h29.451c-.093 2.657-.174 5.305-.31 8zm28.104-16h-31.317l-.324-1.613c-2.135-10.625-3.244-21.508-3.297-32.336l-.469-94.031c.008-1.703.1-3.594.191-5.539.184-3.832.373-7.801.037-11.281-.961-9.953 2.387-18.281 9.959-24.82 6.432 17.401 27.177 80.796 25.22 169.62z"/><circle cx="165.95" cy="110.469" r="4"/><circle cx="165.95" cy="138.469" r="4"/><circle cx="165.95" cy="166.469" r="4"/><circle cx="165.95" cy="194.469" r="4"/></svg>