<svg id="chelsea_x5F_boots" enable-background="new 0 0 300 300" height="512" viewBox="0 0 300 300" width="512" xmlns="http://www.w3.org/2000/svg"><path d="m271.482 223.958c.297-.99.201-2.128-.26-3.051-4.709-9.42-14.113-15.043-25.158-15.043h-3.607c-52.553 0-97.404-37.191-106.646-88.432-.625-3.467-.824-5.52-.834-5.613-.129-1.375-.959-2.59-2.193-3.207-1.242-.623-2.711-.557-3.883.168l-16.854 10.352c-3.205 1.969-6.889 3.01-10.65 3.01h-21.013c-4.705 0-9.273-.773-13.582-2.301-7.899-2.802-14.097-4.574-18.525-5.308v-28.784c4.105 3.76 8.219 10.08 4.074 18.652-.961 1.988-.129 4.381 1.861 5.342 1.984.961 4.379.131 5.342-1.861 8.273-17.113-5.229-29.289-13.523-33.336-1.236-.6-2.701-.529-3.873.203-1.17.73-1.881 2.014-1.881 3.393v39.955c-.002.244-.273 24.545 0 40.115l.051 2.404c.15 6.463.291 12.568-2.035 18.121-13.476 32.167-9.749 53.969-8.975 57.612v25.609c0 2.209 1.791 4 4 4h65.117c2.209 0 4-1.791 4-4v-9.299c7.979-.393 28.006-.514 46.682 6.529 9.531 3.596 34.15 3.717 59.875.291 17.592-2.34 48.984-8.146 61.576-20.74.75-.75 1.172-1.768 1.172-2.828v-10.232c0-.588-.106-1.161-.258-1.721zm-170.369-93.817c3.279 14.248 16.555 73.273 16.555 73.271.463 2.203-.084 4.469-1.502 6.215s-3.521 2.748-5.77 2.748h-26.578c-4.098 0-7.43-3.332-7.43-7.436l-.105-74.969c1.357.111 2.724.17 4.101.17h20.729zm-55.442 51.686c2.984-7.123 2.816-14.379 2.654-21.396l-.049-2.359c-.169-9.595-.128-22.496-.074-31.004.012-.127.074-.237.074-.367v-4.043c3.824.777 9.315 2.404 15.854 4.722 1.363.483 2.749.895 4.151 1.252l.107 76.314c0 8.508 6.922 15.43 15.43 15.43h26.578c4.67 0 9.037-2.08 11.98-5.707s4.08-8.33 3.107-12.955c0 0-12.849-57.134-16.408-72.634 2.507-.705 4.917-1.754 7.158-3.132l11.688-7.178c.004.027.01.055.016.082 9.93 55.053 58.092 95.012 114.52 95.012h3.607c6.331 0 11.882 2.526 15.61 7.009-.053.08-.099.162-.146.246-13.765 5.401-56.976 20.432-104.223 17.312-7.211-.477-14.922-2.352-22.377-4.166-7.506-1.826-15.268-3.715-22.426-4.117-10.357-.58-20.115-.805-29.021-.805-22.521 0-39.561 1.438-46.824 2.176-.816-7.157-1.29-25.09 9.014-49.692zm106.27 69.877c-25.658-9.678-52.795-6.869-53.939-6.746-2.029.221-3.566 1.936-3.566 3.977v9.023h-57.118v-18.468c9.659-.99 38.465-3.391 74.734-1.354 6.428.361 13.498 2.08 20.982 3.902 7.787 1.895 15.84 3.854 23.742 4.377 4.662.307 9.271.449 13.814.449 42.812 0 79.484-12.62 93.148-17.989v5.292c-19.996 17.185-95.746 23.598-111.797 17.537z"/><path d="m202.177 67.698c.781.781 1.805 1.172 2.828 1.172s2.047-.391 2.828-1.172c1.562-1.562 1.562-4.094 0-5.656l-5.658-5.658c-1.562-1.562-4.094-1.562-5.656 0s-1.562 4.094 0 5.656z"/><path d="m182.378 47.899c.781.781 1.805 1.172 2.828 1.172s2.047-.391 2.828-1.172c1.562-1.562 1.562-4.094 0-5.656l-5.658-5.658c-1.562-1.562-4.094-1.562-5.656 0s-1.562 4.094 0 5.656z"/><path d="m199.347 49.071c1.023 0 2.047-.391 2.828-1.172l5.658-5.658c1.562-1.562 1.562-4.094 0-5.656s-4.094-1.562-5.656 0l-5.658 5.658c-1.562 1.562-1.562 4.094 0 5.656.781.782 1.805 1.172 2.828 1.172z"/><path d="m179.548 68.87c1.023 0 2.047-.391 2.828-1.172l5.658-5.658c1.562-1.562 1.562-4.094 0-5.656s-4.094-1.562-5.656 0l-5.658 5.658c-1.562 1.562-1.562 4.094 0 5.656.781.781 1.805 1.172 2.828 1.172z"/><path d="m68.277 42.241c2.264 0 4.099-1.835 4.099-4.099s-1.835-4.099-4.099-4.099-4.099 1.835-4.099 4.099 1.835 4.099 4.099 4.099z"/><path d="m176.277 142.241c2.264 0 4.099-1.835 4.099-4.099s-1.835-4.099-4.099-4.099-4.099 1.835-4.099 4.099 1.835 4.099 4.099 4.099z"/><path d="m260.277 42.241c2.264 0 4.099-1.835 4.099-4.099s-1.835-4.099-4.099-4.099-4.099 1.835-4.099 4.099 1.835 4.099 4.099 4.099z"/><path d="m240.277 150.141c6.617 0 12-5.383 12-12s-5.383-12-12-12-12 5.383-12 12 5.383 12 12 12zm0-16c2.205 0 4 1.795 4 4s-1.795 4-4 4-4-1.795-4-4 1.795-4 4-4z"/><path d="m108.277 90.141c6.617 0 12-5.383 12-12s-5.383-12-12-12-12 5.383-12 12 5.383 12 12 12zm0-16c2.205 0 4 1.795 4 4s-1.795 4-4 4-4-1.795-4-4 1.795-4 4-4z"/></svg>