<svg id="allstar" enable-background="new 0 0 300 300" height="512" viewBox="0 0 300 300" width="512" xmlns="http://www.w3.org/2000/svg"><path d="m213.851 64.921c.781.781 1.805 1.172 2.828 1.172s2.047-.391 2.828-1.172c1.562-1.562 1.562-4.094 0-5.656l-5.658-5.658c-1.562-1.562-4.094-1.562-5.656 0s-1.562 4.094 0 5.656z"/><path d="m194.052 45.122c.781.781 1.805 1.172 2.828 1.172s2.047-.391 2.828-1.172c1.562-1.562 1.562-4.094 0-5.656l-5.658-5.658c-1.562-1.562-4.094-1.562-5.656 0s-1.562 4.094 0 5.656z"/><path d="m211.021 46.294c1.023 0 2.047-.391 2.828-1.172l5.658-5.658c1.562-1.562 1.562-4.094 0-5.656s-4.094-1.562-5.656 0l-5.658 5.658c-1.562 1.562-1.562 4.094 0 5.656.781.781 1.804 1.172 2.828 1.172z"/><path d="m191.222 66.093c1.023 0 2.047-.391 2.828-1.172l5.658-5.658c1.562-1.562 1.562-4.094 0-5.656s-4.094-1.562-5.656 0l-5.658 5.658c-1.562 1.562-1.562 4.094 0 5.656.781.781 1.804 1.172 2.828 1.172z"/><path d="m183.95 135.463c2.264 0 4.099-1.835 4.099-4.099s-1.835-4.099-4.099-4.099-4.099 1.835-4.099 4.099 1.835 4.099 4.099 4.099z"/><path d="m263.95 51.463c2.264 0 4.099-1.835 4.099-4.099s-1.835-4.099-4.099-4.099-4.099 1.835-4.099 4.099 1.835 4.099 4.099 4.099z"/><path d="m251.95 147.364c6.617 0 12-5.383 12-12s-5.383-12-12-12-12 5.383-12 12 5.383 12 12 12zm0-16c2.205 0 4 1.795 4 4s-1.795 4-4 4-4-1.795-4-4 1.795-4 4-4z"/><path d="m265.026 224.032c-.178-3.955-2.199-7.502-5.543-9.73-6.236-4.157-14.838-7.829-25.533-10.941-.515-.718-1.246-1.276-2.138-1.53-5.891-1.672-12.412-3.176-19.385-4.471-9.725-1.803-18.811-5.523-27.006-11.057-9.512-6.424-23.123-16.943-33.945-30.578-7.863-9.902-11.525-21.52-11.525-36.559v-23.804c0-2.203-1.781-3.992-3.986-4l-90.266-.326c-1.086.016-2.23.48-2.99 1.328-.762.85-1.125 1.982-.998 3.117l4.398 39.268c2.012 17.98-.289 36.52-6.656 53.613-4.788 12.859-9.599 31.332-6.496 48.419-.604.701-1.006 1.585-1.006 2.583v11.037c0 9.354 7.609 16.963 16.963 16.963h174.206c1.432 0 35.189-.201 44.373-17.73.301-.572.457-1.209.457-1.855v-10.826c0-3.439-1.196-6.762-3.298-9.516.266-1.103.427-2.235.374-3.405zm-7.992.36c.061 1.359-.535 2.646-1.635 3.533-9.086 7.312-23.645 7.439-23.785 7.439h-28.097c4.327-7.789 12.524-18.858 26.18-24.909 13.55 3.749 21.264 7.78 25.349 10.503 1.201.801 1.926 2.051 1.988 3.434zm-210.086-33.237c6.803-18.264 9.262-38.076 7.109-57.297l-3.898-34.807 81.791.297v12.016h-12c-2.209 0-4 1.791-4 4s1.791 4 4 4h12.007c.009 4.193.294 8.189.854 12h-12.861c-2.209 0-4 1.791-4 4s1.791 4 4 4h14.571c.607 2.228 1.31 4.396 2.139 6.488l-10.677 6.03c-1.924 1.086-2.602 3.525-1.516 5.449.734 1.303 2.09 2.033 3.486 2.033.666 0 1.342-.166 1.963-.518l10.207-5.764c1.376 2.43 2.913 4.771 4.646 7.01l-11.155 8.026c-1.793 1.289-2.201 3.789-.91 5.582.781 1.086 2.006 1.664 3.25 1.664.809 0 1.625-.244 2.332-.754l11.618-8.359c1.997 2.234 4.048 4.342 6.115 6.381l-10.405 7.486c-1.793 1.289-2.201 3.789-.91 5.582.781 1.086 2.006 1.664 3.25 1.664.809 0 1.625-.244 2.332-.754l11.681-8.404c2.327 2.068 4.634 4.025 6.886 5.826l-11.24 8.086c-1.793 1.289-2.201 3.789-.912 5.582.783 1.086 2.008 1.664 3.252 1.664.809 0 1.625-.244 2.332-.754l13.221-9.511c1.902 1.384 3.748 2.693 5.437 3.833 9.109 6.152 19.211 10.289 30.023 12.295 2.854.529 5.625 1.094 8.303 1.691-13.607 8.504-21.232 21.098-24.768 28.445h-153.676c-2.793-15.298 1.692-32.305 6.123-44.208zm213.002 55.565c-6.436 10.318-28.621 12.635-36.83 12.645h-174.207c-4.941 0-8.963-4.021-8.963-8.963v-7.037h157.119 34.545c.692 0 16.701-.125 27.986-8.607.213.708.35 1.438.35 2.195z"/><path d="m86.105 220.296c15.576 0 28.25-12.674 28.25-28.252s-12.674-28.252-28.25-28.252c-15.578 0-28.252 12.674-28.252 28.252s12.673 28.252 28.252 28.252zm0-48.504c11.166 0 20.25 9.086 20.25 20.252s-9.084 20.252-20.25 20.252-20.252-9.086-20.252-20.252 9.086-20.252 20.252-20.252z"/><path d="m86.105 205.804c7.586 0 13.758-6.172 13.758-13.76 0-7.586-6.172-13.758-13.758-13.758-7.588 0-13.76 6.172-13.76 13.758 0 7.588 6.172 13.76 13.76 13.76zm0-19.518c3.176 0 5.758 2.582 5.758 5.758s-2.582 5.76-5.758 5.76-5.76-2.584-5.76-5.76 2.584-5.758 5.76-5.758z"/></svg>