<svg id="cowboy_x5F_boots" enable-background="new 0 0 300 300" height="512" viewBox="0 0 300 300" width="512" xmlns="http://www.w3.org/2000/svg"><path d="m249.614 214.026-39.023 3.305c-15.691 1.301-30.75-3.848-42.348-14.52-11.578-10.652-17.953-25.18-17.953-40.904v-65.439c0-30.973-25.197-56.17-56.17-56.17s-56.17 25.197-56.17 56.17v117.939c0 8.083 2.851 15.717 8.045 21.798v24.093c0 2.209 1.791 4 4 4h52.34c2.209 0 4-1.791 4-4v-18.147c8.644 2.467 17.083 6.537 24.986 12.208 13.934 9.996 31.77 12.072 44.199 12.072 8.391 0 14.316-.947 14.898-1.045.152-.025.305-.059.453-.102l60.188-17.371c1.711-.494 2.891-2.062 2.891-3.844v-26.057c0-1.119-.469-2.188-1.293-2.945-.828-.757-1.98-1.142-3.043-1.041zm-139.664-163.001v50.593l-16.512-8.846c-1.201-.643-2.643-.631-3.832.029l-15.656 8.697v-48.715c6.145-2.849 12.963-4.485 20.17-4.485 5.552 0 10.864.991 15.83 2.727zm-11.615 205.273h-44.34v-16.914h33.27c3.694 0 7.392.319 11.07.925zm147.615-15.238-57.05 16.466c-2.82.418-33.18 4.49-52.914-9.668-15.02-10.777-31.867-16.475-48.721-16.475h-34.895c-4.152-4.689-6.42-10.658-6.42-16.977v-117.938c0-16.038 7.909-30.232 20-38.992v50.822c0 1.418.75 2.729 1.971 3.447.627.369 1.328.553 2.029.553.668 0 1.338-.168 1.943-.504l19.691-10.939 20.477 10.969c1.236.664 2.738.631 3.943-.094 1.207-.723 1.945-2.025 1.945-3.432v-53.637c14.516 8.308 24.34 23.918 24.34 41.807v65.439c0 17.727 7.484 34.781 20.535 46.791 13.07 12.027 30.742 18.076 48.434 16.605l34.691-2.938v18.695z"/><path d="m112.382 135.263-22.846 26.654-18.838-26.375c-1.285-1.801-3.787-2.213-5.58-.932-1.799 1.285-2.215 3.783-.932 5.58l21.807 30.531c.715 1.002 1.852 1.617 3.078 1.672.061.002.119.004.178.004 1.164 0 2.275-.508 3.037-1.396l26.17-30.531c1.438-1.678 1.244-4.203-.434-5.641-1.673-1.435-4.199-1.238-5.64.434z"/><path d="m112.382 170.155-22.846 26.655-18.838-26.375c-1.285-1.799-3.787-2.215-5.58-.932-1.799 1.285-2.215 3.783-.932 5.58l21.807 30.531c.715 1.002 1.852 1.617 3.078 1.672.061.002.119.004.178.004 1.164 0 2.275-.508 3.037-1.396l26.17-30.531c1.438-1.678 1.244-4.203-.434-5.641-1.673-1.438-4.199-1.241-5.64.433z"/><path d="m207.849 65.854c.781.781 1.805 1.172 2.828 1.172s2.047-.391 2.828-1.172c1.562-1.561 1.562-4.094 0-5.656l-5.656-5.658c-1.562-1.562-4.094-1.562-5.656 0-1.562 1.561-1.562 4.094 0 5.656z"/><path d="m188.052 46.056c.781.781 1.805 1.172 2.828 1.172s2.047-.391 2.828-1.172c1.562-1.561 1.562-4.094 0-5.656l-5.656-5.658c-1.562-1.562-4.094-1.562-5.656 0-1.562 1.561-1.562 4.094 0 5.656z"/><path d="m205.021 47.228c1.023 0 2.047-.391 2.828-1.172l5.656-5.658c1.562-1.562 1.562-4.096 0-5.656-1.562-1.562-4.094-1.562-5.656 0l-5.656 5.658c-1.562 1.562-1.562 4.096 0 5.656.781.781 1.804 1.172 2.828 1.172z"/><path d="m185.224 67.026c1.023 0 2.047-.391 2.828-1.172l5.656-5.658c1.562-1.562 1.562-4.096 0-5.656-1.562-1.562-4.094-1.562-5.656 0l-5.656 5.658c-1.562 1.562-1.562 4.096 0 5.656.781.782 1.804 1.172 2.828 1.172z"/><path d="m177.95 136.397c2.264 0 4.099-1.835 4.099-4.099s-1.835-4.099-4.099-4.099-4.099 1.835-4.099 4.099 1.835 4.099 4.099 4.099z"/><path d="m257.95 44.198c-2.264 0-4.099 1.835-4.099 4.099s1.835 4.099 4.099 4.099 4.099-1.835 4.099-4.099-1.835-4.099-4.099-4.099z"/><path d="m245.95 124.298c-6.617 0-12 5.383-12 12s5.383 12 12 12 12-5.383 12-12-5.382-12-12-12zm0 16c-2.207 0-4-1.795-4-4s1.793-4 4-4 4 1.795 4 4-1.793 4-4 4z"/></svg>