<svg id="mini_x5F_dress" enable-background="new 0 0 300 300" height="512" viewBox="0 0 300 300" width="512" xmlns="http://www.w3.org/2000/svg"><path d="m62.06 72.766c.781.781 1.805 1.172 2.828 1.172s2.047-.391 2.828-1.172c1.562-1.562 1.562-4.094 0-5.656l-4.863-4.863c-1.562-1.562-4.094-1.562-5.656 0s-1.562 4.094 0 5.656z"/><path d="m45.048 55.755c.781.781 1.805 1.172 2.828 1.172s2.047-.391 2.828-1.172c1.562-1.562 1.562-4.094 0-5.656l-4.863-4.863c-1.562-1.562-4.094-1.562-5.656 0s-1.562 4.094 0 5.656z"/><path d="m60.024 56.927c1.023 0 2.047-.391 2.828-1.172l4.863-4.863c1.562-1.562 1.562-4.094 0-5.656s-4.094-1.562-5.656 0l-4.863 4.863c-1.562 1.562-1.562 4.094 0 5.656.782.781 1.805 1.172 2.828 1.172z"/><path d="m43.013 73.938c1.023 0 2.047-.391 2.828-1.172l4.863-4.863c1.562-1.562 1.562-4.094 0-5.656s-4.094-1.562-5.656 0l-4.863 4.863c-1.562 1.562-1.562 4.094 0 5.656.781.782 1.804 1.172 2.828 1.172z"/><path d="m254.853 234.247c-1.562-1.562-4.094-1.562-5.656 0s-1.562 4.094 0 5.656l4.863 4.863c.781.781 1.805 1.172 2.828 1.172s2.047-.391 2.828-1.172c1.562-1.562 1.562-4.094 0-5.656z"/><path d="m237.841 217.235c-1.562-1.562-4.094-1.562-5.656 0s-1.562 4.094 0 5.656l4.863 4.863c.781.781 1.805 1.172 2.828 1.172s2.047-.391 2.828-1.172c1.562-1.562 1.562-4.094 0-5.656z"/><path d="m254.06 217.235-4.863 4.863c-1.562 1.562-1.562 4.094 0 5.656.781.781 1.805 1.172 2.828 1.172s2.047-.391 2.828-1.172l4.863-4.863c1.562-1.562 1.562-4.094 0-5.656s-4.094-1.562-5.656 0z"/><path d="m237.048 234.247-4.863 4.863c-1.562 1.562-1.562 4.094 0 5.656.781.781 1.805 1.172 2.828 1.172s2.047-.391 2.828-1.172l4.863-4.863c1.562-1.562 1.562-4.094 0-5.656s-4.094-1.563-5.656 0z"/><path d="m65.95 116.901c-2.264 0-4.1 1.836-4.1 4.1s1.836 4.099 4.1 4.099 4.1-1.835 4.1-4.099-1.836-4.1-4.1-4.1z"/><path d="m257.95 149.1c2.264 0 4.1-1.835 4.1-4.099s-1.836-4.1-4.1-4.1-4.1 1.836-4.1 4.1 1.837 4.099 4.1 4.099z"/><path d="m49.95 181.001c-6.617 0-12 5.383-12 12s5.383 12 12 12 12-5.383 12-12-5.383-12-12-12zm0 16c-2.207 0-4-1.793-4-4s1.793-4 4-4 4 1.793 4 4-1.793 4-4 4z"/><path d="m241.95 61.001c0-6.617-5.383-12-12-12s-12 5.383-12 12 5.383 12 12 12 12-5.383 12-12zm-12 4c-2.207 0-4-1.793-4-4s1.793-4 4-4 4 1.793 4 4-1.793 4-4 4z"/><path d="m200.384 153.079c-2.91-9.156-6.906-22.188-9.422-32.254-.005-.021-.008-.044-.013-.065-.002-.012.003-.024.001-.036-.016-.078-.094-.516-.113-.598-.005-.021-.019-.038-.024-.059-2.519-11.795 3.592-28.42 6.396-35.129 1.559-3.73 2.102-7.82 1.613-12.148-1.68-14.984 4.93-31.797 4.996-31.965.406-1.023.375-2.172-.09-3.168-.461-1-1.316-1.762-2.359-2.109l-13.02-4.34c-1.961-.66-4.121.305-4.941 2.219l-3.617 8.438c-5.082 11.855-16.695 19.516-29.594 19.516s-24.512-7.66-29.594-19.516l-3.617-8.438c-.82-1.914-2.969-2.883-4.941-2.219l-13.02 4.34c-1.043.348-1.898 1.109-2.363 2.109s-.492 2.145-.086 3.168c.066.168 6.684 16.926 4.996 31.961-.488 4.332.055 8.422 1.613 12.156 2.807 6.713 8.929 23.369 6.387 35.163-.006.029-.025.051-.031.08-.016.059-.108.599-.117.665-2.508 10.021-6.503 23.054-9.415 32.229-2.457 7.734-3.883 15.797-4.238 23.957l-3.816 87.793c-.047 1.09.352 2.148 1.105 2.938.758.789 1.801 1.234 2.891 1.234h108.492c1.09 0 2.133-.445 2.891-1.234.754-.789 1.152-1.848 1.105-2.941l-3.82-87.789c-.352-8.157-1.778-16.216-4.235-23.958zm-28.004-3.715c3.695 10.938 5.57 22.336 5.57 33.883v77.754h-51.961v-76.438c0-12.391 2.148-24.574 6.387-36.211l4.134-11.352h31.691zm-55.77-24.363h12.402v4h-13.468c.374-1.366.728-2.697 1.066-4zm51.11 0v4h-30.707v-4zm8 0h8.062c.338 1.304.691 2.635 1.064 4h-9.125v-4zm-66.196-51.32c1.395-12.449-2.043-25.453-4.109-31.832l5.668-1.891 2.168 5.055c6.34 14.805 20.844 24.367 36.945 24.367s30.605-9.562 36.945-24.367l2.168-5.055 5.668 1.891c-2.066 6.383-5.504 19.387-4.109 31.836.336 2.961-.016 5.715-1.043 8.172-3.403 8.144-8.39 22.57-7.486 35.145h-5.577l5.079-24.781c.445-2.164-.949-4.281-3.113-4.723-2.184-.434-4.281.953-4.723 3.113l-5.41 26.391h-32.518l-5.842-26.449c-.48-2.16-2.594-3.512-4.77-3.043-2.156.477-3.52 2.613-3.043 4.77l5.46 24.723h-9.83c.903-12.574-4.083-27.001-7.486-35.141-1.026-2.463-1.378-5.217-1.042-8.181zm-5.761 103.703c.324-7.457 1.629-14.82 3.871-21.883 1.687-5.313 3.729-11.912 5.649-18.5h14.714l-3.137 8.617c-4.559 12.516-6.871 25.617-6.871 38.945v76.438h-17.863zm82.187 83.617v-77.754c0-12.418-2.016-24.68-5.992-36.445l-3.312-9.801h10.46c1.923 6.598 3.967 13.194 5.653 18.5 2.246 7.066 3.547 14.43 3.867 21.879v.004l3.637 83.617z"/></svg>