<svg id="espadriles" enable-background="new 0 0 300 300" height="512" viewBox="0 0 300 300" width="512" xmlns="http://www.w3.org/2000/svg"><path d="m202.542 83.962c.781.781 1.805 1.172 2.828 1.172s2.047-.391 2.828-1.172c1.562-1.562 1.562-4.094 0-5.656l-5.658-5.658c-1.562-1.562-4.094-1.562-5.656 0s-1.562 4.094 0 5.656z"/><path d="m182.743 64.163c.781.781 1.805 1.172 2.828 1.172s2.047-.391 2.828-1.172c1.562-1.562 1.562-4.094 0-5.656l-5.658-5.658c-1.562-1.562-4.094-1.562-5.656 0s-1.562 4.094 0 5.656z"/><path d="m199.711 65.335c1.023 0 2.047-.391 2.828-1.172l5.658-5.658c1.562-1.562 1.562-4.094 0-5.656s-4.094-1.562-5.656 0l-5.658 5.658c-1.562 1.562-1.562 4.094 0 5.656.782.781 1.805 1.172 2.828 1.172z"/><path d="m179.913 85.134c1.023 0 2.047-.391 2.828-1.172l5.658-5.658c1.562-1.562 1.562-4.094 0-5.656s-4.094-1.562-5.656 0l-5.658 5.658c-1.562 1.562-1.562 4.094 0 5.656.781.781 1.804 1.172 2.828 1.172z"/><path d="m68.641 58.504c2.264 0 4.099-1.835 4.099-4.099s-1.835-4.099-4.099-4.099-4.099 1.835-4.099 4.099 1.835 4.099 4.099 4.099z"/><path d="m260.641 58.504c2.264 0 4.099-1.835 4.099-4.099s-1.835-4.099-4.099-4.099-4.099 1.835-4.099 4.099 1.835 4.099 4.099 4.099z"/><path d="m140.641 142.504c2.264 0 4.099-1.835 4.099-4.099s-1.835-4.099-4.099-4.099-4.099 1.835-4.099 4.099 1.835 4.099 4.099 4.099z"/><path d="m240.641 166.405c6.617 0 12-5.383 12-12s-5.383-12-12-12-12 5.383-12 12 5.383 12 12 12zm0-16c2.205 0 4 1.795 4 4s-1.795 4-4 4-4-1.795-4-4 1.795-4 4-4z"/><path d="m68.641 98.405c0 6.617 5.383 12 12 12s12-5.383 12-12-5.383-12-12-12-12 5.383-12 12zm12-4c2.205 0 4 1.795 4 4s-1.795 4-4 4-4-1.795-4-4 1.795-4 4-4z"/><path d="m266.87 220.577c-.807-.807-20.129-19.832-52.443-26.293-29.652-5.932-47.561-23.324-48.309-24.061-.91-.898-2.193-1.309-3.463-1.098-1.264.209-2.35 1.012-2.924 2.156l-11.489 22.977c-.159-.024-.297-.103-.462-.107-11.778-.343-53.032-2.68-94.761-17.96l-5.683-17.051c-.697-2.094-2.955-3.232-5.061-2.529-2.096.699-3.229 2.963-2.529 5.061l5.668 17.007c-3.616 5.461-13.979 23.152-13.435 45.976v.002.001c.09 3.886.502 7.773 1.228 11.565.016 1.023.398 2.035 1.119 2.865 6.504 7.488 94.189 10.16 95.074 10.186 8.439.236 18.557.422 29.568.422 34.873 0 78.676-1.863 106.188-9.848 1.709-.496 2.885-2.062 2.885-3.842v-10.098-2.502c.001-1.061-.421-2.079-1.171-2.829zm-102.297-41.088c7.369 5.998 24.352 17.852 48.283 22.639 21.953 4.391 37.68 15.271 44.533 20.789-29.184 4.342-68.369 5.807-116.705 4.346zm-113.153 4.66c39.322 14.183 77.921 17.227 92.938 17.878l-12.469 24.937c-38.452-1.403-72.766-4.241-91.898-6.039.554-17.412 8.056-31.35 11.429-36.776zm-10.529 49.621c-.277-1.581-.487-3.18-.641-4.787 19.844 1.851 54.881 4.72 93.926 6.073 14.426.5 28.084.75 40.949.75 33.988 0 62.374-1.766 84.916-5.233v2.39c-62.072 16.411-203.027 5.798-219.15.807z"/></svg>