<svg id="enenig_x5F_dress" enable-background="new 0 0 300 300" height="512" viewBox="0 0 300 300" width="512" xmlns="http://www.w3.org/2000/svg"><path d="m62.06 65.773c.781.781 1.805 1.172 2.828 1.172s2.047-.391 2.828-1.172c1.562-1.562 1.562-4.094 0-5.656l-4.863-4.863c-1.562-1.562-4.094-1.562-5.656 0s-1.562 4.094 0 5.656z"/><path d="m45.048 48.762c.781.781 1.805 1.172 2.828 1.172s2.047-.391 2.828-1.172c1.562-1.562 1.562-4.094 0-5.656l-4.863-4.863c-1.562-1.562-4.094-1.562-5.656 0s-1.562 4.094 0 5.656z"/><path d="m60.024 49.934c1.023 0 2.047-.391 2.828-1.172l4.863-4.863c1.562-1.562 1.562-4.094 0-5.656s-4.094-1.562-5.656 0l-4.863 4.863c-1.562 1.562-1.562 4.094 0 5.656.782.781 1.805 1.172 2.828 1.172z"/><path d="m43.013 66.945c1.023 0 2.047-.391 2.828-1.172l4.863-4.863c1.562-1.562 1.562-4.094 0-5.656s-4.094-1.562-5.656 0l-4.863 4.863c-1.562 1.562-1.562 4.094 0 5.656.781.782 1.804 1.172 2.828 1.172z"/><path d="m254.853 227.254c-1.562-1.562-4.094-1.562-5.656 0s-1.562 4.094 0 5.656l4.863 4.863c.781.781 1.805 1.172 2.828 1.172s2.047-.391 2.828-1.172c1.562-1.562 1.562-4.094 0-5.656z"/><path d="m237.841 210.242c-1.562-1.562-4.094-1.562-5.656 0s-1.562 4.094 0 5.656l4.863 4.863c.781.781 1.805 1.172 2.828 1.172s2.047-.391 2.828-1.172c1.562-1.562 1.562-4.094 0-5.656z"/><path d="m254.06 210.242-4.863 4.863c-1.562 1.562-1.562 4.094 0 5.656.781.781 1.805 1.172 2.828 1.172s2.047-.391 2.828-1.172l4.863-4.863c1.562-1.562 1.562-4.094 0-5.656s-4.094-1.562-5.656 0z"/><path d="m237.048 227.254-4.863 4.863c-1.562 1.562-1.562 4.094 0 5.656.781.781 1.805 1.172 2.828 1.172s2.047-.391 2.828-1.172l4.863-4.863c1.562-1.562 1.562-4.094 0-5.656s-4.094-1.563-5.656 0z"/><path d="m65.95 109.908c-2.264 0-4.1 1.836-4.1 4.1s1.836 4.099 4.1 4.099 4.1-1.835 4.1-4.099-1.836-4.1-4.1-4.1z"/><path d="m257.95 142.107c2.264 0 4.1-1.835 4.1-4.099s-1.836-4.1-4.1-4.1-4.1 1.836-4.1 4.1 1.837 4.099 4.1 4.099z"/><path d="m49.95 174.008c-6.617 0-12 5.383-12 12s5.383 12 12 12 12-5.383 12-12-5.383-12-12-12zm0 16c-2.207 0-4-1.793-4-4s1.793-4 4-4 4 1.793 4 4-1.793 4-4 4z"/><path d="m241.95 54.008c0-6.617-5.383-12-12-12s-12 5.383-12 12 5.383 12 12 12 12-5.383 12-12zm-12 4c-2.207 0-4-1.793-4-4s1.793-4 4-4 4 1.793 4 4-1.793 4-4 4z"/><path d="m187.688 86.121-2.109-12.66c-1.211-7.27-3.898-14.062-7.984-20.191l-4.325-6.489c7.713-3.226 12.681-8.583 12.681-14.772 0-2.211-1.789-4-4-4s-4 1.789-4 4c0 4.719-9.41 10-22 10s-22-5.281-22-10c0-2.211-1.789-4-4-4s-4 1.789-4 4c0 6.189 4.968 11.547 12.681 14.772l-4.325 6.489c-4.086 6.129-6.773 12.922-7.984 20.191l-2.109 12.66c-1.473 8.84-.328 17.746 3.309 25.879-3.648 7.941-5.57 16.691-5.57 25.43v124.582c0 1.637.996 3.105 2.516 3.715 10.445 4.176 20.965 6.266 31.484 6.266s21.039-2.09 31.484-6.266c1.52-.609 2.516-2.078 2.516-3.715v-124.582c0-8.738-1.922-17.488-5.57-25.43 3.634-8.133 4.778-17.039 3.305-25.879zm-55.585 1.313 2.109-12.66c1.023-6.145 3.293-11.887 6.75-17.066l5.129-7.695h19.719l5.129 7.695c3.457 5.18 5.727 10.922 6.75 17.066l2.109 12.66c1.292 7.742.132 15.543-3.329 22.574h-5.112l2.495-11.125c.484-2.156-.871-4.293-3.027-4.777-2.137-.473-4.293.875-4.777 3.027l-2.888 12.875h-14.42l-2.888-12.875c-.484-2.152-2.621-3.504-4.777-3.027-2.156.484-3.512 2.621-3.027 4.777l2.495 11.125h-5.112c-3.461-7.031-4.62-14.832-3.328-22.574zm49.847 171.824c-17.266 6.281-34.734 6.281-52 0v-121.828c0-6.634 1.337-13.249 3.774-19.422h32.226v76c0 2.211 1.789 4 4 4s4-1.789 4-4v-76h4.226c2.438 6.173 3.774 12.788 3.774 19.422z"/></svg>