<svg id="flats" enable-background="new 0 0 300 300" height="512" viewBox="0 0 300 300" width="512" xmlns="http://www.w3.org/2000/svg"><path d="m204.911 86.553c.781.781 1.805 1.172 2.828 1.172s2.047-.391 2.828-1.172c1.562-1.562 1.562-4.094 0-5.656l-5.658-5.658c-1.562-1.562-4.094-1.562-5.656 0s-1.562 4.094 0 5.656z"/><path d="m185.112 66.754c.781.781 1.805 1.172 2.828 1.172s2.047-.391 2.828-1.172c1.562-1.562 1.562-4.094 0-5.656l-5.658-5.658c-1.562-1.562-4.094-1.562-5.656 0s-1.562 4.094 0 5.656z"/><path d="m202.081 67.926c1.023 0 2.047-.391 2.828-1.172l5.658-5.658c1.562-1.562 1.562-4.094 0-5.656s-4.094-1.562-5.656 0l-5.658 5.658c-1.562 1.562-1.562 4.094 0 5.656.781.781 1.804 1.172 2.828 1.172z"/><path d="m182.282 87.724c1.023 0 2.047-.391 2.828-1.172l5.658-5.658c1.562-1.562 1.562-4.094 0-5.656s-4.094-1.562-5.656 0l-5.658 5.658c-1.562 1.562-1.562 4.094 0 5.656.781.782 1.805 1.172 2.828 1.172z"/><path d="m71.011 61.095c2.264 0 4.099-1.835 4.099-4.099s-1.835-4.099-4.099-4.099-4.099 1.835-4.099 4.099 1.835 4.099 4.099 4.099z"/><path d="m263.011 61.095c2.264 0 4.099-1.835 4.099-4.099s-1.835-4.099-4.099-4.099-4.099 1.835-4.099 4.099 1.835 4.099 4.099 4.099z"/><path d="m147.011 157.095c2.264 0 4.099-1.835 4.099-4.099s-1.835-4.099-4.099-4.099-4.099 1.835-4.099 4.099 1.835 4.099 4.099 4.099z"/><path d="m243.011 168.996c6.617 0 12-5.383 12-12s-5.383-12-12-12-12 5.383-12 12 5.382 12 12 12zm0-16c2.205 0 4 1.795 4 4s-1.795 4-4 4-4-1.795-4-4 1.795-4 4-4z"/><path d="m71.011 100.996c0 6.617 5.383 12 12 12s12-5.383 12-12-5.383-12-12-12-12 5.383-12 12zm12-4c2.205 0 4 1.795 4 4s-1.795 4-4 4-4-1.795-4-4 1.795-4 4-4z"/><path d="m268.515 215.371c-7.074-7.076-52.648-18.738-61.711-21.004-1.811-.451-3.688.42-4.537 2.072-.252.486-6.338 11.979-24.301 17.965-16.568 5.524-28.612 15.304-33.001 19.228-23.427-7.57-39.66-9.201-49.038-9.237-2.426-8.086-10.588-19.942-24.537-35.479-3.641-4.057-6.615-8.705-9.287-13.125-8.834-14.627-24.861-14.795-25.539-14.795-2.094 0-3.832 1.613-3.988 3.701-.01.135-1.037 13.596-2.928 19.764-5.7 18.587-.838 35.592 1.843 42.734-.282.548-.479 1.143-.479 1.801v12c0 2.209 1.791 4 4 4h56c2.209 0 4-1.791 4-4v-8.579c8.621-.056 25.068 1.316 49.703 9.529 10.311 3.436 30.816 5.158 52.125 5.158 21.098 0 42.982-1.689 56.518-5.072 11.094-2.773 17.566-7.24 19.238-13.275 1.592-5.753-1.816-11.12-4.081-13.386zm-231.219-28.566c1.447-4.719 2.4-12.545 2.883-17.348 4.109.863 10.771 3.344 15.076 10.473 2.875 4.754 6.098 9.781 10.182 14.33 13.182 14.684 19.852 24.763 22.257 30.581-.434.059-.791.112-1.039.156h-47.433c-2.188-5.708-7.055-21.468-1.926-38.192zm1.715 50.191v-4h48v4zm225.875-10.375c-.385 1.383-2.463 4.896-13.471 7.648-22.969 5.742-72.988 6.387-96.932 1.875 5.504-4.264 14.672-10.369 26.014-14.15 15.826-5.275 23.939-14.518 27.182-19.154 24.869 6.332 51.643 14.65 55.18 18.188.027.027 2.753 2.964 2.027 5.593z"/></svg>