<svg id="flip_x5F_flops" enable-background="new 0 0 300 300" height="512" viewBox="0 0 300 300" width="512" xmlns="http://www.w3.org/2000/svg"><path d="m203.898 87.606c.781.781 1.805 1.172 2.828 1.172s2.047-.391 2.828-1.172c1.562-1.561 1.562-4.094 0-5.656l-5.656-5.658c-1.562-1.562-4.094-1.562-5.656 0-1.562 1.561-1.562 4.094 0 5.656z"/><path d="m184.102 67.807c.781.781 1.805 1.172 2.828 1.172s2.047-.391 2.828-1.172c1.562-1.561 1.562-4.094 0-5.656l-5.656-5.658c-1.562-1.562-4.094-1.562-5.656 0-1.562 1.561-1.562 4.094 0 5.656z"/><path d="m201.07 68.979c1.023 0 2.047-.391 2.828-1.172l5.656-5.658c1.562-1.562 1.562-4.096 0-5.656-1.562-1.562-4.094-1.562-5.656 0l-5.656 5.658c-1.562 1.562-1.562 4.096 0 5.656.781.782 1.805 1.172 2.828 1.172z"/><path d="m181.273 88.778c1.023 0 2.047-.391 2.828-1.172l5.656-5.658c1.562-1.562 1.562-4.096 0-5.656-1.562-1.562-4.094-1.562-5.656 0l-5.656 5.658c-1.562 1.562-1.562 4.096 0 5.656.782.782 1.805 1.172 2.828 1.172z"/><path d="m70 62.149c2.264 0 4.099-1.835 4.099-4.099s-1.835-4.1-4.099-4.1-4.099 1.835-4.099 4.099 1.835 4.1 4.099 4.1z"/><path d="m262 62.149c2.264 0 4.099-1.835 4.099-4.099s-1.835-4.1-4.099-4.1-4.099 1.835-4.099 4.099 1.835 4.1 4.099 4.1z"/><path d="m142 146.149c2.264 0 4.099-1.835 4.099-4.099s-1.835-4.099-4.099-4.099-4.099 1.835-4.099 4.099 1.835 4.099 4.099 4.099z"/><path d="m242 170.05c6.617 0 12-5.383 12-12s-5.383-12-12-12-12 5.383-12 12 5.383 12 12 12zm0-16c2.207 0 4 1.795 4 4s-1.793 4-4 4-4-1.795-4-4 1.793-4 4-4z"/><path d="m70 102.05c0 6.617 5.383 12 12 12s12-5.383 12-12-5.383-12-12-12-12 5.382-12 12zm12-4c2.205 0 4 1.795 4 4s-1.795 4-4 4-4-1.795-4-4 1.795-4 4-4z"/><path d="m260 226.05h-38v-10.897c5.632-1.727 9.766-6.914 9.766-13.103 0-7.59-6.176-13.766-13.766-13.766-2.536 0-4.883.737-6.926 1.938-7.607-5.524-17.473-7.697-26.867-5.733-24.012 5.016-74.779 32.449-89.768 40.738-.387.214-.685.514-.968.822h-53.471c-5.514 0-10 4.486-10 10s4.486 10 10 10h220c5.516 0 10-4.486 10-10s-4.484-9.999-10-9.999zm-51.175-13.814c1.474 1.329 3.231 2.321 5.175 2.917v10.897h-56.967c14.088-10.033 32.168-14.917 51.792-13.814zm14.941-10.186c0 3.18-2.586 5.766-5.766 5.766s-5.766-2.586-5.766-5.766 2.586-5.766 5.766-5.766 5.766 2.586 5.766 5.766zm-37.926-9.729c6.875-1.439 14.096-.007 19.786 3.808-.866 1.801-1.392 3.793-1.392 5.92 0 .731.105 1.435.216 2.136-23.091-.234-44.036 7.135-59.357 21.204-.209.192-.321.438-.479.66h-34.92c19.959-10.657 57.496-29.833 76.146-33.728zm74.16 45.729h-220c-1.104 0-2-.896-2-2s.896-2 2-2h220c1.102 0 2 .896 2 2s-.898 2-2 2z"/></svg>