<svg id="gloves" enable-background="new 0 0 300 300" height="512" viewBox="0 0 300 300" width="512" xmlns="http://www.w3.org/2000/svg"><path d="m194 38.469c-5.684 0-10.699 2.699-14 6.826-3.301-4.127-8.316-6.826-14-6.826-7.795 0-14.383 5.009-16.88 11.955-3.071-2.438-6.903-3.955-11.12-3.955-9.926 0-18 8.074-18 18v5.047c-2.863-1.92-6.301-3.047-10-3.047-9.926 0-18 8.074-18 18v62c0 .041.022.075.023.116v115.587c-.008.098-.012.191-.012.289v.016c.004 2.203 1.781 3.992 3.988 3.992h75.949.052 36c2.211 0 4-1.789 4-4v-144-23.199-38.801c0-9.926-8.074-18-18-18zm-84 36c5.516 0 10 4.484 10 10v42 4c0 2.211 1.789 4 4 4s4-1.789 4-4v-4-42-20c0-5.516 4.484-10 10-10s10 4.484 10 10v54 4c0 2.211 1.789 4 4 4s4-1.789 4-4v-4-54-8c0-5.516 4.484-10 10-10s10 4.484 10 10v62c0 2.211 1.789 4 4 4s4-1.789 4-4v-62c0-5.516 4.484-10 10-10s10 4.484 10 10v38.801 23.199 55.144l-19.57-19.573c-8.844-8.836-23.223-8.836-32.059 0-8.836 8.84-8.836 23.223 0 32.059l16.406 16.406-.154 11.844h-68.6v-119.079c0-.041-.022-.075-.023-.116v-10.685c0-5.516 4.484-10 10-10zm-9.977 147.879h68.496l-.469 36.121h-68.028v-36.121zm76.03 36.121.748-57.551c.016-1.078-.41-2.117-1.172-2.879l-17.602-17.598c-5.719-5.719-5.719-15.023 0-20.746 5.723-5.719 15.031-5.711 20.746 0l25.227 25.231v73.543z"/><path d="m61.766 56.578-4.863-4.863c-1.562-1.562-4.094-1.562-5.656 0s-1.562 4.094 0 5.656l4.863 4.863c.781.781 1.805 1.172 2.828 1.172s2.047-.391 2.828-1.172c1.562-1.562 1.562-4.093 0-5.656z"/><path d="m39.098 45.223c.781.781 1.805 1.172 2.828 1.172s2.047-.391 2.828-1.172c1.562-1.562 1.562-4.094 0-5.656l-4.863-4.863c-1.562-1.562-4.094-1.562-5.656 0s-1.562 4.094 0 5.656z"/><path d="m54.074 46.395c1.023 0 2.047-.391 2.828-1.172l4.863-4.863c1.562-1.562 1.562-4.094 0-5.656s-4.094-1.562-5.656 0l-4.863 4.863c-1.562 1.562-1.562 4.094 0 5.656.781.781 1.805 1.172 2.828 1.172z"/><path d="m37.062 63.406c1.023 0 2.047-.391 2.828-1.172l4.863-4.863c1.562-1.562 1.562-4.094 0-5.656s-4.094-1.562-5.656 0l-4.863 4.863c-1.562 1.562-1.562 4.094 0 5.656.782.782 1.805 1.172 2.828 1.172z"/><path d="m68.099 110.469c0-2.264-1.835-4.1-4.099-4.1s-4.099 1.836-4.099 4.1 1.835 4.099 4.099 4.099 4.099-1.836 4.099-4.099z"/><path d="m68 218.369c-2.264 0-4.099 1.836-4.099 4.1s1.835 4.099 4.099 4.099 4.099-1.835 4.099-4.099-1.835-4.1-4.099-4.1z"/><path d="m240 46.369c-2.264 0-4.099 1.836-4.099 4.1s1.835 4.099 4.099 4.099 4.099-1.835 4.099-4.099-1.835-4.1-4.099-4.1z"/><path d="m256 106.469c-6.617 0-12 5.383-12 12s5.383 12 12 12 12-5.383 12-12-5.383-12-12-12zm0 16c-2.207 0-4-1.793-4-4s1.793-4 4-4 4 1.793 4 4-1.793 4-4 4z"/><path d="m44 162.469c-6.617 0-12 5.383-12 12s5.383 12 12 12 12-5.383 12-12-5.383-12-12-12zm0 16c-2.207 0-4-1.793-4-4s1.793-4 4-4 4 1.793 4 4-1.793 4-4 4z"/></svg>