<svg id="pumps" enable-background="new 0 0 300 300" height="512" viewBox="0 0 300 300" width="512" xmlns="http://www.w3.org/2000/svg"><path d="m205.957 79.698c.781.781 1.805 1.172 2.828 1.172s2.047-.391 2.828-1.172c1.562-1.561 1.562-4.094 0-5.656l-5.656-5.658c-1.562-1.562-4.094-1.562-5.656 0-1.562 1.561-1.562 4.094 0 5.656z"/><path d="m186.16 59.899c.781.781 1.805 1.172 2.828 1.172s2.047-.391 2.828-1.172c1.562-1.561 1.562-4.094 0-5.656l-5.656-5.658c-1.562-1.562-4.094-1.562-5.656 0-1.562 1.561-1.562 4.094 0 5.656z"/><path d="m203.129 61.071c1.023 0 2.047-.391 2.828-1.172l5.656-5.658c1.562-1.562 1.562-4.096 0-5.656-1.562-1.562-4.094-1.562-5.656 0l-5.656 5.658c-1.562 1.562-1.562 4.096 0 5.656.781.782 1.804 1.172 2.828 1.172z"/><path d="m183.332 80.87c1.023 0 2.047-.391 2.828-1.172l5.656-5.658c1.562-1.562 1.562-4.096 0-5.656-1.562-1.562-4.094-1.562-5.656 0l-5.656 5.658c-1.562 1.562-1.562 4.096 0 5.656.781.781 1.805 1.172 2.828 1.172z"/><path d="m72.059 54.241c2.264 0 4.099-1.835 4.099-4.099s-1.835-4.099-4.099-4.099-4.099 1.835-4.099 4.099 1.835 4.099 4.099 4.099z"/><path d="m264.059 54.241c2.264 0 4.099-1.835 4.099-4.099s-1.835-4.099-4.099-4.099-4.099 1.835-4.099 4.099 1.835 4.099 4.099 4.099z"/><path d="m144.059 138.241c2.264 0 4.099-1.835 4.099-4.099s-1.835-4.099-4.099-4.099-4.099 1.835-4.099 4.099 1.835 4.099 4.099 4.099z"/><path d="m244.059 162.141c6.617 0 12-5.383 12-12s-5.383-12-12-12-12 5.383-12 12 5.382 12 12 12zm0-16c2.207 0 4 1.795 4 4s-1.793 4-4 4-4-1.795-4-4 1.793-4 4-4z"/><path d="m72.059 94.141c0 6.617 5.383 12 12 12s12-5.383 12-12-5.383-12-12-12-12 5.383-12 12zm12-4c2.207 0 4 1.795 4 4s-1.793 4-4 4-4-1.795-4-4 1.793-4 4-4z"/><path d="m271.852 229.823c-2.488-7.475-11.746-21.609-28.957-21.609-16.527 0-22.332-5.121-22.336-5.119-1.504-1.502-4.16-1.498-5.656 0-3.227 3.229-8.496 5.318-15.656 6.213-12.445 1.564-25.332-1.826-36.328-9.521l-112.747-78.923c-1.785-1.258-4.273-.832-5.547.953-29.582 41.412-11.872 62.511-6.69 67.352l12.311 61.574c.375 1.869 2.016 3.215 3.922 3.215h12.582c1.875 0 3.496-1.303 3.906-3.133l11.636-52.359c17.049 6.212 43.113 26.162 57.825 38.109 9.895 8.033 21.809 12.852 34.457 13.932 5.613.479 11.066.691 16.348.691 45.27 0 77.43-15.785 78.926-16.533 1.781-.891 2.636-2.955 2.004-4.842zm-208.309 16.135h-6.094l-10.916-54.585c5.232.493 14.604 1.75 28.042 4.93zm111.711-3.424c-11.043-.941-21.449-5.15-30.09-12.17-20.043-16.273-47.562-36.578-64.863-40.904-20.652-5.162-32.992-6.168-37.148-6.363-3.605-3.559-16.648-19.912 5.727-53.371l109.453 76.615c12.625 8.836 27.512 12.707 41.906 10.904 7.398-.922 13.344-3.029 17.734-6.273 3.828 2.217 11.512 5.242 24.922 5.242 11.359 0 17.359 8.129 19.887 12.855-10.712 4.526-44.969 17.108-87.528 13.465z"/></svg>