<svg id="boots_x5F_heels" enable-background="new 0 0 300 300" height="512" viewBox="0 0 300 300" width="512" xmlns="http://www.w3.org/2000/svg"><path d="m209.363 69.415c.781.781 1.805 1.172 2.828 1.172s2.047-.391 2.828-1.172c1.562-1.561 1.562-4.094 0-5.656l-5.656-5.658c-1.562-1.562-4.094-1.562-5.656 0-1.562 1.561-1.562 4.094 0 5.656z"/><path d="m189.566 49.616c.781.781 1.805 1.172 2.828 1.172s2.047-.391 2.828-1.172c1.562-1.561 1.562-4.094 0-5.656l-5.656-5.658c-1.562-1.562-4.094-1.562-5.656 0-1.562 1.561-1.562 4.094 0 5.656z"/><path d="m206.535 50.788c1.023 0 2.047-.391 2.828-1.172l5.656-5.658c1.562-1.562 1.562-4.096 0-5.656-1.562-1.562-4.094-1.562-5.656 0l-5.656 5.658c-1.562 1.562-1.562 4.096 0 5.656.781.781 1.804 1.172 2.828 1.172z"/><path d="m186.738 70.587c1.023 0 2.047-.391 2.828-1.172l5.656-5.658c1.562-1.562 1.562-4.096 0-5.656-1.562-1.562-4.094-1.562-5.656 0l-5.656 5.658c-1.562 1.562-1.562 4.096 0 5.656.781.781 1.804 1.172 2.828 1.172z"/><path d="m267.464 35.759c-2.264 0-4.1 1.835-4.1 4.099s1.836 4.099 4.1 4.099 4.1-1.835 4.1-4.099-1.836-4.099-4.1-4.099z"/><path d="m115.464 59.957c2.264 0 4.1-1.835 4.1-4.099s-1.836-4.099-4.1-4.099-4.1 1.835-4.1 4.099 1.837 4.099 4.1 4.099z"/><path d="m247.464 151.858c6.617 0 12-5.383 12-12s-5.383-12-12-12-12 5.383-12 12 5.383 12 12 12zm0-16c2.207 0 4 1.795 4 4s-1.793 4-4 4-4-1.795-4-4 1.793-4 4-4z"/><path d="m259.669 210.543c-.591-.9-1.277-1.744-2.068-2.524-4.414-4.355-11.59-6.543-21.516-6.367-13.211.242-25.785-2.871-36.082-8.818-7.578-4.373-12.945-9.379-15.949-14.877-19.695-36.043-47.289-84.82-47.566-85.309-1.047-1.85-3.359-2.562-5.27-1.607-12.117 6.062-24.465 6.172-24.59 6.172-2.203.008-3.992 1.797-3.992 4v9.119c-24.52-.816-44.833-8.835-51.336-11.686v-20.51c1.25.885 2.492 2.047 3.395 3.545 1.516 2.521 1.809 5.533.891 9.207-.539 2.145.766 4.316 2.91 4.852 2.137.537 4.312-.771 4.848-2.91 1.441-5.762.84-10.898-1.793-15.271-4.398-7.311-12.93-9.492-13.289-9.582-1.18-.289-2.457-.023-3.426.732-.969.758-1.535 1.92-1.535 3.15v29.107l-6.449 51.58c-13.123 20.588-7.096 46.582-6.645 48.417.001.004-.001.009 0 .013l13.188 59.338c.41 1.83 2.031 3.133 3.906 3.133h46.148c2.211 0 4-1.791 4-4v-36.234c11.151-1.38 22.302 4.699 30.856 11.343l28.331 28.131c.66.658 1.527 1.066 2.453 1.154.574.055 4.52.4 10.828.4 18.145-.002 55.84-2.859 89.16-23.723 5.484-3.434 8.617-9.375 8.387-15.895-.207-5.865-3.173-11.128-7.795-14.08zm-209.162 44.903-10.536-47.418c17.349 8.576 40.867 13.563 49.478 15.197v32.221zm50.122-40.433c-2.41 0-4.852.25-7.297.793-5.434-.971-37.938-7.129-55.652-18.158-1.016-5.289-3.653-23.627 4.691-38.717l44.418 17.768c9.625 3.85 15.848 13.039 15.848 23.41 0 2.209 1.789 4 4 4s4-1.791 4-4c0-13.662-8.195-25.766-20.879-30.84l-44.699-17.88 5.543-44.327c9.383 3.881 30.699 11.336 56.035 11.336 2.211 0 4-1.791 4-4v-9.416c4.543-.432 12.398-1.664 20.699-5.189 6.473 11.463 28.949 51.35 45.699 82.002 3.719 6.805 10.102 12.85 18.969 17.967 11.543 6.67 25.539 10.107 40.191 9.891 7.27-.137 13.031 1.344 15.789 4.061 1.238 1.225 1.969 2.77 2.207 4.693-5.184 5.129-31.699 27.418-98.094 24.453-4.805-.215-9.367-2.254-12.848-5.74-2.583-2.587-5.83-5.571-9.559-8.494l-.188-.183c-.067-.066-.157-.087-.228-.147-8.851-6.862-20.401-13.283-32.645-13.283zm154.207 18.724c-38.648 24.197-85.023 22.738-93.598 22.236l-5.11-5.11c4.166.181 8.182.27 12.055.27 59.046-.002 84.379-19.921 91.228-26.617.01.134.056.255.061.39.129 3.687-1.562 6.905-4.636 8.831z"/></svg>