<svg id="hoodie" enable-background="new 0 0 300 300" height="512" viewBox="0 0 300 300" width="512" xmlns="http://www.w3.org/2000/svg"><g style="fill:none;stroke:#000;stroke-width:8;stroke-linecap:round;stroke-linejoin:round;stroke-miterlimit:10"><path d="m87.707 94.5-.908.57-24.397 82.61c-5.608 18.99-8.452 38.627-8.452 58.359v19.698h19.709l4.87-5.982c6.203-7.618 9.791-16.883 10.272-26.526l5.655-113.33"/><path d="m207.437 114.068 5.279 110.382"/><path d="m212.716 224.45c.413 8.627 3.319 16.977 8.397 24.127l5.086 7.16h19.751v-19.697c0-19.732-2.85-39.369-8.47-58.359l-24.363-82.322"/><path d="m108.087 81.337-20.063 13.163.786.784c3.864 3.851 5.903 9.167 5.604 14.614l-6.051 157.132h123.088l-4.237-157.235c-.246-5.388 1.792-10.63 5.613-14.437l-.082-.289-20.932-13.732"/><path d="m225.95 254.742h20v12.288h-20z"/><path d="m53.95 254.742h20v12.288h-20z"/><path d="m256.026 54.818 4.86 4.86"/><path d="m239.014 37.806 4.861 4.861"/><path d="m256.026 42.667 4.86-4.861"/><path d="m239.014 59.678 4.861-4.86"/></g><circle cx="45.95" cy="38.742" r="4.099"/><circle cx="265.95" cy="106.742" r="4.099"/><circle cx="45.95" cy="86.742" r="8" style="fill:none;stroke:#000;stroke-width:8;stroke-linecap:round;stroke-linejoin:round;stroke-miterlimit:10"/><path d="m191.814 267.03c0-12.434-1.922-24.793-5.698-36.639l-6.263-19.649h-59.805l-6.263 19.649c-3.776 11.846-5.698 24.205-5.698 36.639" style="fill:none;stroke:#000;stroke-width:8;stroke-linecap:round;stroke-linejoin:round;stroke-miterlimit:10"/><path d="m121.319 93.604c-14.725-14.725-14.725-22.087-14.725-22.087 0-16.265 19.778-29.45 44.175-29.45s44.175 13.185 44.175 29.45c0 0 0 7.362-14.725 22.087" style="fill:none;stroke:#000;stroke-width:8;stroke-linecap:round;stroke-linejoin:round;stroke-miterlimit:10"/><path d="m122.333 67.61c-2.582 2.582-2.156 6.88.882 8.905l14.183 9.455 7.829 11.744c2.636 3.954 8.446 3.954 11.082 0l7.829-11.744 14.183-9.455c3.038-2.025 3.464-6.324.882-8.905-13.253-12.868-45.253-12.868-56.87 0z" style="fill:none;stroke:#000;stroke-width:8;stroke-linecap:round;stroke-linejoin:round;stroke-miterlimit:10"/><path d="m137.95 90.742v80" style="fill:none;stroke:#000;stroke-width:8;stroke-linecap:round;stroke-linejoin:round;stroke-miterlimit:10"/><path d="m161.95 90.742v80" style="fill:none;stroke:#000;stroke-width:8;stroke-linecap:round;stroke-linejoin:round;stroke-miterlimit:10"/></svg>