<svg id="suit_x5F_jacket" enable-background="new 0 0 300 300" height="512" viewBox="0 0 300 300" width="512" xmlns="http://www.w3.org/2000/svg"><path d="m190.355 271.296c-3.181 0-6.694-.457-10.533-1.373-13.624-3.25-20.715-9.75-24.404-15.679-3.689 5.929-10.78 12.429-24.405 15.679-10.455 2.495-18.507 1.587-23.932-2.696-6.259-4.94-6.331-12.433-6.331-12.749 0-.111.005-.224.014-.335l3.383-40.276c.054-.653 5.204-66.587-14.938-134.6-.535-1.808.265-3.745 1.92-4.647l38.465-20.978c1.937-1.057 4.369-.344 5.427 1.597 1.058 1.939.343 4.369-1.597 5.427l-35.639 19.437c19.523 68.39 14.39 133.768 14.335 134.43l-3.364 40.052c.041.658.393 4.136 3.357 6.422 3.37 2.6 9.263 2.99 17.043 1.136 21.679-5.173 22.248-19.66 22.261-20.321.019-2.192 1.803-3.965 4-3.965 2.189 0 3.969 1.76 4 3.942v.001.005.001.013.006.004.003.006.001.019c.012.578.546 15.105 22.262 20.286 7.84 1.871 13.761 1.457 17.117-1.193 2.89-2.282 3.245-5.798 3.284-6.386l-2.912-40.071c-.053-.609-5.318-65.73 14.644-133.974l-32.26-17.593c-1.939-1.058-2.654-3.487-1.597-5.427 1.057-1.939 3.485-2.655 5.427-1.597l35.103 19.143c1.665.908 2.463 2.859 1.912 4.673-20.591 67.842-15.31 133.488-15.254 134.144l2.931 40.326c.007.097.011.193.011.29 0 .316-.072 7.809-6.331 12.749-3.433 2.71-7.919 4.068-13.399 4.068z"/><path d="m103.659 258.478h-24.24c-2.209 0-4-1.791-4-4v-145.234c0-8.971 2.716-17.601 7.854-24.957l5.534-7.923c.354-.507.82-.924 1.363-1.221l.96-.524c1.939-1.058 4.37-.345 5.428 1.595s.344 4.369-1.595 5.428l-.135.074-4.996 7.153c-4.195 6.006-6.412 13.052-6.412 20.375v141.233h20.24c2.209 0 4 1.791 4 4s-1.792 4.001-4.001 4.001z"/><path d="m231.418 258.477h-23.65c-2.209 0-4-1.791-4-4s1.791-4 4-4h19.65v-141.234c0-7.325-2.217-14.371-6.412-20.375l-5.534-7.923c-1.265-1.811-.822-4.305.989-5.57 1.812-1.266 4.305-.822 5.569.989l5.534 7.923c5.138 7.355 7.854 15.985 7.854 24.957v145.233c0 2.209-1.791 4-4 4z"/><path d="m155.418 246.477c-2.209 0-4-1.791-4-4v-124c0-2.209 1.791-4 4-4s4 1.791 4 4v124c0 2.209-1.791 4-4 4z"/><path d="m203.168 218.322c-.011 0-.021 0-.031 0l-6.985-.055c-6.927-.053-13.176-3.924-16.308-10.103l-3.993-7.879c-.628-1.24-.567-2.718.16-3.902s2.018-1.906 3.408-1.906h23.096c2.185 0 3.966 1.753 4 3.938.148 9.638.626 15.392.63 15.448l.013.168c.081 1.114-.308 2.211-1.071 3.025-.757.809-1.814 1.266-2.919 1.266zm-17.237-15.844 1.05 2.07c1.772 3.498 5.311 5.69 9.232 5.72l2.688.021c-.104-1.971-.219-4.599-.304-7.812h-12.666z"/><path d="m175.418 50.477h-36c-2.209 0-4-1.791-4-4s1.791-4 4-4h36c2.209 0 4 1.791 4 4s-1.791 4-4 4z"/><path d="m108.121 218.351c-1.112 0-2.174-.463-2.932-1.278-.766-.826-1.149-1.936-1.054-3.059l.013-.15c.004-.047.466-5.804.611-15.446.033-2.186 1.814-3.94 4-3.94h22.659c1.39 0 2.681.722 3.409 1.906.728 1.185.788 2.662.159 3.902l-4.004 7.897c-3.125 6.164-9.358 10.036-16.268 10.104l-6.553.064c-.014 0-.027 0-.04 0zm4.558-15.874c-.083 3.223-.193 5.856-.295 7.832l2.251-.022c3.913-.038 7.442-2.23 9.211-5.721l1.059-2.089z"/><path d="m155.421 145.043c-1.512 0-2.958-.861-3.634-2.323-.927-2.005-.053-4.382 1.953-5.309 19.901-9.198 27.424-38.994 29.234-47.743l-6.446-4.434c-1.085-.747-1.733-1.979-1.733-3.296s.648-2.549 1.733-3.296l6.673-4.589-.685-7.883-6.276-9.752-16.941 67.863c-.535 2.143-2.705 3.446-4.85 2.912-2.144-.535-3.447-2.707-2.912-4.85l19.182-76.835c.387-1.548 1.655-2.718 3.229-2.978 1.57-.255 3.152.44 4.015 1.782l11.816 18.361c.353.546.565 1.171.622 1.818l.972 11.191c.124 1.435-.532 2.826-1.719 3.642l-3.801 2.614 3.801 2.614c1.266.871 1.921 2.389 1.687 3.907-.274 1.776-7.034 43.638-34.245 56.213-.543.252-1.114.371-1.675.371z"/><path d="m155.415 145.043c-.611 0-1.231-.141-1.813-.437-24.767-12.621-30.892-54.428-31.14-56.202-.201-1.435.39-2.867 1.544-3.742l3.59-2.723-3.59-2.723c-1.086-.823-1.678-2.143-1.571-3.501l.881-11.191c.047-.601.229-1.182.533-1.703l10.717-18.361c.828-1.418 2.44-2.187 4.063-1.937 1.624.25 2.93 1.468 3.292 3.07l17.397 76.835c.487 2.155-.863 4.297-3.018 4.785-2.158.485-4.297-.863-4.785-3.018l-15.155-66.938-5.14 8.807-.638 8.099 6.051 4.589c.997.756 1.583 1.936 1.583 3.187s-.586 2.431-1.583 3.187l-5.86 4.445c1.587 8.55 8.374 38.69 26.462 47.907 1.968 1.003 2.751 3.412 1.747 5.38-.707 1.387-2.111 2.184-3.567 2.185z"/><circle cx="167.418" cy="198.477" r="2.561"/><circle cx="167.418" cy="214.477" r="2.561"/><circle cx="143.418" cy="198.477" r="2.561"/><circle cx="143.418" cy="214.477" r="2.561"/><path d="m62.354 63.413c-1.024 0-2.047-.391-2.829-1.171l-4.86-4.86c-1.562-1.563-1.562-4.095 0-5.657 1.563-1.562 4.095-1.562 5.657 0l4.86 4.86c1.562 1.563 1.562 4.095 0 5.657-.781.78-1.804 1.171-2.828 1.171z"/><path d="m45.343 46.402c-1.024 0-2.047-.391-2.829-1.171l-4.861-4.861c-1.562-1.563-1.562-4.095 0-5.657 1.563-1.562 4.095-1.562 5.657 0l4.861 4.861c1.562 1.563 1.562 4.095 0 5.657-.781.78-1.804 1.171-2.828 1.171z"/><path d="m57.494 46.402c-1.023 0-2.047-.391-2.828-1.171-1.563-1.562-1.563-4.095 0-5.657l4.86-4.861c1.561-1.562 4.094-1.563 5.657 0 1.563 1.562 1.563 4.095 0 5.657l-4.86 4.861c-.781.78-1.805 1.171-2.829 1.171z"/><path d="m40.482 63.413c-1.024 0-2.047-.391-2.829-1.172-1.562-1.562-1.562-4.095 0-5.657l4.861-4.86c1.563-1.562 4.095-1.561 5.657 0 1.562 1.562 1.562 4.095 0 5.657l-4.861 4.86c-.781.781-1.805 1.172-2.828 1.172z"/><circle cx="263.418" cy="98.477" r="4.099"/><circle cx="47.418" cy="118.477" r="4.099"/><circle cx="103.418" cy="38.477" r="4.099"/><path d="m239.418 62.477c-6.617 0-12-5.383-12-12s5.383-12 12-12 12 5.383 12 12-5.383 12-12 12zm0-16c-2.206 0-4 1.794-4 4s1.794 4 4 4 4-1.794 4-4-1.794-4-4-4z"/></svg>