<svg id="denim_x5F_jacket" enable-background="new 0 0 300 300" height="512" viewBox="0 0 300 300" width="512" xmlns="http://www.w3.org/2000/svg"><path d="m223.817 69.995c.01-1.496-.775-2.91-2.165-3.604l-30.565-15.252c-.069-.262-.09-.534-.213-.78l-6.84-13.68c-.637-1.273-1.906-2.113-3.328-2.203-.296-.012-.578.025-.858.069-.132-.013-.245-.077-.38-.077h-51.996-.004c-.484 0-.944.115-1.385.279-.102.038-.198.072-.295.118-.407.19-.786.431-1.11.748-.044.043-.074.096-.116.142-.172.185-.345.369-.482.588l-8.065 12.87c-.223.066-.453.073-.668.181l-34.065 16.997c-1.389.694-2.177 2.11-2.167 3.607l-32.679 65.362c-8.479 16.957-11.223 36.555-7.73 55.191l10.404 55.488 3.969 21.168c.213 1.133.906 2.121 1.902 2.711.623.363 1.324.551 2.029.551.426 0 .854-.066 1.266-.207l29.727-9.908c.679 1.241 1.95 2.115 3.465 2.115h120c1.516 0 2.787-.874 3.465-2.115l29.726 9.908c.414.141.84.207 1.266.207.707 0 1.406-.188 2.027-.551.996-.59 1.691-1.578 1.902-2.711l3.969-21.168 10.402-55.488c3.496-18.633.75-38.234-7.727-55.191zm-34.633-10.867 25.998 12.974-7.586 29.367c-.086.324-.129.664-.129 1v131.969l-.008.031h-11.344l-4.528-93.627c4.654-2.385 7.88-7.178 7.88-12.756v-17.617c0-.073-.038-.135-.042-.207-.02-.386-.095-.764-.229-1.136-.034-.095-.051-.195-.092-.287-.016-.036-.018-.076-.036-.112-.186-.383-.438-.716-.723-1.014-.073-.076-.16-.13-.239-.201-.271-.241-.566-.441-.89-.6-.121-.06-.237-.116-.365-.164-.439-.164-.898-.279-1.384-.279h-28c-.487 0-.947.115-1.387.28-.13.049-.247.108-.371.169-.315.156-.6.349-.863.582-.09.08-.187.144-.27.231-.294.31-.553.657-.738 1.058-.01.022-.01.046-.02.067-.037.084-.048.177-.079.264-.136.375-.212.757-.231 1.146-.004.071-.041.131-.041.202v17.617c0 5.578 3.226 10.371 7.88 12.756l-4.528 93.627h-11.352v-148.572l15.93 10.62c.664.445 1.438.672 2.219.672.438 0 .875-.07 1.297-.215 1.18-.406 2.105-1.336 2.496-2.52zm-101.716 143.307-3.689-14.759c-1.926-7.699-1.031-15.852 2.52-22.949l1.17-2.341v40.049zm12.51 50.038-2.501-10.004h13.158 21.668 38.33 21.672 13.157l-2.5 10.004c-.172.686-.097 1.356.077 1.996h-103.139c.174-.64.249-1.311.078-1.996zm11.49-131.118.422.497c2.502 2.941 6.072 4.617 9.83 4.617h.225c3.665-.067 7.087-1.757 9.523-4.594v6.212c0 3.52-2.863 6.383-6.383 6.383h-7.234c-3.52 0-6.383-2.863-6.383-6.383zm4.646-6.886h11.088l-1.623 2.051c-.973 1.23-2.314 1.922-3.775 1.949-1.537-.074-2.811-.613-3.816-1.797zm3.164 28h4.379l4.447 92h-13.273zm52.19-21.114.422.497c2.5 2.941 6.074 4.617 9.828 4.617h.227c3.666-.067 7.084-1.757 9.523-4.595v6.212c0 3.52-2.863 6.383-6.383 6.383h-7.234c-3.52 0-6.383-2.863-6.383-6.383zm4.644-6.886h11.09l-1.621 2.051c-.973 1.23-2.316 1.922-3.777 1.949-.031 0-.059 0-.086 0-1.422 0-2.746-.637-3.734-1.797zm3.168 28h4.375l4.449 92h-13.273zm36.188 59.971v-40.057l1.172 2.343c3.547 7.098 4.441 15.246 2.52 22.949zm-32.492-149.983-11.496 34.496-12.836-8.555 21.316-31.977zm-29.769 19.675-18.526-29.663h38.301zm-25.745-26.12 20.186 32.32-12.932 8.621-11.43-34.281zm-10.92 11.724 12.241 36.717c.395 1.184 1.318 2.113 2.496 2.52.424.145.861.215 1.299.215.779 0 1.553-.227 2.219-.672l12.672-8.448v146.401h-11.354l-4.526-93.626c4.655-2.385 7.88-7.178 7.88-12.756v-17.617c0-.075-.038-.137-.042-.21-.02-.382-.095-.755-.227-1.123-.036-.1-.053-.204-.096-.3-.016-.035-.018-.074-.035-.109-.185-.382-.436-.714-.721-1.012-.075-.079-.165-.135-.246-.207-.269-.239-.562-.437-.884-.596-.122-.06-.238-.117-.367-.165-.439-.164-.897-.279-1.382-.279h-28c-.487 0-.947.115-1.387.28-.129.048-.245.107-.368.168-.317.157-.605.352-.871.587-.088.078-.181.14-.262.225-.296.311-.557.658-.743 1.061-.011.023-.011.049-.022.073-.033.076-.042.16-.071.239-.14.383-.217.772-.236 1.17-.004.069-.04.128-.04.198v17.617c0 5.578 3.225 10.372 7.88 12.756l-4.526 93.626h-11.347l-.008-.031v-131.969c0-.336-.043-.676-.127-1l-7.59-29.367zm-69.973 131.338c-3.174-16.926-.68-34.734 7.023-50.137l28.458-56.919 5.417 20.958v42.485c-.468.357-.881.793-1.162 1.355l-7.164 14.332c-4.402 8.805-5.512 18.914-3.125 28.465l10.422 41.695-30.281 8.906zm11.071 59.042 30.741-9.042 2.936 11.742-31.221 10.406zm185.199 13.107-31.223-10.406 2.935-11.742 30.746 9.043zm13.527-72.149-9.59 51.141-30.281-8.906 10.422-41.695c2.387-9.551 1.277-19.66-3.121-28.465l-6.531-13.059c-.4-.796-1.06-1.338-1.797-1.712v-43.401l5.415-20.959 28.46 56.92c7.703 15.406 10.195 33.21 7.023 50.136z"/><path d="m55.573 58.234c.781.781 1.807 1.172 2.83 1.172s2.047-.391 2.828-1.172c1.562-1.559 1.562-4.094.002-5.656l-4.859-4.863c-1.562-1.562-4.096-1.562-5.658 0-1.562 1.559-1.562 4.094-.002 5.656z"/><path d="m38.562 41.223c.781.781 1.807 1.172 2.83 1.172s2.047-.391 2.828-1.172c1.562-1.559 1.562-4.094.002-5.656l-4.859-4.863c-1.562-1.562-4.096-1.562-5.658 0-1.562 1.559-1.562 4.094-.002 5.656z"/><path d="m53.544 42.395c1.023 0 2.049-.391 2.83-1.172l4.859-4.863c1.561-1.562 1.561-4.098-.002-5.656-1.562-1.562-4.096-1.562-5.658 0l-4.859 4.863c-1.561 1.562-1.561 4.098.002 5.656.781.781 1.805 1.172 2.828 1.172z"/><path d="m44.222 53.371c1.561-1.562 1.561-4.098-.002-5.656-1.562-1.562-4.096-1.562-5.658 0l-4.859 4.863c-1.561 1.562-1.561 4.098.002 5.656.781.781 1.805 1.172 2.828 1.172s2.049-.391 2.83-1.172z"/><path d="m219.468 42.568c2.264 0 4.099-1.835 4.099-4.099s-1.835-4.099-4.099-4.099-4.099 1.835-4.099 4.099 1.835 4.099 4.099 4.099z"/><path d="m43.369 98.469c0 2.264 1.835 4.099 4.099 4.099s4.099-1.835 4.099-4.099-1.835-4.099-4.099-4.099-4.099 1.835-4.099 4.099z"/><path d="m255.468 86.469c6.617 0 12-5.383 12-12s-5.383-12-12-12-12 5.383-12 12 5.383 12 12 12zm0-16c2.207 0 4 1.793 4 4s-1.793 4-4 4-4-1.793-4-4 1.793-4 4-4z"/></svg>