<svg id="jeans_x5F_men" enable-background="new 0 0 300 300" height="512" viewBox="0 0 300 300" width="512" xmlns="http://www.w3.org/2000/svg"><path d="m246.906 193.246c-1.562-1.562-4.096-1.562-5.658 0-1.562 1.559-1.562 4.094-.002 5.656l4.859 4.863c.781.781 1.807 1.172 2.83 1.172s2.047-.391 2.828-1.172c1.562-1.559 1.562-4.094.002-5.656z"/><path d="m229.895 176.234c-1.562-1.562-4.096-1.562-5.658 0-1.562 1.559-1.562 4.094-.002 5.656l4.859 4.863c.781.781 1.807 1.172 2.83 1.172s2.047-.391 2.828-1.172c1.562-1.559 1.562-4.094.002-5.656z"/><path d="m246.105 176.234-4.859 4.863c-1.561 1.562-1.561 4.098.002 5.656.781.781 1.805 1.172 2.828 1.172s2.049-.391 2.83-1.172l4.859-4.863c1.561-1.562 1.561-4.098-.002-5.656-1.562-1.562-4.095-1.562-5.658 0z"/><path d="m229.094 193.246-4.859 4.863c-1.561 1.562-1.561 4.098.002 5.656.781.781 1.805 1.172 2.828 1.172s2.049-.391 2.83-1.172l4.859-4.863c1.561-1.562 1.561-4.098-.002-5.656-1.563-1.562-4.096-1.562-5.658 0z"/><path d="m63.766 58.109-4.859-4.863c-1.562-1.562-4.096-1.562-5.658 0-1.562 1.559-1.562 4.094-.002 5.656l4.859 4.863c.781.781 1.807 1.172 2.83 1.172s2.047-.391 2.828-1.172c1.562-1.558 1.562-4.093.002-5.656z"/><path d="m41.094 46.754c.781.781 1.807 1.172 2.83 1.172s2.047-.391 2.828-1.172c1.562-1.559 1.562-4.094.002-5.656l-4.859-4.863c-1.562-1.562-4.096-1.562-5.658 0-1.562 1.559-1.562 4.094-.002 5.656z"/><path d="m56.076 47.926c1.023 0 2.049-.391 2.83-1.172l4.859-4.863c1.561-1.562 1.561-4.098-.002-5.656-1.562-1.562-4.096-1.562-5.658 0l-4.859 4.863c-1.561 1.562-1.561 4.098.002 5.656.781.781 1.805 1.172 2.828 1.172z"/><path d="m39.064 64.938c1.023 0 2.049-.391 2.83-1.172l4.859-4.863c1.561-1.562 1.561-4.098-.002-5.656-1.562-1.562-4.096-1.562-5.658 0l-4.859 4.863c-1.561 1.562-1.561 4.098.002 5.656.782.781 1.805 1.172 2.828 1.172z"/><path d="m234 103.9c-2.264 0-4.099 1.836-4.099 4.1s1.835 4.099 4.099 4.099 4.099-1.835 4.099-4.099-1.835-4.1-4.099-4.1z"/><path d="m66 135.9c-2.264 0-4.099 1.836-4.099 4.1s1.835 4.099 4.099 4.099 4.099-1.835 4.099-4.099-1.835-4.1-4.099-4.1z"/><path d="m254 36c-6.617 0-12 5.383-12 12s5.383 12 12 12 12-5.383 12-12-5.383-12-12-12zm0 16c-2.205 0-4-1.793-4-4s1.795-4 4-4 4 1.793 4 4-1.795 4-4 4z"/><path d="m46 208c-6.617 0-12 5.383-12 12s5.383 12 12 12 12-5.383 12-12-5.383-12-12-12zm0 16c-2.205 0-4-1.793-4-4s1.795-4 4-4 4 1.793 4 4-1.795 4-4 4z"/><path d="m198 47.504v-11.504c0-2.211-1.791-4-4-4h-80c-2.209 0-4 1.789-4 4v11.504l-7.879 31.285c-.08.32-.121.648-.121.977v184.234c0 2.211 1.791 4 4 4h40c2.209 0 4-1.789 4-4v-119.074l4-8.184 4 8.184v119.074c0 2.211 1.791 4 4 4h40c2.209 0 4-1.789 4-4v-184.234c0-.328-.041-.656-.121-.977zm-32 200.496v-104c0-.609-.139-1.211-.406-1.758l-7.594-15.532v-40.176c7.261-3.392 12-10.633 12-18.819v-15.715h5.465c.26 7.93 4.187 15.147 10.614 19.607-.014.136-.079.254-.079.393v176zm-4-196v15.715c0 3.615-1.508 6.927-4 9.291v-25.006zm28.883 0 3.858 15.318-2.139-1.096c-5.422-2.783-8.844-8.185-9.136-14.223h7.417zm3.117 23.926 3.188 1.633c.047.024.098.032.145.054l.667 2.649v167.738h-4zm-76-35.926h72v4h-72zm-8 208v-167.738l.667-2.649c.048-.022.098-.029.145-.054l3.188-1.633v172.074zm5.398-181.777-2.139 1.096 3.858-15.319h7.417c-.291 6.038-3.713 11.439-9.136 14.223zm-5.398 193.777v-4h32v4zm32.406-117.758c-.267.547-.406 1.149-.406 1.758v104h-20v-176c0-.139-.065-.257-.079-.393 6.427-4.46 10.354-11.678 10.614-19.607h17.465v74.71zm23.594 117.758v-4h32v4z"/></svg>