<svg id="jeans" enable-background="new 0 0 300 300" height="512" viewBox="0 0 300 300" width="512" xmlns="http://www.w3.org/2000/svg"><path d="m246.902 201.246c-1.562-1.562-4.094-1.562-5.656 0s-1.562 4.094 0 5.656l4.863 4.863c.781.781 1.805 1.172 2.828 1.172s2.047-.391 2.828-1.172c1.562-1.562 1.562-4.094 0-5.656z"/><path d="m229.891 184.234c-1.562-1.562-4.094-1.562-5.656 0s-1.562 4.094 0 5.656l4.863 4.863c.781.781 1.805 1.172 2.828 1.172s2.047-.391 2.828-1.172c1.562-1.562 1.562-4.094 0-5.656z"/><path d="m246.109 184.234-4.863 4.863c-1.562 1.562-1.562 4.094 0 5.656.781.781 1.805 1.172 2.828 1.172s2.047-.391 2.828-1.172l4.863-4.863c1.562-1.562 1.562-4.094 0-5.656s-4.093-1.562-5.656 0z"/><path d="m229.098 201.246-4.863 4.863c-1.562 1.562-1.562 4.094 0 5.656.781.781 1.805 1.172 2.828 1.172s2.047-.391 2.828-1.172l4.863-4.863c1.562-1.562 1.562-4.094 0-5.656s-4.094-1.562-5.656 0z"/><path d="m63.766 66.109-4.863-4.863c-1.562-1.562-4.094-1.562-5.656 0s-1.562 4.094 0 5.656l4.863 4.863c.781.781 1.805 1.172 2.828 1.172s2.047-.391 2.828-1.172c1.562-1.562 1.562-4.093 0-5.656z"/><path d="m41.098 54.754c.781.781 1.805 1.172 2.828 1.172s2.047-.391 2.828-1.172c1.562-1.562 1.562-4.094 0-5.656l-4.863-4.863c-1.562-1.562-4.094-1.562-5.656 0s-1.562 4.094 0 5.656z"/><path d="m56.074 55.926c1.023 0 2.047-.391 2.828-1.172l4.863-4.863c1.562-1.562 1.562-4.094 0-5.656s-4.094-1.562-5.656 0l-4.863 4.863c-1.562 1.562-1.562 4.094 0 5.656.781.781 1.805 1.172 2.828 1.172z"/><path d="m39.062 72.938c1.023 0 2.047-.391 2.828-1.172l4.863-4.863c1.562-1.562 1.562-4.094 0-5.656s-4.094-1.562-5.656 0l-4.863 4.863c-1.562 1.562-1.562 4.094 0 5.656.782.781 1.805 1.172 2.828 1.172z"/><path d="m234 111.901c-2.264 0-4.099 1.835-4.099 4.099s1.835 4.099 4.099 4.099 4.099-1.835 4.099-4.099-1.835-4.099-4.099-4.099z"/><path d="m66 143.901c-2.264 0-4.099 1.835-4.099 4.099s1.835 4.099 4.099 4.099 4.099-1.835 4.099-4.099-1.835-4.099-4.099-4.099z"/><path d="m254 44c-6.617 0-12 5.383-12 12s5.383 12 12 12 12-5.383 12-12-5.383-12-12-12zm0 16c-2.207 0-4-1.793-4-4s1.793-4 4-4 4 1.793 4 4-1.793 4-4 4z"/><path d="m46 216c-6.617 0-12 5.383-12 12s5.383 12 12 12 12-5.383 12-12-5.383-12-12-12zm0 16c-2.207 0-4-1.793-4-4s1.793-4 4-4 4 1.793 4 4-1.793 4-4 4z"/><path d="m206 64c0-.042-.023-.078-.024-.12.007-.14.013-.274.02-.415.023-.477-.039-.957-.188-1.414l-4.915-15.318c.677-.716 1.107-1.67 1.107-2.733v-12c0-2.211-1.789-4-4-4h-96c-2.211 0-4 1.789-4 4v12c0 .565.122 1.098.333 1.585l-5.286 16.465c-.148.457-.211.938-.188 1.414 5.259 109.2 10.574 172.635 12.008 188.763-1.646.496-2.867 1.964-2.867 3.773v12c0 2.211 1.789 4 4 4h32c2.211 0 4-1.789 4-4v-12c0-2.146-1.696-3.861-3.816-3.963l5.937-111.018 5.309-18.805 5.309 18.805 5.945 111.246c-1.556.548-2.684 1.991-2.684 3.735v12c0 2.211 1.789 4 4 4h32c2.211 0 4-1.789 4-4v-12c0-2.208-1.785-3.993-3.992-3.998 1.461-16.458 6.733-79.571 11.952-187.805.004-.069.04-.127.04-.197zm-14.337 112h-7.663c-1.102 0-2-.898-2-2s.898-2 2-2h7.924c-.088 1.364-.174 2.669-.261 4zm5.048-116.116c-6.361-.503-11.58-5.366-13.138-11.884h9.325zm-90.711-23.884h88v4h-88zm48 12h4v15.004c0 4.296-1.454 8.37-4 11.647zm-50.19 72h12.647c1.102 0 2 .898 2 2s-.898 2-2 2h-12.421c-.076-1.331-.151-2.649-.226-4zm2.151-72h10.466c-1.645 6.882-7.357 12-14.196 12h-.122zm28.039 216h-24v-4h24zm1.094-104h-10.317c-1.281 0-2.32-.898-2.32-2s1.039-2 2.32-2h10.531zm1.207-20.723c-.078.285-.125.578-.145.871l-.42 7.852h-10.959c-5.691 0-10.32 4.484-10.32 10s4.629 10 10.32 10h9.889l-4.495 84h-17.294c-1.043-11.697-4.452-51.941-8.385-120h11.964c5.516 0 10-4.484 10-10s-4.484-10-10-10h-13.089c-.75-13.699-1.513-28.367-2.275-44h1.138c11.235 0 20.566-8.667 22.377-20h21.393v57.506c-.165.284-.329.57-.422.897zm17.587-30.723c.027-.189.112-.357.112-.554v-22.616c7.436-4.981 12-13.322 12-22.38v-15.004h9.393c1.811 11.33 11.138 19.997 22.371 20-1.832 37.584-3.664 69.631-5.329 96h-8.435c-5.516 0-10 4.484-10 10s4.484 10 10 10h7.134c-2.472 36.917-4.411 59.681-5.154 68h-17.295l-5.981-111.852c-.02-.293-.066-.586-.145-.871zm36.112 155.446h-24v-4h24z"/></svg>