<svg id="skinny_x5F_jeans" enable-background="new 0 0 300 300" height="512" viewBox="0 0 300 300" width="512" xmlns="http://www.w3.org/2000/svg"><path d="m246.902 195.244c-1.562-1.562-4.094-1.562-5.656 0s-1.562 4.094 0 5.656l4.863 4.863c.781.781 1.805 1.172 2.828 1.172s2.047-.391 2.828-1.172c1.562-1.562 1.562-4.094 0-5.656z"/><path d="m229.891 178.232c-1.562-1.562-4.094-1.562-5.656 0s-1.562 4.094 0 5.656l4.863 4.863c.781.781 1.805 1.172 2.828 1.172s2.047-.391 2.828-1.172c1.562-1.562 1.562-4.094 0-5.656z"/><path d="m246.109 178.232-4.863 4.863c-1.562 1.562-1.562 4.094 0 5.656.781.781 1.805 1.172 2.828 1.172s2.047-.391 2.828-1.172l4.863-4.863c1.562-1.562 1.562-4.094 0-5.656s-4.093-1.563-5.656 0z"/><path d="m229.098 195.244-4.863 4.863c-1.562 1.562-1.562 4.094 0 5.656.781.781 1.805 1.172 2.828 1.172s2.047-.391 2.828-1.172l4.863-4.863c1.562-1.562 1.562-4.094 0-5.656s-4.094-1.563-5.656 0z"/><path d="m63.766 60.107-4.863-4.863c-1.562-1.562-4.094-1.562-5.656 0s-1.562 4.094 0 5.656l4.863 4.863c.781.781 1.805 1.172 2.828 1.172s2.047-.391 2.828-1.172c1.562-1.562 1.562-4.094 0-5.656z"/><path d="m41.098 48.751c.781.781 1.805 1.172 2.828 1.172s2.047-.391 2.828-1.172c1.562-1.562 1.562-4.094 0-5.656l-4.863-4.863c-1.562-1.562-4.094-1.562-5.656 0s-1.562 4.094 0 5.656z"/><path d="m56.074 49.923c1.023 0 2.047-.391 2.828-1.172l4.863-4.863c1.562-1.562 1.562-4.094 0-5.656s-4.094-1.562-5.656 0l-4.863 4.863c-1.562 1.562-1.562 4.094 0 5.656.781.782 1.805 1.172 2.828 1.172z"/><path d="m39.062 66.935c1.023 0 2.047-.391 2.828-1.172l4.863-4.863c1.562-1.562 1.562-4.094 0-5.656s-4.094-1.562-5.656 0l-4.863 4.863c-1.562 1.562-1.562 4.094 0 5.656.782.781 1.805 1.172 2.828 1.172z"/><path d="m234 105.898c-2.264 0-4.1 1.835-4.1 4.099s1.836 4.099 4.1 4.099 4.1-1.835 4.1-4.099-1.836-4.099-4.1-4.099z"/><path d="m66 137.898c-2.264 0-4.1 1.835-4.1 4.099s1.836 4.099 4.1 4.099 4.1-1.835 4.1-4.099-1.836-4.099-4.1-4.099z"/><path d="m254 37.998c-6.617 0-12 5.383-12 12s5.383 12 12 12 12-5.383 12-12-5.383-12-12-12zm0 16c-2.207 0-4-1.793-4-4s1.793-4 4-4 4 1.793 4 4-1.793 4-4 4z"/><path d="m46 209.998c-6.617 0-12 5.383-12 12s5.383 12 12 12 12-5.383 12-12-5.383-12-12-12zm0 16c-2.207 0-4-1.793-4-4s1.793-4 4-4 4 1.793 4 4-1.793 4-4 4z"/><path d="m190.816 30.052-5.441.906c-18.234 3.039-36.727 3.039-54.961 0l-5.441-.906c-1.461-.23-2.961.348-3.855 1.547-.793 1.055-19.277 26.539-6.867 82.332.031.195 2.863 19.926 6.555 36.328 2.93 13.016 4.316 26.312 4.113 39.512-.203 13.23.914 24.797 3.32 34.383 2.844 11.355 4.289 22.586 4.289 33.383v8.461c0 2.211 1.789 4 4 4h13.477c1.242 0 2.414-.578 3.172-1.562.754-.984 1.012-2.262.695-3.465-4.66-17.562-.277-89.418 3.246-147.156.207-3.402.41-6.77.613-10.094.582 12.992 1.258 26.57 1.918 39.828 2.539 51 5.16 103.734 2.223 117.621-.25 1.18.047 2.41.809 3.348.758.938 1.898 1.48 3.105 1.48h13.477c2.211 0 4-1.789 4-4v-8.512c0-10.762 1.445-21.977 4.289-33.328 2.41-9.613 3.527-21.203 3.32-34.445-.203-13.141 1.184-26.426 4.121-39.488 3.68-16.355 6.504-35.992 6.492-35.992 12.465-56.094-6.02-81.578-6.812-82.633-.896-1.2-2.388-1.774-3.857-1.548zm-64.504 8.332 2.789.465c19.109 3.188 38.484 3.188 57.586 0l2.785-.465c.562 1.025 1.282 2.497 2.054 4.327-22.59 2.658-45.182 2.675-67.292.052.782-1.856 1.512-3.346 2.078-4.379zm70.843 27.96c-5.921-2.88-9.996-8.477-10.927-15 2.66-.257 5.321-.568 7.982-.896 1.213 4.285 2.312 9.552 2.945 15.896zm-75.602-15.841c2.732.341 5.469.655 8.214.917-.964 6.578-5.14 12.189-11.165 15.023.629-6.363 1.733-11.641 2.951-15.94zm29.123 41.194c-.48 8.18-1.008 16.793-1.547 25.633-3.461 56.773-7.355 120.563-3.957 144.668h-4.645v-4.461c0-11.453-1.523-23.336-4.531-35.328-2.234-8.91-3.273-19.781-3.078-32.312.211-13.836-1.238-27.762-4.309-41.395-3.621-16.086-6.41-35.508-6.492-36.004-3.257-14.654-4.24-27.013-4.008-37.29l.407-.128c10.494-3.313 17.829-12.314 19.198-22.993 5.408.366 10.841.547 16.286.611v33.374c-1.89 1.199-3.187 3.251-3.324 5.625zm42.941 21.101c-.027.195-2.812 19.578-6.43 35.668-3.078 13.68-4.531 27.598-4.316 41.371.199 12.547-.836 23.438-3.078 32.375-3.008 11.988-4.531 23.855-4.531 35.273v4.512h-4.852c1.988-19.184-.332-65.777-2.773-114.844-.926-18.66-1.887-37.949-2.574-55.324-.094-2.324-1.289-4.33-3.062-5.57v-33.58c5.418-.083 10.845-.286 16.28-.666 1.345 10.711 8.686 19.747 19.204 23.067l.171.054c.24 10.356-.746 22.836-4.039 37.664z"/></svg>