<svg id="kaki" enable-background="new 0 0 300 300" height="512" viewBox="0 0 300 300" width="512" xmlns="http://www.w3.org/2000/svg"><path d="m246.902 205.246c-1.562-1.562-4.094-1.562-5.656 0s-1.562 4.094 0 5.656l4.863 4.863c.781.781 1.805 1.172 2.828 1.172s2.047-.391 2.828-1.172c1.562-1.562 1.562-4.094 0-5.656z"/><path d="m229.891 188.234c-1.562-1.562-4.094-1.562-5.656 0s-1.562 4.094 0 5.656l4.863 4.863c.781.781 1.805 1.172 2.828 1.172s2.047-.391 2.828-1.172c1.562-1.562 1.562-4.094 0-5.656z"/><path d="m246.109 188.234-4.863 4.863c-1.562 1.562-1.562 4.094 0 5.656.781.781 1.805 1.172 2.828 1.172s2.047-.391 2.828-1.172l4.863-4.863c1.562-1.562 1.562-4.094 0-5.656s-4.093-1.562-5.656 0z"/><path d="m229.098 205.246-4.863 4.863c-1.562 1.562-1.562 4.094 0 5.656.781.781 1.805 1.172 2.828 1.172s2.047-.391 2.828-1.172l4.863-4.863c1.562-1.562 1.562-4.094 0-5.656s-4.094-1.562-5.656 0z"/><path d="m63.766 70.109-4.863-4.863c-1.562-1.562-4.094-1.562-5.656 0s-1.562 4.094 0 5.656l4.863 4.863c.781.781 1.805 1.172 2.828 1.172s2.047-.391 2.828-1.172c1.562-1.562 1.562-4.093 0-5.656z"/><path d="m41.098 58.754c.781.781 1.805 1.172 2.828 1.172s2.047-.391 2.828-1.172c1.562-1.562 1.562-4.094 0-5.656l-4.863-4.863c-1.562-1.562-4.094-1.562-5.656 0s-1.562 4.094 0 5.656z"/><path d="m56.074 59.926c1.023 0 2.047-.391 2.828-1.172l4.863-4.863c1.562-1.562 1.562-4.094 0-5.656s-4.094-1.562-5.656 0l-4.863 4.863c-1.562 1.562-1.562 4.094 0 5.656.781.781 1.805 1.172 2.828 1.172z"/><path d="m39.062 76.938c1.023 0 2.047-.391 2.828-1.172l4.863-4.863c1.562-1.562 1.562-4.094 0-5.656s-4.094-1.562-5.656 0l-4.863 4.863c-1.562 1.562-1.562 4.094 0 5.656.782.781 1.805 1.172 2.828 1.172z"/><path d="m234 115.901c-2.264 0-4.1 1.835-4.1 4.099s1.836 4.099 4.1 4.099 4.1-1.835 4.1-4.099-1.836-4.099-4.1-4.099z"/><path d="m66 147.901c-2.264 0-4.1 1.835-4.1 4.099s1.836 4.099 4.1 4.099 4.1-1.835 4.1-4.099-1.836-4.099-4.1-4.099z"/><path d="m254 48c-6.617 0-12 5.383-12 12s5.383 12 12 12 12-5.383 12-12-5.383-12-12-12zm0 16c-2.207 0-4-1.793-4-4s1.793-4 4-4 4 1.793 4 4-1.793 4-4 4z"/><path d="m46 220c-6.617 0-12 5.383-12 12s5.383 12 12 12 12-5.383 12-12-5.383-12-12-12zm0 16c-2.207 0-4-1.793-4-4s1.793-4 4-4 4 1.793 4 4-1.793 4-4 4z"/><path d="m203.113 46.734-4-12c-.543-1.632-2.07-2.734-3.793-2.734h-88.656c-1.723 0-3.25 1.102-3.793 2.734l-4 12-2.332 6.996c-.152.445-.219.918-.207 1.387l6.332 208.977c.066 2.16 1.84 3.879 4 3.879h23.2c.048.002.088.027.136.027s.088-.026.136-.027h11.864c2.211 0 4-1.789 4-4v-150.325l4-3.996 4 3.996v150.324c0 2.211 1.789 4 4 4h15.864c.048.002.088.027.136.027s.088-.026.136-.027h21.185c2.16 0 3.934-1.719 4-3.879l6.332-208.977c.012-.469-.055-.941-.207-1.387zm-6.675 5.266 1.195 3.586-.388 12.805-.866-1.161c-3.312-4.444-5.354-9.744-6.053-15.23zm-4-12 1.334 4h-31.729-.043-53.787l1.334-4zm-38.438 12h3.958l-.18 17.188c-.038 3.608-1.437 7.03-3.777 9.67v-26.858zm-49.648 3.586 1.195-3.586h8.127c-.698 5.486-2.741 10.786-6.053 15.23l-2.803 3.758zm.816 26.939c.772-.244 1.499-.634 2.02-1.334l6.848-9.18c4.337-5.818 7.004-12.806 7.737-20.012h4.227v207.973h-15.457zm34.004 26.639c-.75.75-1.172 1.766-1.172 2.828v147.98h-4v-207.972h12v50.343zm21.656 0-6.828-6.821v-13.343l.445-.258c6.906-4.016 11.246-11.477 11.332-19.469l.181-17.273h4.042v207.973h-8v-147.98c0-1.063-.422-2.079-1.172-2.829zm30.613 150.809h-13.441v-207.973h4.228c.733 7.206 3.4 14.194 7.737 20.012l6.848 9.18c.012.016.031.021.043.036z"/></svg>