<svg id="loafers" enable-background="new 0 0 300 300" height="512" viewBox="0 0 300 300" width="512" xmlns="http://www.w3.org/2000/svg"><path d="m207.619 81.065c.781.781 1.805 1.172 2.828 1.172s2.047-.391 2.828-1.172c1.562-1.561 1.562-4.094 0-5.656l-5.656-5.658c-1.562-1.562-4.094-1.562-5.656 0-1.562 1.561-1.562 4.094 0 5.656z"/><path d="m187.822 61.266c.781.781 1.805 1.172 2.828 1.172s2.047-.391 2.828-1.172c1.562-1.561 1.562-4.094 0-5.656l-5.656-5.658c-1.562-1.562-4.094-1.562-5.656 0-1.562 1.561-1.562 4.094 0 5.656z"/><path d="m204.791 62.438c1.023 0 2.047-.391 2.828-1.172l5.656-5.658c1.562-1.562 1.562-4.096 0-5.656-1.562-1.562-4.094-1.562-5.656 0l-5.656 5.658c-1.562 1.562-1.562 4.096 0 5.656.781.782 1.804 1.172 2.828 1.172z"/><path d="m184.994 82.237c1.023 0 2.047-.391 2.828-1.172l5.656-5.658c1.562-1.562 1.562-4.096 0-5.656-1.562-1.562-4.094-1.562-5.656 0l-5.656 5.658c-1.562 1.562-1.562 4.096 0 5.656.781.782 1.804 1.172 2.828 1.172z"/><path d="m73.72 55.608c2.264 0 4.099-1.835 4.099-4.099s-1.835-4.099-4.099-4.099-4.099 1.835-4.099 4.099 1.835 4.099 4.099 4.099z"/><path d="m265.72 55.608c2.264 0 4.099-1.835 4.099-4.099s-1.835-4.099-4.099-4.099-4.099 1.835-4.099 4.099 1.835 4.099 4.099 4.099z"/><path d="m145.72 139.608c2.264 0 4.099-1.835 4.099-4.099s-1.835-4.099-4.099-4.099-4.099 1.835-4.099 4.099 1.835 4.099 4.099 4.099z"/><path d="m245.72 163.509c6.617 0 12-5.383 12-12s-5.383-12-12-12-12 5.383-12 12 5.383 12 12 12zm0-16c2.207 0 4 1.795 4 4s-1.793 4-4 4-4-1.795-4-4 1.793-4 4-4z"/><path d="m73.72 95.509c0 6.617 5.383 12 12 12s12-5.383 12-12-5.383-12-12-12-12 5.382-12 12zm12-4c2.207 0 4 1.795 4 4s-1.793 4-4 4-4-1.795-4-4 1.793-4 4-4z"/><path d="m270.08 208.479c-.789-3.795-3.402-6.859-6.984-8.199-6.316-2.361-12.91-3.982-19.605-4.82l-22.223-2.777c-8.684-1.086-17.058-3.595-24.939-7.381 1.442-1.682 2.295-3.766 2.361-6.039.082-2.74-.984-5.424-2.918-7.359-3.477-3.482-9.113-3.861-13.098-.871-1.912 1.429-3.642 3.103-5.227 4.887l-19.977-9.988c-1.086-.543-2.359-.564-3.461-.057s-1.914 1.488-2.207 2.664l-5.488 21.941c-54.676-6.35-103.211-18.393-103.707-18.516-1.797-.445-3.707.418-4.547 2.092-13.176 26.363-6.91 52.35-6.637 53.441.087.351.296.64.469.948.032.263.01.525.097.786l3.172 9.514c2.156 6.471 7.938 10.953 14.727 11.418 14.527.994 40.609 2.428 69.965 2.428 56.363 0 124.777-5.287 146.531-29.119 2.093-2.29 3.076-5.236 2.925-8.238.919-2.088 1.259-4.416.771-6.755zm-82.614-31.043c.391-.293.844-.438 1.285-.438.5 0 .988.188 1.359.559.531.529.594 1.148.582 1.469-.008.355-.117.867-.586 1.281-3.703 3.295-8.5 8.627-10.316 15.322-.246.902-1.172 1.557-2.199 1.557-1.117 0-1.715-.674-1.973-1.076-.211-.33-.648-1.215-.148-2.293 0-.002 0-.002.004-.004 2.383-5.162 6.403-12.195 11.992-16.377zm-143.597 3.061c12.062 2.857 56.516 12.938 105.035 18.328 1.953.225 3.832-1.061 4.32-3.004l5.129-20.504 14.225 7.113c-1.783 2.809-3.247 5.601-4.37 8.028-1.496 3.238-1.246 6.961.668 9.959 1.91 2.986 5.168 4.77 8.715 4.77 4.648 0 8.73-3.07 9.918-7.463.62-2.278 1.803-4.375 3.166-6.244l.912.457c9.027 4.512 18.68 7.434 28.688 8.684l22.223 2.777c6.074.762 12.062 2.232 17.793 4.375 1.441.539 1.848 1.814 1.957 2.34.109.516.242 1.828-.84 2.875-7.977 7.711-30.648 20.037-93.055 15.877h-106.211c-8.008 0-16.027-1.754-23.316-5.084-1.016-5.72-3.332-24.323 5.043-43.284zm6.566 61.685c-3.539-.242-6.559-2.586-7.688-5.969l-.913-2.738c6.541 2.185 13.417 3.388 20.307 3.388l105.945-.01c8.746.584 16.777.852 24.148.852 10.856 0 20.259-.59 28.45-1.599-43.173 9.789-110.268 10.177-170.249 6.076z"/><path d="m131.392 210.606c5.293.463 10.074.754 14.215.863.035.002.07.002.109.002 2.156 0 3.938-1.723 3.996-3.895.059-2.207-1.688-4.045-3.895-4.104-3.977-.105-8.598-.387-13.73-.836-2.16-.193-4.137 1.434-4.332 3.635-.191 2.203 1.434 4.144 3.637 4.335z"/><path d="m102.564 207.155c4.547.656 9.16 1.279 13.719 1.84.168.02.332.029.492.029 1.992 0 3.719-1.484 3.965-3.512.27-2.193-1.289-4.189-3.48-4.459-4.504-.553-9.062-1.168-13.555-1.816-2.176-.311-4.215 1.205-4.527 3.387-.317 2.187 1.199 4.215 3.386 4.531z"/><path d="m75.302 202.794c4.227.734 8.879 1.52 13.773 2.303.215.035.426.051.637.051 1.93 0 3.629-1.4 3.945-3.367.352-2.182-1.137-4.232-3.316-4.582-4.855-.779-9.477-1.557-13.672-2.287-2.164-.357-4.242 1.08-4.625 3.256-.378 2.175 1.079 4.247 3.258 4.626z"/><path d="m53.525 198.772s3.43.686 9.094 1.738c.246.047.492.068.734.068 1.891 0 3.57-1.344 3.93-3.27.402-2.172-1.031-4.26-3.203-4.662-5.582-1.039-8.973-1.717-8.984-1.719-2.191-.439-4.277.975-4.707 3.139-.434 2.167.972 4.275 3.136 4.706z"/></svg>