<svg id="overalls" enable-background="new 0 0 300 300" height="512" viewBox="0 0 300 300" width="512" xmlns="http://www.w3.org/2000/svg"><path d="m56.371 58.08c-1.562-1.562-4.094-1.562-5.656 0s-1.562 4.094 0 5.656l4.863 4.863c.781.781 1.805 1.172 2.828 1.172s2.047-.391 2.828-1.172c1.562-1.562 1.562-4.094 0-5.656z"/><path d="m38.566 51.588c.781.781 1.805 1.172 2.828 1.172s2.047-.391 2.828-1.172c1.562-1.562 1.562-4.094 0-5.656l-4.863-4.863c-1.562-1.562-4.094-1.562-5.656 0s-1.562 4.094 0 5.656z"/><path d="m55.578 41.068-4.863 4.863c-1.562 1.562-1.562 4.094 0 5.656.781.781 1.805 1.172 2.828 1.172s2.047-.391 2.828-1.172l4.863-4.863c1.562-1.562 1.562-4.094 0-5.656s-4.093-1.562-5.656 0z"/><path d="m44.223 58.08c-1.562-1.562-4.094-1.562-5.656 0l-4.863 4.863c-1.562 1.562-1.562 4.094 0 5.656.781.781 1.805 1.172 2.828 1.172s2.047-.391 2.828-1.172l4.863-4.863c1.562-1.562 1.562-4.093 0-5.656z"/><path d="m252.371 198.08c-1.562-1.562-4.094-1.562-5.656 0s-1.562 4.094 0 5.656l4.863 4.863c.781.781 1.805 1.172 2.828 1.172s2.047-.391 2.828-1.172c1.562-1.562 1.562-4.094 0-5.656z"/><path d="m235.359 181.068c-1.562-1.562-4.094-1.562-5.656 0s-1.562 4.094 0 5.656l4.863 4.863c.781.781 1.805 1.172 2.828 1.172s2.047-.391 2.828-1.172c1.562-1.562 1.562-4.094 0-5.656z"/><path d="m251.578 181.068-4.863 4.863c-1.562 1.562-1.562 4.094 0 5.656.781.781 1.805 1.172 2.828 1.172s2.047-.391 2.828-1.172l4.863-4.863c1.562-1.562 1.562-4.094 0-5.656s-4.093-1.562-5.656 0z"/><path d="m234.566 198.08-4.863 4.863c-1.562 1.562-1.562 4.094 0 5.656.781.781 1.805 1.172 2.828 1.172s2.047-.391 2.828-1.172l4.863-4.863c1.562-1.562 1.562-4.094 0-5.656s-4.093-1.562-5.656 0z"/><path d="m75.568 120.834c0-2.264-1.835-4.099-4.099-4.099s-4.099 1.835-4.099 4.099 1.835 4.099 4.099 4.099 4.099-1.835 4.099-4.099z"/><path d="m219.469 108.735c-2.264 0-4.099 1.835-4.099 4.099s1.835 4.099 4.099 4.099 4.099-1.835 4.099-4.099-1.835-4.099-4.099-4.099z"/><path d="m43.469 228.735c-2.264 0-4.099 1.835-4.099 4.099s1.835 4.099 4.099 4.099 4.099-1.835 4.099-4.099-1.835-4.099-4.099-4.099z"/><path d="m255.469 40.834c-6.617 0-12 5.383-12 12s5.383 12 12 12 12-5.383 12-12-5.383-12-12-12zm0 16c-2.207 0-4-1.793-4-4s1.793-4 4-4 4 1.793 4 4-1.793 4-4 4z"/><path d="m83.469 164.834c-6.617 0-12 5.383-12 12s5.383 12 12 12 12-5.383 12-12-5.383-12-12-12zm0 16c-2.207 0-4-1.793-4-4s1.793-4 4-4 4 1.793 4 4-1.793 4-4 4z"/><path d="m178.156 104.83c-.065-.217-.209-.379-.306-.576 1.015-1.564 1.618-3.42 1.618-5.42 0-4.171-2.569-7.744-6.205-9.242l9.337-24.5c.777-2.039-.227-4.328-2.25-5.141-.122-.048-5.202-2.123-11.91-5.714l7.969-19.919c.492-1.23.34-2.629-.402-3.727-.746-1.098-1.984-1.758-3.312-1.758h-12.332c-1.336 0-2.586.668-3.328 1.781-2.186 3.275-5.242 6.602-9.014 9.902-3.483-3.045-6.632-6.354-8.997-9.902-.742-1.113-1.992-1.781-3.328-1.781h-12.332c-1.328 0-2.566.66-3.312 1.758-.742 1.098-.895 2.496-.402 3.727l7.972 19.932c-6.736 3.607-11.856 5.679-11.909 5.701-2.027.812-3.031 3.098-2.254 5.141l9.219 24.188c-4.15 1.217-7.207 5.014-7.207 9.554 0 2.439.911 4.647 2.367 6.384-3.667 12.475-5.766 25.32-6.156 38.214-1.715 57.441 7.629 123.637 7.723 124.301.281 1.969 1.969 3.434 3.961 3.434h18.5c2.121 0 3.875-1.656 3.992-3.773l1.974-34.773 2.374 34.82c.145 2.098 1.887 3.727 3.992 3.727h18.5c1.992 0 3.68-1.465 3.961-3.434.094-.664 9.434-66.859 7.723-124.301-.398-13.025-2.491-26.013-6.226-38.603zm-52.687-3.996c-1.102 0-2-.898-2-2s.898-2 2-2h44c1.102 0 2 .898 2 2s-.898 2-2 2zm36.969-64h4.348l-5.355 13.389c-2.324-1.422-4.691-2.976-7.029-4.655 3.166-2.877 5.869-5.8 8.036-8.734zm-28.821 0c10.863 14.707 31.723 25.184 40.145 28.988l-8.772 23.012h-14.92l-20.8-52zm-3.008 24.889 10.843 27.111h-10.383l-8.772-23.02c2.097-.95 4.994-2.336 8.312-4.091zm7.477 201.443h-11.227c-1.867-14.246-8.656-70.188-7.18-119.492.35-11.759 2.236-23.468 5.469-34.872.109.003.211.032.321.032h6.062l.164 10.395c.035 2.188 1.82 3.938 4 3.938h.062c2.211-.035 3.973-1.855 3.938-4.062l-.162-10.27h3.936l.008 59.443zm31.113 0h-11.27l-6.461-94.664v-59.668h4v12c0 2.211 1.789 4 4 4s4-1.789 4-4v-12h6c.49 0 .96-.076 1.432-.145 3.256 11.436 5.127 23.191 5.479 34.984 1.473 49.302-5.317 105.247-7.18 119.493z"/></svg>