<svg id="summer_x5F_hat" enable-background="new 0 0 300 300" height="512" viewBox="0 0 300 300" width="512" xmlns="http://www.w3.org/2000/svg"><path d="m259.528 83.112c.781.781 1.805 1.172 2.828 1.172s2.047-.391 2.828-1.172c1.562-1.562 1.562-4.094 0-5.656l-4.863-4.863c-1.562-1.562-4.094-1.562-5.656 0s-1.562 4.094 0 5.656z"/><path d="m242.517 66.101c.781.781 1.805 1.172 2.828 1.172s2.047-.391 2.828-1.172c1.562-1.562 1.562-4.094 0-5.656l-4.863-4.863c-1.562-1.562-4.094-1.562-5.656 0s-1.562 4.094 0 5.656z"/><path d="m257.493 67.272c1.023 0 2.047-.391 2.828-1.172l4.863-4.863c1.562-1.562 1.562-4.094 0-5.656s-4.094-1.562-5.656 0l-4.863 4.863c-1.562 1.562-1.562 4.094 0 5.656.781.782 1.805 1.172 2.828 1.172z"/><path d="m240.481 84.284c1.023 0 2.047-.391 2.828-1.172l4.863-4.863c1.562-1.562 1.562-4.094 0-5.656s-4.094-1.562-5.656 0l-4.863 4.863c-1.562 1.562-1.562 4.094 0 5.656.782.782 1.805 1.172 2.828 1.172z"/><path d="m51.528 179.112c.781.781 1.805 1.172 2.828 1.172s2.047-.391 2.828-1.172c1.562-1.562 1.562-4.094 0-5.656l-4.863-4.863c-1.562-1.562-4.094-1.562-5.656 0s-1.562 4.094 0 5.656z"/><path d="m34.517 162.101c.781.781 1.805 1.172 2.828 1.172s2.047-.391 2.828-1.172c1.562-1.562 1.562-4.094 0-5.656l-4.863-4.863c-1.562-1.562-4.094-1.562-5.656 0s-1.562 4.094 0 5.656z"/><path d="m49.493 163.272c1.023 0 2.047-.391 2.828-1.172l4.863-4.863c1.562-1.562 1.562-4.094 0-5.656s-4.094-1.562-5.656 0l-4.863 4.863c-1.562 1.562-1.562 4.094 0 5.656.781.782 1.805 1.172 2.828 1.172z"/><path d="m35.31 179.112 4.863-4.863c1.562-1.562 1.562-4.094 0-5.656s-4.094-1.562-5.656 0l-4.863 4.863c-1.562 1.562-1.562 4.094 0 5.656.781.781 1.805 1.172 2.828 1.172s2.046-.39 2.828-1.172z"/><path d="m83.419 59.446c2.264 0 4.1-1.835 4.1-4.099s-1.836-4.1-4.1-4.1-4.1 1.836-4.1 4.1 1.836 4.099 4.1 4.099z"/><path d="m167.419 67.446c2.264 0 4.1-1.835 4.1-4.099s-1.836-4.1-4.1-4.1-4.1 1.836-4.1 4.1 1.836 4.099 4.1 4.099z"/><path d="m91.419 131.446c2.264 0 4.1-1.835 4.1-4.099s-1.836-4.1-4.1-4.1-4.1 1.836-4.1 4.1 1.836 4.099 4.1 4.099z"/><path d="m267.419 159.247c-2.264 0-4.1 1.836-4.1 4.1s1.836 4.099 4.1 4.099 4.1-1.835 4.1-4.099-1.836-4.1-4.1-4.1z"/><path d="m59.419 103.347c6.617 0 12-5.383 12-12s-5.383-12-12-12-12 5.383-12 12 5.383 12 12 12zm0-16c2.207 0 4 1.793 4 4s-1.793 4-4 4-4-1.793-4-4 1.793-4 4-4z"/><path d="m266.501 224.358-47.931-28.76-10.933-8.875c.936-4.095 4.633-17.493 14.951-29.233 2.029 1.147 4.339 1.856 6.831 1.856 7.719 0 14-6.281 14-14s-6.281-14-14-14-14 6.281-14 14c0 2.309.615 4.456 1.609 6.377-6.595 7.348-10.828 15.223-13.472 21.649l-4.587-16.819c-5.59-20.484-24.32-34.789-45.551-34.789-21.234 0-39.965 14.305-45.555 34.793l-7.996 29.318-11.062 8.766-54.333 29.635c-1.941 1.059-2.656 3.488-1.598 5.426.403.738 1.778 1.704 1.824 1.73 2.031 1.16 14.68 7.969 31.77 7.969 8.828 0 18.843-1.856 29.188-7.204 5.313 1.432 10.49 3.372 15.261 6.036 11.023 6.156 22.363 9.637 33.699 10.34 1.938.117 3.879.18 5.824.18 3.785 0 7.578-.227 11.332-.672 8.84-1.059 18.113-4.113 28.348-9.336 4.781-2.441 9.711-4.312 14.647-5.748 9.869 4.78 19.347 6.471 27.728 6.471 15.959 0 27.958-5.985 31.201-7.783 1.863.346 3.715-.608 4.439-2.369.761-1.829.065-3.938-1.634-4.958zm-37.082-85.011c3.309 0 6 2.691 6 6s-2.691 6-6 6-6-2.691-6-6 2.691-6 6-6zm-76-9.582c17.633 0 33.191 11.883 37.832 28.895l7.214 26.448c-32.6 3.851-62.832 3.772-90.033-.228l7.151-26.216c4.641-17.017 20.199-28.899 37.836-28.899zm-48.938 62.664c29.438 4.645 62.344 4.75 97.875.312l6.312 5.121c-34.238 13.871-76.902 13.57-110.074-.77zm-52.65 37.122c7.941-.785 18.216-1.199 28.858-.08-11.177 3.011-21.307 2.003-28.858.08zm134.654 2.069c-9.379 4.785-17.773 7.57-25.66 8.516-5.207.621-10.48.777-15.715.453-10.129-.629-20.32-3.77-30.293-9.34-18.226-10.175-41.252-11.167-57.877-10.115l34.248-18.68c18.842 9.005 40.921 13.561 63.141 13.561 21.401 0 42.886-4.231 61.667-12.631l29.465 17.682c-11.354-.768-26.322-.363-41.539 3.868-.006.001-.011.002-.017.004-5.833 1.623-11.699 3.76-17.42 6.682zm33.199-1.735c10.629-1.419 20.567-1.201 28.287-.525-7.283 1.993-17.209 3.194-28.287.525z"/></svg>