<svg id="dress_x5F_pants" enable-background="new 0 0 300 300" height="512" viewBox="0 0 300 300" width="512" xmlns="http://www.w3.org/2000/svg"><path d="m246.906 203.246c-1.562-1.562-4.096-1.562-5.658 0-1.562 1.559-1.562 4.094-.002 5.656l4.859 4.863c.781.781 1.807 1.172 2.83 1.172s2.047-.391 2.828-1.172c1.562-1.559 1.562-4.094.002-5.656z"/><path d="m229.895 186.234c-1.562-1.562-4.096-1.562-5.658 0-1.562 1.559-1.562 4.094-.002 5.656l4.859 4.863c.781.781 1.807 1.172 2.83 1.172s2.047-.391 2.828-1.172c1.562-1.559 1.562-4.094.002-5.656z"/><path d="m246.105 186.234-4.859 4.863c-1.561 1.562-1.561 4.098.002 5.656.781.781 1.805 1.172 2.828 1.172s2.049-.391 2.83-1.172l4.859-4.863c1.561-1.562 1.561-4.098-.002-5.656-1.562-1.562-4.095-1.562-5.658 0z"/><path d="m229.094 203.246-4.859 4.863c-1.561 1.562-1.561 4.098.002 5.656.781.781 1.805 1.172 2.828 1.172s2.049-.391 2.83-1.172l4.859-4.863c1.561-1.562 1.561-4.098-.002-5.656-1.563-1.562-4.096-1.562-5.658 0z"/><path d="m63.766 68.109-4.859-4.863c-1.562-1.562-4.096-1.562-5.658 0-1.562 1.559-1.562 4.094-.002 5.656l4.859 4.863c.781.781 1.807 1.172 2.83 1.172s2.047-.391 2.828-1.172c1.562-1.558 1.562-4.093.002-5.656z"/><path d="m41.094 56.754c.781.781 1.807 1.172 2.83 1.172s2.047-.391 2.828-1.172c1.562-1.559 1.562-4.094.002-5.656l-4.859-4.863c-1.562-1.562-4.096-1.562-5.658 0-1.562 1.559-1.562 4.094-.002 5.656z"/><path d="m56.076 57.926c1.023 0 2.049-.391 2.83-1.172l4.859-4.863c1.561-1.562 1.561-4.098-.002-5.656-1.562-1.562-4.096-1.562-5.658 0l-4.859 4.863c-1.561 1.562-1.561 4.098.002 5.656.781.781 1.805 1.172 2.828 1.172z"/><path d="m39.064 74.938c1.023 0 2.049-.391 2.83-1.172l4.859-4.863c1.561-1.562 1.561-4.098-.002-5.656-1.562-1.562-4.096-1.562-5.658 0l-4.859 4.863c-1.561 1.562-1.561 4.098.002 5.656.782.781 1.805 1.172 2.828 1.172z"/><path d="m234 113.9c-2.264 0-4.099 1.836-4.099 4.1s1.835 4.099 4.099 4.099 4.099-1.835 4.099-4.099-1.835-4.1-4.099-4.1z"/><path d="m66 145.9c-2.264 0-4.099 1.836-4.099 4.1s1.835 4.099 4.099 4.099 4.099-1.835 4.099-4.099-1.835-4.1-4.099-4.1z"/><path d="m254 46c-6.617 0-12 5.383-12 12s5.383 12 12 12 12-5.383 12-12-5.383-12-12-12zm0 16c-2.205 0-4-1.793-4-4s1.795-4 4-4 4 1.793 4 4-1.795 4-4 4z"/><path d="m46 218c-6.617 0-12 5.383-12 12s5.383 12 12 12 12-5.383 12-12-5.383-12-12-12zm0 16c-2.205 0-4-1.793-4-4s1.795-4 4-4 4 1.793 4 4-1.795 4-4 4z"/><path d="m174.059 44.172c-.272-.528-.674-.951-1.127-1.303v-8.869c0-2.211-1.791-4-4-4h-62.199c-2.209 0-4 1.789-4 4v9.143c-.31.3-.588.634-.791 1.029l-19.5 37.98c-.803 1.562-.49 3.469.768 4.695l7.096 6.911c-.035.139-.121.253-.141.397-4.477 31.742-8.396 87.375-1.652 172.16.165 2.083 1.901 3.685 3.987 3.685h32.5c2.041 0 3.756-1.539 3.977-3.566l9.023-82.899 9.023 82.898c.221 2.027 1.936 3.566 3.977 3.566h32.5c2.086 0 3.822-1.602 3.988-3.684 5.285-66.441 4.775-125.523-1.471-170.863-.075-.546-.259-1.052-.524-1.499l7.297-7.107c1.258-1.227 1.57-3.133.768-4.695zm-63.327-6.172h54.199v4h-16.215-29.545-8.439zm10.68 224h-25.213c-5.937-77.455-2.859-129.77 1.171-161.359l5.339 5.199c.777.754 1.785 1.133 2.791 1.133 1.041 0 2.082-.402 2.865-1.211 1.541-1.582 1.508-4.113-.074-5.656l-17.383-16.93 17.035-33.176h11.229 14.828v96c0 .046.024.083.026.128 0 .003-.002.005-.002.008zm58.389 0h-25.213l-12.611-115.863c0-.003-.002-.005-.002-.008.001-.045.026-.083.026-.128v-96.001h6.717 19.34l17.035 33.176-17.383 16.93c-1.582 1.543-1.615 4.074-.074 5.656.783.809 1.824 1.211 2.865 1.211 1.006 0 2.014-.379 2.791-1.133l5.334-5.195c3.997 31.312 7.132 83.643 1.175 161.355z"/></svg>