<svg id="pencil_x5F_skirt" enable-background="new 0 0 300 300" height="512" viewBox="0 0 300 300" width="512" xmlns="http://www.w3.org/2000/svg"><path d="m62.06 65.766c.781.781 1.805 1.172 2.828 1.172s2.047-.391 2.828-1.172c1.562-1.562 1.562-4.094 0-5.656l-4.863-4.863c-1.562-1.562-4.094-1.562-5.656 0s-1.562 4.094 0 5.656z"/><path d="m45.048 48.754c.781.781 1.805 1.172 2.828 1.172s2.047-.391 2.828-1.172c1.562-1.562 1.562-4.094 0-5.656l-4.863-4.863c-1.562-1.562-4.094-1.562-5.656 0s-1.562 4.094 0 5.656z"/><path d="m60.025 49.926c1.023 0 2.047-.391 2.828-1.172l4.863-4.863c1.562-1.562 1.562-4.094 0-5.656s-4.094-1.562-5.656 0l-4.863 4.863c-1.562 1.562-1.562 4.094 0 5.656.781.781 1.804 1.172 2.828 1.172z"/><path d="m43.013 66.938c1.023 0 2.047-.391 2.828-1.172l4.863-4.863c1.562-1.562 1.562-4.094 0-5.656s-4.094-1.562-5.656 0l-4.863 4.863c-1.562 1.562-1.562 4.094 0 5.656.781.781 1.804 1.172 2.828 1.172z"/><path d="m254.853 227.246c-1.562-1.562-4.094-1.562-5.656 0s-1.562 4.094 0 5.656l4.863 4.863c.781.781 1.805 1.172 2.828 1.172s2.047-.391 2.828-1.172c1.562-1.562 1.562-4.094 0-5.656z"/><path d="m237.841 210.234c-1.562-1.562-4.094-1.562-5.656 0s-1.562 4.094 0 5.656l4.863 4.863c.781.781 1.805 1.172 2.828 1.172s2.047-.391 2.828-1.172c1.562-1.562 1.562-4.094 0-5.656z"/><path d="m254.06 210.234-4.863 4.863c-1.562 1.562-1.562 4.094 0 5.656.781.781 1.805 1.172 2.828 1.172s2.047-.391 2.828-1.172l4.863-4.863c1.562-1.562 1.562-4.094 0-5.656s-4.094-1.562-5.656 0z"/><path d="m237.048 227.246-4.863 4.863c-1.562 1.562-1.562 4.094 0 5.656.781.781 1.805 1.172 2.828 1.172s2.047-.391 2.828-1.172l4.863-4.863c1.562-1.562 1.562-4.094 0-5.656s-4.094-1.562-5.656 0z"/><path d="m65.95 109.9c-2.264 0-4.099 1.836-4.099 4.1s1.835 4.099 4.099 4.099 4.099-1.835 4.099-4.099-1.835-4.1-4.099-4.1z"/><path d="m257.95 142.099c2.264 0 4.099-1.835 4.099-4.099s-1.835-4.1-4.099-4.1-4.099 1.836-4.099 4.1 1.835 4.099 4.099 4.099z"/><path d="m49.95 174c-6.617 0-12 5.383-12 12s5.383 12 12 12 12-5.383 12-12-5.382-12-12-12zm0 16c-2.207 0-4-1.793-4-4s1.793-4 4-4 4 1.793 4 4-1.793 4-4 4z"/><path d="m241.95 54c0-6.617-5.383-12-12-12s-12 5.383-12 12 5.383 12 12 12 12-5.383 12-12zm-12 4c-2.207 0-4-1.793-4-4s1.793-4 4-4 4 1.793 4 4-1.793 4-4 4z"/><path d="m203.857 51.385 2.042-12.752c.188-1.156-.145-2.336-.906-3.227-.758-.894-1.871-1.406-3.043-1.406h-100c-1.172 0-2.285.512-3.043 1.406-.762.891-1.094 2.07-.906 3.227l2.042 12.749c-.395.444-.729.947-.897 1.548-8.785 31.621-11.895 64.238-9.246 96.949l9.117 112.445c.168 2.074 1.906 3.676 3.988 3.676h72.355c2.082 0 3.812-1.594 3.984-3.668l2.828-33.902 4.875 34.137c.281 1.969 1.969 3.434 3.961 3.434h9.887c2.082 0 3.82-1.602 3.988-3.676l9.117-112.445c2.652-32.715-.461-65.332-9.25-96.949-.167-.601-.499-1.102-.893-1.546zm-6.598-9.385-1.281 8h-88.055l-1.281-8zm8.766 107.23-8.817 108.77h-2.73l-9.391-65.742c-.293-2.016-2.047-3.535-4.078-3.434-2.035.062-3.699 1.641-3.867 3.668l-5.461 65.508h-64.988l-8.816-108.77c-2.496-30.762.258-61.438 8.188-91.23h91.777c7.925 29.797 10.679 60.473 8.183 91.23z"/></svg>