<svg id="pencil_x5F_skirt_x5F_wrap" enable-background="new 0 0 300 300" height="512" viewBox="0 0 300 300" width="512" xmlns="http://www.w3.org/2000/svg"><path d="m53.578 63.404c.781.781 1.805 1.172 2.828 1.172s2.047-.391 2.828-1.172c1.562-1.562 1.562-4.094 0-5.656l-4.863-4.863c-1.562-1.562-4.094-1.562-5.656 0s-1.562 4.094 0 5.656z"/><path d="m37.359 35.873c-1.562-1.562-4.094-1.562-5.656 0s-1.562 4.094 0 5.656l4.863 4.863c.781.781 1.805 1.172 2.828 1.172s2.047-.391 2.828-1.172c1.562-1.562 1.562-4.094 0-5.656z"/><path d="m51.543 47.564c1.023 0 2.047-.391 2.828-1.172l4.863-4.863c1.562-1.562 1.562-4.094 0-5.656s-4.094-1.562-5.656 0l-4.863 4.863c-1.562 1.562-1.562 4.094 0 5.656.781.782 1.805 1.172 2.828 1.172z"/><path d="m36.566 52.885-4.863 4.863c-1.562 1.562-1.562 4.094 0 5.656.781.781 1.805 1.172 2.828 1.172s2.047-.391 2.828-1.172l4.863-4.863c1.562-1.562 1.562-4.094 0-5.656s-4.093-1.563-5.656 0z"/><path d="m65.469 103.539c-2.264 0-4.099 1.836-4.099 4.1s1.835 4.099 4.099 4.099 4.099-1.835 4.099-4.099-1.835-4.1-4.099-4.1z"/><path d="m253.469 99.539c-2.264 0-4.099 1.836-4.099 4.1s1.835 4.099 4.099 4.099 4.099-1.835 4.099-4.099-1.835-4.1-4.099-4.1z"/><path d="m37.469 235.539c-2.264 0-4.099 1.836-4.099 4.1s1.835 4.099 4.099 4.099 4.099-1.835 4.099-4.099-1.835-4.1-4.099-4.1z"/><path d="m57.469 163.639c-6.617 0-12 5.383-12 12s5.383 12 12 12 12-5.383 12-12-5.383-12-12-12zm0 16c-2.207 0-4-1.793-4-4s1.793-4 4-4 4 1.793 4 4-1.793 4-4 4z"/><path d="m257.469 27.639c-6.617 0-12 5.383-12 12s5.383 12 12 12 12-5.383 12-12-5.383-12-12-12zm0 16c-2.207 0-4-1.793-4-4s1.793-4 4-4 4 1.793 4 4-1.793 4-4 4z"/><path d="m231.258 68.061-15.363-7.68 14.84-4.949c2.094-.695 3.227-2.961 2.527-5.059-.699-2.094-2.945-3.234-5.059-2.527l-16.224 5.408 1.438-8.982c.188-1.156-.145-2.336-.906-3.227-.758-.895-1.871-1.406-3.043-1.406h-100c-1.172 0-2.285.512-3.043 1.406-.762.891-1.094 2.07-.906 3.227l2.562 16c.003.019.015.033.018.052-3.885 5.853-7.233 12.319-9.928 19.354-5.992 15.688-8.145 33.609-6.223 51.832l11.688 111.047c.027.289.09.574.184.848 2.508 7.527 7.781 14.109 15.668 19.57 9.516 6.586 19.5 9.16 19.922 9.266.328.082.656.121.98.121 1.672 0 3.215-1.051 3.781-2.695l3.726-10.805h24.322l3.726 10.805c.566 1.645 2.109 2.695 3.781 2.695.324 0 .652-.039.98-.121.422-.105 10.406-2.68 19.922-9.266 7.887-5.461 13.16-12.043 15.668-19.57.094-.273.156-.559.184-.848l11.688-111.047c1.922-18.223-.23-36.145-6.227-51.832-1.254-3.278-2.688-6.399-4.209-9.435l9.948 4.974c.574.285 1.184.422 1.785.422 1.469 0 2.879-.809 3.582-2.211.988-1.977.187-4.379-1.789-5.367zm-26.481-20.422-1.244 7.765c-.087.066-.13.164-.21.235h-86.523c-.086-.077-.132-.183-.226-.254-.392-.292-.828-.471-1.27-.602l-1.144-7.144zm-93.234 193.632-11.641-110.597c-1.789-16.977.199-33.625 5.742-48.137 2.657-6.94 6-13.253 9.887-18.898h72.774l-68.424 189.486c-4.008-3.567-6.813-7.534-8.338-11.854zm26.336 22.102c-2.82-1.008-7.004-2.73-11.273-5.316l70.205-194.418h4.961c-.483 10.881-2.465 21.607-6.018 31.898zm12.777-12.512 9.402-27.265 9.402 27.265zm13.727-39.261c-.027-.077-.088-.128-.118-.202l6.056-17.562 23.191 64.221c-4.269 2.585-8.453 4.308-11.273 5.316zm55.832-80.926-11.641 110.598c-1.527 4.32-4.32 8.296-8.335 11.866l-25.587-70.858c-.05-.14-.157-.235-.221-.366l28.885-83.767c.809-2.345 1.49-4.724 2.152-7.107v40.599c0 2.211 1.789 4 4 4s4-1.789 4-4v-51.484c.329.798.688 1.568 1 2.382 5.548 14.512 7.536 31.16 5.747 48.137z"/></svg>