<svg id="polo_x5F_shirt" enable-background="new 0 0 300 300" height="512" viewBox="0 0 300 300" width="512" xmlns="http://www.w3.org/2000/svg"><path d="m231.364 146.468c-.895 0-1.778-.299-2.5-.876l-12.866-10.293c-1.725-1.38-2.005-3.897-.624-5.622 1.38-1.726 3.895-2.006 5.622-.625l11.025 8.821 27.777-11.425-29.833-54.046c-1.067-1.934-.365-4.368 1.569-5.435 1.936-1.067 4.367-.365 5.435 1.569l32 57.972c.551.999.649 2.184.271 3.26s-1.197 1.939-2.252 2.373l-34.104 14.028c-.489.2-1.007.299-1.52.299z"/><path d="m83.573 146.468c-.514 0-1.03-.099-1.521-.301l-34.105-14.028c-1.055-.434-1.874-1.297-2.252-2.373s-.279-2.261.271-3.26l32-57.972c1.068-1.934 3.502-2.636 5.435-1.569 1.934 1.067 2.636 3.501 1.569 5.435l-29.833 54.046 27.778 11.425 13.555-10.845c1.727-1.379 4.243-1.1 5.623.625s1.1 4.243-.625 5.623l-15.396 12.317c-.721.577-1.606.877-2.499.877z"/><path d="m217.047 274.468h-115.579c-2.209 0-4-1.791-4-4v-131.926c0-18.649-4.522-37.264-13.077-53.834l-6.477-12.545c-.502-.973-.584-2.11-.225-3.146s1.126-1.877 2.124-2.331l13.01-5.914c8.905-4.048 18.304-6.98 27.935-8.715 2.181-.394 4.255 1.054 4.646 3.228.392 2.174-1.054 4.254-3.228 4.646-8.979 1.617-17.741 4.351-26.042 8.125l-9.183 4.174 4.548 8.809c9.139 17.699 13.969 37.584 13.969 57.504v127.926h107.579v-132.664c0-16.96 3.366-33.471 10.006-49.073l5.373-12.63-6.884-4.141c-8.504-3.844-17.48-6.596-26.683-8.181-2.177-.375-3.638-2.443-3.264-4.621.375-2.177 2.448-3.638 4.621-3.263 9.951 1.713 19.655 4.7 28.844 8.875.14.063.275.135.407.214l10.063 6.054c1.709 1.028 2.399 3.158 1.618 4.994l-6.734 15.831c-6.216 14.606-9.367 30.063-9.367 45.94v136.663c0 2.21-1.791 4.001-4 4.001z"/><path d="m181.538 46.468h-45.193c-2.209 0-4-1.791-4-4s1.791-4 4-4h45.193c2.209 0 4 1.791 4 4s-1.791 4-4 4z"/><path d="m157.468 122.468c-2.209 0-4-1.791-4-4v-32c0-2.209 1.791-4 4-4s4 1.791 4 4v32c0 2.209-1.791 4-4 4z"/><path d="m187.994 103.38c-.602 0-1.204-.136-1.76-.408l-25.824-12.647c-1.924-.942-2.764-3.233-1.905-5.196l19.368-44.265c.5-1.141 1.502-1.985 2.712-2.281s2.489-.013 3.46.768l13.999 11.26c1.125.904 1.675 2.345 1.439 3.769l-7.543 45.653c-.206 1.248-.99 2.325-2.114 2.904-.574.294-1.203.443-1.832.443zm-20.624-18.554 17.554 8.597 6.286-38.042-8.104-6.518z"/><path d="m129.889 103.38c-.629 0-1.258-.148-1.833-.444-1.124-.579-1.908-1.656-2.114-2.904l-7.542-45.653c-.235-1.424.314-2.864 1.439-3.769l13.999-11.26c.971-.781 2.25-1.065 3.459-.768 1.21.296 2.212 1.14 2.712 2.281l19.369 44.265c.858 1.963.019 4.253-1.906 5.196l-25.824 12.647c-.555.273-1.157.409-1.759.409zm-3.216-48 6.286 38.042 17.554-8.597-15.736-35.963z"/><path d="m64.404 63.404c-1.024 0-2.047-.391-2.829-1.171l-4.861-4.861c-1.562-1.563-1.562-4.095 0-5.657 1.563-1.562 4.095-1.562 5.657 0l4.861 4.861c1.562 1.563 1.562 4.095 0 5.657-.781.78-1.804 1.171-2.828 1.171z"/><path d="m47.392 46.392c-1.024 0-2.047-.391-2.829-1.171l-4.86-4.86c-1.562-1.563-1.562-4.095 0-5.657 1.563-1.562 4.095-1.562 5.657 0l4.86 4.86c1.562 1.563 1.562 4.095 0 5.657-.781.78-1.804 1.171-2.828 1.171z"/><path d="m59.543 46.392c-1.024 0-2.047-.391-2.829-1.172-1.562-1.562-1.562-4.095 0-5.657l4.861-4.86c1.563-1.562 4.095-1.561 5.657 0 1.562 1.562 1.562 4.095 0 5.657l-4.861 4.86c-.781.781-1.805 1.172-2.828 1.172z"/><path d="m42.532 63.404c-1.023 0-2.047-.391-2.828-1.171-1.563-1.562-1.563-4.095 0-5.657l4.86-4.861c1.561-1.563 4.094-1.562 5.657 0s1.563 4.095 0 5.657l-4.86 4.861c-.781.78-1.805 1.171-2.829 1.171z"/><ellipse cx="253.468" cy="50.468" rx="4.099" ry="4.099" transform="matrix(.16 -.987 .987 .16 163.051 292.579)"/><circle cx="57.468" cy="174.468" r="4.099"/><path d="m253.468 194.468c-6.617 0-12-5.383-12-12s5.383-12 12-12 12 5.383 12 12-5.383 12-12 12zm0-16c-2.206 0-4 1.794-4 4s1.794 4 4 4 4-1.794 4-4-1.794-4-4-4z"/></svg>