<svg id="round_x5F_purse" enable-background="new 0 0 300 300" height="512" viewBox="0 0 300 300" width="512" xmlns="http://www.w3.org/2000/svg"><path d="m228.2 223.854v-.001c0-.001 0-.002 0-.003-2.256-37.383-15.01-64.615-22.412-77.52-1.525-2.659-2.555-5.54-3.174-8.501.016-.075.065-.132.077-.208 2.799-18.215 7.154-63.078-12.773-86.207-7.943-9.219-18.746-13.729-32.289-13.812-13.293.053-24.057 4.754-31.996 13.973-20.861 24.225-15.594 73.303-13.482 87.768 0 .003.002.006.003.009l.189 1.237c-.709 2.069-1.594 4.089-2.768 5.985-8.133 13.132-22.07 40.815-24.035 78.676 0 .003-.001.006-.002.009l-.088 1.193c-.453 10.145 3.197 19.809 10.277 27.213 7.111 7.436 17.088 11.699 27.369 11.699h67.65c10.281 0 20.258-4.264 27.369-11.699 7.08-7.404 10.73-17.068 10.277-27.215-.023-.535-.068-1.055-.111-1.574zm-96.506-167.058c6.449-7.488 14.941-11.15 25.965-11.193 11.289-.012 19.762 3.562 26.197 11.033 13.98 16.227 14.153 46.511 12.549 65.823-1.348-.677-2.847-1.095-4.455-1.095-5.514 0-10 4.486-10 10 0 1.104-.896 2-2 2h-4c-3.309 0-6-2.691-6-6v-2c0-6.617-5.383-12-12-12s-12 5.383-12 12v2c0 3.309-2.691 6-6 6h-4c-1.104 0-2-.896-2-2 0-5.514-4.486-10-10-10-2.035 0-3.926.618-5.507 1.667-1.406-19.725-.802-49.915 13.251-66.235zm25.719 92.568c-3.744 0-7.264-1.459-9.912-4.105l-4.311-4.311c6.155-1.471 10.76-6.985 10.76-13.584v-2c0-2.205 1.795-4 4-4s4 1.795 4 4v2c0 6.081 3.922 11.217 9.35 13.145l-3.039 3.714c-2.674 3.268-6.627 5.141-10.848 5.141zm-41.039 1.42c3.648-5.891 5.576-12.605 5.576-19.42 0-1.104.896-2 2-2s2 .896 2 2c0 3.701 2.044 6.902 5.041 8.631.054.061.073.139.131.197l10.723 10.723c3.08 3.08 6.917 5.121 11.086 5.98l-9.912 39.221c-5.812.483-10.411 5.313-10.411 11.248 0 6.254 5.088 11.342 11.342 11.342s11.342-5.088 11.342-11.342c0-3.709-1.815-6.977-4.576-9.048l7.234-28.623 7.234 28.623c-2.761 2.071-4.576 5.339-4.576 9.048 0 6.254 5.088 11.342 11.342 11.342s11.342-5.088 11.342-11.342c0-5.935-4.598-10.765-10.411-11.248l-9.975-39.47c4.488-1.152 8.537-3.681 11.546-7.357l6.574-8.035c5.002-.545 8.924-4.746 8.924-9.891 0-1.104.896-2 2-2s2 .896 2 2v.656c0 6.379 1.693 12.703 4.898 18.291 6.855 11.949 18.498 36.837 21.133 71.04-17.864 6.165-33.196 6.3-33.357 6.3h-59.418c-15.848 0-26.666-2.443-33.474-4.848 2.408-34.593 15.121-59.872 22.642-72.018zm27.576 53.238c1.842 0 3.342 1.5 3.342 3.342s-1.5 3.342-3.342 3.342-3.342-1.5-3.342-3.342 1.501-3.342 3.342-3.342zm28 0c1.842 0 3.342 1.5 3.342 3.342s-1.5 3.342-3.342 3.342-3.342-1.5-3.342-3.342 1.501-3.342 3.342-3.342zm40.383 44.114c-5.609 5.865-13.479 9.229-21.588 9.229h-67.65c-8.109 0-15.979-3.363-21.588-9.229-4.523-4.73-7.264-10.631-7.934-16.947 9.416 2.965 20.697 4.463 33.633 4.463h59.428.006c.682 0 15.574-.094 33.748-5.986-.363 6.886-3.17 13.36-8.055 18.47z"/><path d="m77.507 61.265-5.658-5.658c-1.562-1.562-4.094-1.562-5.656 0s-1.562 4.094 0 5.656l5.658 5.658c.781.781 1.805 1.172 2.828 1.172s2.047-.391 2.828-1.172c1.562-1.563 1.562-4.094 0-5.656z"/><path d="m52.052 47.122c.781.781 1.805 1.172 2.828 1.172s2.047-.391 2.828-1.172c1.562-1.562 1.562-4.094 0-5.656l-5.658-5.658c-1.562-1.562-4.094-1.562-5.656 0s-1.562 4.094 0 5.656z"/><path d="m69.021 48.294c1.023 0 2.047-.391 2.828-1.172l5.658-5.658c1.562-1.562 1.562-4.094 0-5.656s-4.094-1.562-5.656 0l-5.658 5.658c-1.562 1.562-1.562 4.094 0 5.656.781.781 1.804 1.172 2.828 1.172z"/><path d="m49.222 68.093c1.023 0 2.047-.391 2.828-1.172l5.658-5.658c1.562-1.562 1.562-4.094 0-5.656s-4.094-1.562-5.656 0l-5.658 5.658c-1.562 1.562-1.562 4.094 0 5.656.781.781 1.804 1.172 2.828 1.172z"/><path d="m81.95 113.265c-2.264 0-4.099 1.835-4.099 4.099s1.835 4.099 4.099 4.099 4.099-1.835 4.099-4.099-1.835-4.099-4.099-4.099z"/><path d="m257.95 105.265c-2.264 0-4.099 1.835-4.099 4.099s1.835 4.099 4.099 4.099 4.099-1.835 4.099-4.099-1.835-4.099-4.099-4.099z"/><path d="m225.95 41.364c-6.617 0-12 5.383-12 12s5.383 12 12 12 12-5.383 12-12-5.382-12-12-12zm0 16c-2.205 0-4-1.795-4-4s1.795-4 4-4 4 1.795 4 4-1.795 4-4 4z"/><path d="m49.95 153.364c-6.617 0-12 5.383-12 12s5.383 12 12 12 12-5.383 12-12-5.382-12-12-12zm0 16c-2.205 0-4-1.795-4-4s1.795-4 4-4 4 1.795 4 4-1.795 4-4 4z"/></svg>