<svg id="makeup_x5F_bag" enable-background="new 0 0 300 300" height="512" viewBox="0 0 300 300" width="512" xmlns="http://www.w3.org/2000/svg"><path d="m247.972 193.659c-2.209 0-4-1.791-4-4v-22.978c0-24.124-19.626-43.75-43.75-43.75h-92.5c-24.124 0-43.75 19.626-43.75 43.75v22.956c0 2.209-1.791 4-4 4s-4-1.791-4-4v-22.956c0-28.535 23.215-51.75 51.75-51.75h92.5c28.535 0 51.75 23.215 51.75 51.75v22.978c0 2.209-1.791 4-4 4z"/><path d="m164.326 119.379c-6.974 0-12.647-5.673-12.647-12.647s5.674-12.647 12.647-12.647 12.646 5.673 12.646 12.647-5.672 12.647-12.646 12.647zm0-17.294c-2.563 0-4.647 2.084-4.647 4.647s2.085 4.647 4.647 4.647 4.646-2.084 4.646-4.647-2.083-4.647-4.646-4.647z"/><path d="m146.506 119.379c-6.974 0-12.647-5.673-12.647-12.647s5.673-12.647 12.647-12.647 12.647 5.673 12.647 12.647-5.674 12.647-12.647 12.647zm0-17.294c-2.563 0-4.647 2.084-4.647 4.647s2.084 4.647 4.647 4.647 4.647-2.084 4.647-4.647-2.085-4.647-4.647-4.647z"/><path d="m155.946 273.08c-18.003 0-36.662-1.503-56.245-4.506-.064-.01-.128-.021-.191-.034-19.282-3.925-36.36-12.248-47.292-18.54-10.035-5.777-16.269-16.605-16.269-28.259 0-8.617 3.326-16.748 9.366-22.895l17.589-17.901c4.242-4.317 6.578-10.028 6.578-16.081 0-18.71 15.387-33.932 34.3-33.932h100.355c18.913 0 34.301 15.222 34.301 33.932 0 6.053 2.336 11.765 6.578 16.081l17.587 17.901c6.039 6.145 9.365 14.275 9.365 22.895 0 11.654-6.233 22.481-16.268 28.259-10.931 6.291-28.008 14.613-47.292 18.54-17.002 3.027-34.402 4.54-52.462 4.54zm-54.935-12.399c38.308 5.867 72.951 5.866 105.9.001 18.137-3.693 34.383-11.619 44.8-17.615 7.562-4.353 12.259-12.524 12.259-21.325 0-6.508-2.512-12.647-7.071-17.287l-17.588-17.901c-5.721-5.822-8.871-13.525-8.871-21.688 0-14.299-11.799-25.932-26.301-25.932h-100.356c-14.502 0-26.3 11.633-26.3 25.932 0 8.163-3.151 15.865-8.872 21.688l-17.589 17.901c-4.56 4.641-7.072 10.78-7.072 17.287 0 8.801 4.698 16.972 12.259 21.325 10.401 5.986 26.608 13.895 44.802 17.614z"/><path d="m224.546 263.423c-.817 0-1.642-.249-2.353-.768l-8.873-6.467c-23.622-17.217-38.687-43.786-41.332-72.894-.2-2.2 1.421-4.146 3.621-4.346 2.198-.207 4.146 1.421 4.346 3.621 2.438 26.815 16.315 51.292 38.077 67.153l8.872 6.467c1.786 1.301 2.179 3.803.877 5.588-.783 1.077-2.001 1.646-3.235 1.646z"/><path d="m83.397 263.423c-1.235 0-2.453-.569-3.236-1.645-1.301-1.785-.909-4.287.876-5.588l8.873-6.467c21.761-15.861 35.639-40.337 38.077-67.153.2-2.2 2.137-3.827 4.346-3.621 2.2.2 3.821 2.146 3.621 4.346-2.646 29.108-17.71 55.677-41.332 72.894l-8.873 6.467c-.71.518-1.535.767-2.352.767z"/><path d="m72.7 77.66c-1.024 0-2.047-.391-2.829-1.171l-5.657-5.657c-1.562-1.563-1.562-4.095 0-5.657 1.563-1.562 4.095-1.562 5.657 0l5.657 5.657c1.562 1.563 1.562 4.095 0 5.657-.78.781-1.804 1.171-2.828 1.171z"/><path d="m52.901 57.861c-1.024 0-2.047-.391-2.829-1.171l-5.657-5.657c-1.562-1.563-1.562-4.095 0-5.657 1.563-1.562 4.095-1.562 5.657 0l5.657 5.657c1.562 1.563 1.562 4.095 0 5.657-.781.78-1.804 1.171-2.828 1.171z"/><path d="m67.043 57.861c-1.024 0-2.047-.391-2.829-1.172-1.562-1.562-1.562-4.095 0-5.657l5.657-5.657c1.563-1.561 4.095-1.562 5.657 0s1.562 4.095 0 5.657l-5.657 5.657c-.781.781-1.805 1.172-2.828 1.172z"/><path d="m47.244 77.66c-1.024 0-2.047-.391-2.828-1.171-1.563-1.562-1.563-4.095 0-5.657l5.657-5.657c1.563-1.563 4.095-1.562 5.657 0 1.563 1.562 1.563 4.095 0 5.657l-5.657 5.657c-.781.781-1.805 1.171-2.829 1.171z"/><circle cx="131.972" cy="54.932" r="4.099"/><ellipse cx="255.972" cy="98.932" rx="4.099" ry="4.099" transform="matrix(.16 -.987 .987 .16 117.315 335.752)"/><circle cx="43.972" cy="126.932" r="4.099"/><path d="m227.972 58.932c-6.617 0-12-5.383-12-12s5.383-12 12-12 12 5.383 12 12-5.383 12-12 12zm0-16c-2.206 0-4 1.794-4 4s1.794 4 4 4 4-1.794 4-4-1.794-4-4-4z"/></svg>