<svg id="rain_x5F_boots" enable-background="new 0 0 300 300" height="512" viewBox="0 0 300 300" width="512" xmlns="http://www.w3.org/2000/svg"><path d="m208.265 208.752h-20.324c-27.51 0-45.99-26.76-45.99-51.752v-111.895-12c0-2.209-1.791-4-4-4h-96c-2.209 0-4 1.791-4 4v12 64.99c0 29.23 3.682 50.803 11.254 65.949 1.871 3.742 2.668 7.904 2.369 12.375-.254 3.791-1.707 7.744-4.574 12.439-8.915 14.586.025 40.055 1.783 44.715v19.531c0 2.209 1.791 4 4 4h57.168c2.209 0 4-1.791 4-4v-4.211l11.496 4.049c8.596 3.025 17.537 4.84 26.572 5.389 5.146.314 11.328.562 18.02.562 20.395 0 45.496-2.305 60.205-12.078 4.106-2.728 6.245-7.447 5.686-12.234.086-.171.233-.302.294-.487 2.004-6.014 2.021-12.053.057-17.947-3.868-11.6-15.128-19.395-28.016-19.395zm-20.324 8h20.324c9.293 0 17.693 5.727 20.426 13.928 1.209 3.625 1.365 7.336.467 11.061-9.434 3.201-52.635 16.6-85.287 5.711-13.236-4.411-27.793-6.585-41.358-7.562 3.951-3.172 7.47-7.126 10.502-11.88 5.846-9.162 8.936-20.273 8.936-32.135v-14.77c0-9.27 4.589-16.541 12.194-20.007 1.983 30.559 25.777 55.654 53.796 55.654zm-53.991-103.736c-6.686-.465-12-5.995-12-12.797v-18.227c0-6.802 5.314-12.332 12-12.797zm0-71.911h-88v-4h88zm-80.125 163.926c3.566-5.84 5.387-10.949 5.729-16.078.396-5.906-.678-11.453-3.193-16.486-7.006-14.01-10.41-34.41-10.41-62.371v-60.99h88v12.09c-11.099.476-20 9.583-20 20.797v18.227c0 11.214 8.901 20.321 20 20.797v31.626c-12.222 4.034-20 14.827-20 28.463v14.77c0 10.334-2.654 19.959-7.678 27.83-4.811 7.539-10.959 12.689-18.275 15.307-.148.053-.25.166-.387.234-1.442-.021-2.906-.052-4.292-.052-12.688 0-22.914.83-27.863 1.322-3.017-8.808-7.217-26.349-1.631-35.486zm171.991 47.123c-17.59 11.686-53.479 11.402-73.311 10.193-8.295-.504-16.506-2.17-24.402-4.951l-16.824-5.924c-1.223-.428-2.58-.244-3.639.51-1.061.75-1.689 1.967-1.689 3.264v5.859h-49.169v-12.668c12.085-1.127 53.068-3.893 84.557 6.603 10.145 3.381 21.053 4.646 31.701 4.645 22.428 0 43.638-5.601 54.083-8.857-.353.504-.769.969-1.307 1.326z"/><path d="m207.851 74.662c.781.781 1.805 1.172 2.828 1.172s2.047-.391 2.828-1.172c1.562-1.562 1.562-4.094 0-5.656l-5.658-5.658c-1.562-1.562-4.094-1.562-5.656 0s-1.562 4.094 0 5.656z"/><path d="m188.052 54.863c.781.781 1.805 1.172 2.828 1.172s2.047-.391 2.828-1.172c1.562-1.562 1.562-4.094 0-5.656l-5.658-5.658c-1.562-1.562-4.094-1.562-5.656 0s-1.562 4.094 0 5.656z"/><path d="m205.021 56.035c1.023 0 2.047-.391 2.828-1.172l5.658-5.658c1.562-1.562 1.562-4.094 0-5.656s-4.094-1.562-5.656 0l-5.658 5.658c-1.562 1.562-1.562 4.094 0 5.656.781.782 1.804 1.172 2.828 1.172z"/><path d="m185.222 75.834c1.023 0 2.047-.391 2.828-1.172l5.658-5.658c1.562-1.562 1.562-4.094 0-5.656s-4.094-1.562-5.656 0l-5.658 5.658c-1.562 1.562-1.562 4.094 0 5.656.781.781 1.804 1.172 2.828 1.172z"/><path d="m177.95 149.205c2.264 0 4.099-1.835 4.099-4.099s-1.835-4.099-4.099-4.099-4.099 1.835-4.099 4.099 1.835 4.099 4.099 4.099z"/><path d="m257.95 53.006c-2.264 0-4.099 1.835-4.099 4.099s1.835 4.099 4.099 4.099 4.099-1.835 4.099-4.099-1.835-4.099-4.099-4.099z"/><path d="m245.95 133.105c-6.617 0-12 5.383-12 12s5.383 12 12 12 12-5.383 12-12-5.382-12-12-12zm0 16c-2.205 0-4-1.795-4-4s1.795-4 4-4 4 1.795 4 4-1.795 4-4 4z"/></svg>