<svg id="running_x5F_shoes" enable-background="new 0 0 300 300" height="512" viewBox="0 0 300 300" width="512" xmlns="http://www.w3.org/2000/svg"><path d="m203.555 75.06c.781.781 1.805 1.172 2.828 1.172s2.047-.391 2.828-1.172c1.562-1.562 1.562-4.094 0-5.656l-5.658-5.658c-1.562-1.562-4.094-1.562-5.656 0s-1.562 4.094 0 5.656z"/><path d="m183.756 55.262c.781.781 1.805 1.172 2.828 1.172s2.047-.391 2.828-1.172c1.562-1.562 1.562-4.094 0-5.656l-5.658-5.658c-1.562-1.562-4.094-1.562-5.656 0s-1.562 4.094 0 5.656z"/><path d="m200.725 56.433c1.023 0 2.047-.391 2.828-1.172l5.658-5.658c1.562-1.562 1.562-4.094 0-5.656s-4.094-1.562-5.656 0l-5.658 5.658c-1.562 1.562-1.562 4.094 0 5.656.781.782 1.804 1.172 2.828 1.172z"/><path d="m180.926 76.232c1.023 0 2.047-.391 2.828-1.172l5.658-5.658c1.562-1.562 1.562-4.094 0-5.656s-4.094-1.562-5.656 0l-5.658 5.658c-1.562 1.562-1.562 4.094 0 5.656.781.782 1.805 1.172 2.828 1.172z"/><path d="m69.655 49.603c2.264 0 4.099-1.835 4.099-4.099s-1.835-4.099-4.099-4.099-4.099 1.835-4.099 4.099 1.835 4.099 4.099 4.099z"/><path d="m261.655 49.603c2.264 0 4.099-1.835 4.099-4.099s-1.835-4.099-4.099-4.099-4.099 1.835-4.099 4.099 1.835 4.099 4.099 4.099z"/><path d="m153.655 125.603c2.264 0 4.099-1.835 4.099-4.099s-1.835-4.099-4.099-4.099-4.099 1.835-4.099 4.099 1.835 4.099 4.099 4.099z"/><path d="m241.655 157.504c6.617 0 12-5.383 12-12s-5.383-12-12-12-12 5.383-12 12 5.382 12 12 12zm0-16c2.205 0 4 1.795 4 4s-1.795 4-4 4-4-1.795-4-4 1.795-4 4-4z"/><path d="m69.655 89.504c0 6.617 5.383 12 12 12s12-5.383 12-12-5.383-12-12-12-12 5.383-12 12zm12-4c2.205 0 4 1.795 4 4s-1.795 4-4 4-4-1.795-4-4 1.795-4 4-4z"/><path d="m264.889 195.16c-.146-.219-.312-.424-.5-.609-1.889-1.889-5.752-4.264-18.971-5.881-.001 0-.002 0-.003 0 0 0 0 0-.001 0-4.107-.5-8.83-.891-14.039-1.16-12.775-.666-25.26-3.295-37.107-7.812-15.314-5.846-31.777-13.545-45.006-19.73-16.908-7.906-22.623-10.463-25.592-10.463-7.088 0-9.928 5.436-10.238 9.516-2.898 8.191-8.432 12.322-12.607 14.352-6.209 3.014-13.744 3.566-19.678 1.438-12.523-4.49-22.811-23.039-22.914-23.225-1.033-1.889-3.381-2.619-5.297-1.658-12.561 6.28-14.419 22.331-14.694 27.218-8.194 9.672-8.603 26.07-7.357 38.468.426 4.219 2.144 8.07 4.703 11.095l-1.326 2.653c-2.658 5.316-2.201 11.656 1.168 16.15 2.059 2.742 5.99 6.01 13.027 6.01 2.428 0 8.859.67 17 1.52 20 2.084 53.326 5.559 86.539 5.557 20.627 0 41.217-1.34 58.525-5.188 20.137-4.475 35.926-9.328 46.93-14.426 7.367-3.413 10.985-11.675 8.916-19.285 1.007-1.305 1.867-2.702 2.412-4.289 3.227-9.411-3.597-19.813-3.89-20.251zm-3.684 17.672c-.904 2.609-3.252 4.514-7.178 5.822-2.992.998-6.141 2.15-9.447 3.361-14.235 5.214-31.561 11.545-51.635 10.51 6.875-7.147 16.519-15.654 26.008-18.816 17.543-5.848 23.793-6.061 23.805-6.062 2.207 0 3.998-1.789 4-3.996 0-.04.046-3.172.925-6.594 7.587 1.155 10.102 2.462 10.815 2.961 1.483 2.445 4.231 8.41 2.707 12.814zm-207.734-53.666c4.1 6.381 13.396 19.021 24.975 23.174 7.887 2.83 17.801 2.152 25.875-1.773 8.092-3.932 13.928-10.686 16.877-19.529.137-.408.205-.836.205-1.266 0-1.504.764-2.268 2.107-2.275 1.657.214 7.926 3.01 15.171 6.365l-4.476 7.618c-1.119 1.904-.482 4.355 1.424 5.475.635.373 1.334.551 2.021.551 1.371 0 2.707-.705 3.453-1.975l4.861-8.274c2.848 1.332 5.865 2.74 8.967 4.178l-4.727 8.045c-1.119 1.904-.482 4.355 1.424 5.475.635.373 1.334.551 2.021.551 1.371 0 2.707-.705 3.453-1.975l5.133-8.737c2.962 1.348 5.992 2.7 9.047 4.043l-5.078 8.644c-1.119 1.904-.482 4.355 1.424 5.475.635.373 1.334.551 2.021.551 1.371 0 2.707-.705 3.453-1.975l5.581-9.5c4.263 1.801 8.533 3.54 12.731 5.142 12.629 4.816 25.932 7.617 39.545 8.326 3.1.162 6.014.365 8.713.611-.322 1.438-.531 2.789-.666 3.939-3.83.615-10.875 2.166-22.586 6.07-13.18 4.393-26.074 17.102-33.389 25.33-.719-.115-1.439-.242-2.168-.387-18.314-3.662-57.463-5.209-88.18-5.861-8.273-23.545-31.529-40.248-46.355-48.869.385-4.001 1.817-12.372 7.143-17.167zm-14.625 55.642c-1.385-13.75.176-24.805 4.291-31.062 13.209 7.842 32.85 22.176 40.934 41.648-6.045-.107-11.961-.199-17.277-.283-9.627-.148-18.742-.289-20.602-.43-3.938-1.267-6.875-5.197-7.346-9.873zm215.242 16.916c-10.482 4.855-25.725 9.523-45.301 13.875-43.91 9.756-110.498 2.816-142.5-.518-9.023-.941-14.986-1.562-17.83-1.562-3.039 0-5.207-.92-6.627-2.811-1.566-2.09-1.729-5.141-.412-7.771l.656-1.312c.708.315 1.427.611 2.178.827.967.277 1.801.338 22.418.658 6.988.107 15.014.232 23.004.393h.08c.496 0 .961-.156 1.413-.33 30.59.627 70.112 2.13 88.13 5.732 1.593.318 3.158.554 4.721.783h.002c4.613.676 9.078.975 13.404.975 19.494 0 36.084-6.074 49.906-11.137 3.23-1.182 6.305-2.309 9.229-3.283.854-.285 1.562-.667 2.335-1.007-.404 2.744-2.121 5.244-4.806 6.488z"/></svg>