<svg id="sandals" enable-background="new 0 0 300 300" height="512" viewBox="0 0 300 300" width="512" xmlns="http://www.w3.org/2000/svg"><path d="m204.643 73.606c.781.781 1.805 1.172 2.828 1.172s2.047-.391 2.828-1.172c1.562-1.561 1.562-4.094 0-5.656l-5.656-5.658c-1.562-1.562-4.094-1.562-5.656 0-1.562 1.561-1.562 4.094 0 5.656z"/><path d="m184.846 53.807c.781.781 1.805 1.172 2.828 1.172s2.047-.391 2.828-1.172c1.562-1.561 1.562-4.094 0-5.656l-5.656-5.658c-1.562-1.562-4.094-1.562-5.656 0-1.562 1.561-1.562 4.094 0 5.656z"/><path d="m201.815 54.979c1.023 0 2.047-.391 2.828-1.172l5.656-5.658c1.562-1.562 1.562-4.096 0-5.656-1.562-1.562-4.094-1.562-5.656 0l-5.656 5.658c-1.562 1.562-1.562 4.096 0 5.656.781.782 1.805 1.172 2.828 1.172z"/><path d="m182.018 74.778c1.023 0 2.047-.391 2.828-1.172l5.656-5.658c1.562-1.562 1.562-4.096 0-5.656-1.562-1.562-4.094-1.562-5.656 0l-5.656 5.658c-1.562 1.562-1.562 4.096 0 5.656.781.782 1.805 1.172 2.828 1.172z"/><path d="m262.745 39.95c-2.264 0-4.1 1.835-4.1 4.099s1.836 4.099 4.1 4.099 4.1-1.835 4.1-4.099-1.837-4.099-4.1-4.099z"/><path d="m166.645 160.05c0 2.264 1.836 4.099 4.1 4.099s4.1-1.835 4.1-4.099-1.836-4.099-4.1-4.099-4.1 1.835-4.1 4.099z"/><path d="m98.745 52.149c2.264 0 4.1-1.835 4.1-4.099s-1.836-4.099-4.1-4.099-4.1 1.835-4.1 4.099 1.836 4.099 4.1 4.099z"/><path d="m242.745 156.05c6.617 0 12-5.383 12-12s-5.383-12-12-12-12 5.383-12 12 5.383 12 12 12zm0-16c2.207 0 4 1.795 4 4s-1.793 4-4 4-4-1.795-4-4 1.793-4 4-4z"/><path d="m257.764 206.919c-.165.041-5.617 1.41-13.942 3.234.188-10.735-4.417-20.098-4.628-20.519-.68-1.355-2.062-2.211-3.578-2.211-18.09 0-30.387-5.979-30.5-6.035-1.641-.818-3.633-.42-4.828.975l-31.5 36.752c-.013.015-.015.034-.027.049-12.786-2.063-18.618-9.953-26.234-20.326-5.488-7.471-11.707-15.939-21.684-23.516-8.86-6.728-20.552-12.652-32.18-17.557-.084-.236-.113-.483-.246-.706-7.736-13.043-14.255-34.143-18.403-49.732l47.678 15.214c2.562 3.326 6.541 5.51 11.054 5.51 1.431 0 2.785-.279 4.086-.68l22.531 7.189c1.027.328 2.074.49 3.113.49 2.109 0 4.176-.668 5.949-1.963 2.641-1.93 4.156-4.914 4.156-8.186 0-4.459-2.859-8.348-7.113-9.678l-19.508-6.096c-.053-.017-.106-.002-.16-.017-2.006-5.28-7.081-9.061-13.055-9.061-2.939 0-5.663.92-7.917 2.474l-56.126-17.538c-.37-.116-.74-.109-1.109-.117-.31-.224-.646-.416-1.016-.545-1.332-.469-2.805-.199-3.883.703-36.756 30.631-24.026 56.986-20.704 62.512l10.243 108.837c.191 2.053 1.91 3.621 3.973 3.625l26.531.049h.008c1.059 0 2.074-.42 2.824-1.17.754-.75 1.176-1.768 1.176-2.83v-68.4c13.703.707 34.312 25.787 48.563 48.393 9.031 14.33 24.172 23.168 40.504 23.643 39.305 1.115 86.504-18.533 88.488-19.371 1.48-.625 2.445-2.078 2.445-3.686v-25.832c0-1.234-.57-2.398-1.543-3.156-.977-.758-2.239-1.02-3.438-.721zm-53.316-17.113c4.738 1.869 14.945 5.186 28.516 5.578 1.28 3.283 3.353 9.827 2.77 16.487-16.545 3.402-39.276 7.376-56.888 7.803zm-137.773-95.823 48.961 15.299c-.455 1.245-.727 2.567-.809 3.947l-47-14.998c-.046-.015-.092-.002-.139-.015-.377-1.546-.716-2.966-1.013-4.233zm93.906 30.918c0 .945-.551 1.488-.875 1.727-.328.236-1.008.598-1.914.311l-17.21-5.492c.739-1.178 1.289-2.475 1.652-3.852l16.851 5.266c.894.279 1.496 1.099 1.496 2.04zm-31.836-16.851c3.309 0 6 2.691 6 6s-2.691 6-6 6-6-2.691-6-6 2.691-6 6-6zm-69.922-12.446c2.849 12.286 9.576 38.744 18.581 57.696-15.179-5.674-28.515-9.37-32.989-10.556-2.601-4.57-10.683-23.31 14.408-47.14zm195.922 138.323c-10.16 3.994-49.973 18.701-82.699 17.762-13.664-.396-26.363-7.842-33.973-19.912-10.93-17.34-38.637-57.049-60.309-51.604-1.777.449-3.02 2.047-3.02 3.877v67.992l-18.891-.035-9.445-100.408c13.746 3.906 49.863 15.111 69.598 30.094 9.051 6.875 14.652 14.504 20.07 21.879 9.117 12.414 17.727 24.141 39.75 24.141 26.516 0 65.203-8.574 78.918-11.826v18.04z"/></svg>