<svg id="shirt" enable-background="new 0 0 300 300" height="512" viewBox="0 0 300 300" width="512" xmlns="http://www.w3.org/2000/svg"><g stroke="#000" stroke-linecap="round" stroke-linejoin="round" stroke-miterlimit="10" stroke-width="8"><path d="m81.576 70.391-.958.629-25.748 91.213c-5.918 20.967-8.92 42.649-8.92 64.436v21.748h20.8l5.14-6.605c4.436-5.699 7.604-12.234 9.344-19.166" fill="none"/><path d="m218.951 213.872c.435 9.525 3.495 18.745 8.843 26.639l5.356 7.906h20.8v-21.749c0-21.786-3.002-43.469-8.92-64.436l-25.657-90.894" fill="none"/><path d="m122.217 43.728-40.641 26.663.868.865c4.267 4.252 6.518 10.121 6.187 16.135l-8.014 145.969v7.802c0 15.312 12.613 27.724 28.173 27.724h82.321c15.56 0 28.173-12.413 28.173-27.724l.332-12.723-6.439-141.16c-.271-5.949 1.979-11.737 6.197-15.94l-.09-.319-41.6-27.292" fill="none"/><path d="m130.35 36.886h41.2"/><path d="m181.95 132.676c-6.627 0-12-5.373-12-12v-15.368h24v15.368c0 6.627-5.372 12-12 12z" fill="none"/><path d="m149.95 64.886v204"/><path d="m233.95 248.886h20v12h-20z" fill="none"/><path d="m45.95 248.886h20v12h-20z"/><path d="m150.95 64.255 13.734 13.684 17.939-30.141-11.073-10.912z" fill="none"/><path d="m150.95 64.255-13.733 13.684-17.94-30.141 11.073-10.912z" fill="none"/></g><circle cx="113.95" cy="76.886" r="4"/><circle cx="113.95" cy="116.886" r="4"/><circle cx="129.95" cy="96.886" r="4"/><circle cx="101.95" cy="96.886" r="4"/><circle cx="129.95" cy="136.886" r="4"/><circle cx="101.95" cy="136.886" r="4"/><circle cx="113.95" cy="160.886" r="4"/><circle cx="113.95" cy="200.886" r="4"/><circle cx="113.95" cy="244.886" r="4"/><circle cx="129.95" cy="180.886" r="4"/><circle cx="101.95" cy="180.886" r="4"/><circle cx="129.95" cy="220.886" r="4"/><circle cx="101.95" cy="220.886" r="4"/><path d="m256.026 52.962 4.86 4.86" style="fill:none;stroke:#000;stroke-width:8;stroke-linecap:round;stroke-linejoin:round;stroke-miterlimit:10"/><path d="m239.014 35.95 4.861 4.861" style="fill:none;stroke:#000;stroke-width:8;stroke-linecap:round;stroke-linejoin:round;stroke-miterlimit:10"/><path d="m256.026 40.811 4.86-4.861" style="fill:none;stroke:#000;stroke-width:8;stroke-linecap:round;stroke-linejoin:round;stroke-miterlimit:10"/><path d="m239.014 57.822 4.861-4.86" style="fill:none;stroke:#000;stroke-width:8;stroke-linecap:round;stroke-linejoin:round;stroke-miterlimit:10"/><circle cx="45.95" cy="36.886" r="4.099"/><circle cx="265.95" cy="104.886" r="4.099"/><circle cx="45.95" cy="84.886" r="8" style="fill:none;stroke:#000;stroke-width:8;stroke-linecap:round;stroke-linejoin:round;stroke-miterlimit:10"/></svg>