<svg id="dress_x5F_shoes" enable-background="new 0 0 300 300" height="512" viewBox="0 0 300 300" width="512" xmlns="http://www.w3.org/2000/svg"><path d="m265.365 211.384c.2-.878.11-1.823-.317-2.678-9.246-18.492-29.959-16.049-45.092-14.277-7.037.832-13.686 1.613-17.352.262-9.256-3.406-17.975-8.41-21.576-10.584-.748-9.033-5.887-17.193-13.787-21.662-15.486-8.764-36.18-15.703-37.053-15.994-1.438-.479-3.021-.105-4.094.967-4.799 4.799-9.604 9.168-14.279 12.986-11.018 9-24.898 12.711-38.041 10.182-14.314-2.752-19.648-10.223-19.848-10.508-.848-1.271-2.342-1.945-3.859-1.746-1.514.203-2.779 1.25-3.264 2.699l-5.859 17.576c-11.365 17.433-7.315 33.769-6.184 37.429l-.213 23.36c-.01 1.068.408 2.094 1.158 2.854.752.758 1.775 1.184 2.842 1.184h59.787c2.209 0 4-1.791 4-4v-6.576c11.422.852 43.453 3.613 65.77 9.209 4.523 1.135 9.219 1.846 14.355 2.17 3.867.244 8.486.432 13.609.432 18.242 0 42.857-2.357 62.455-12.785 7.096-3.775 10.16-12.637 6.977-20.174zm-44.473-9.01c16.164-1.9 28.41-2.488 35.188 6.893-7.35 4.535-27.662 15.303-54.857 15.303-17.684 0-34.34-3.301-50.449-6.492-12.097-2.397-24.502-4.841-37.542-5.979 1.931-5.704 7.272-9.653 13.487-9.653h38.354c6.616 0 12.307-4.027 14.76-9.757 4.634 2.655 12.047 6.58 20.008 9.511 5.462 2.01 12.682 1.158 21.051.174zm-172.99-19.785c.197-.295.354-.617.467-.953l3.98-11.939c3.936 3.15 10.352 6.906 19.914 8.744 15.488 2.98 31.754-1.334 44.613-11.842 4.301-3.512 8.695-7.459 13.09-11.76 1.847.653 4.688 1.685 8.081 3-.471 2.496-1.075 6.471-1.075 10.482 0 2.209 1.791 4 4 4s4-1.791 4-4c0-2.648.327-5.334.663-7.412 1.521.642 3.076 1.316 4.65 2.02-.479 2.334-1.262 6.833-1.262 11.416 0 2.209 1.791 4 4 4s4-1.791 4-4c0-2.856.378-5.747.74-7.878 1.897.953 3.761 1.933 5.537 2.938 6.059 3.428 9.822 9.939 9.822 16.99 0 4.438-3.611 8.049-8.051 8.049h-38.354c-10.419 0-19.221 7.137-21.583 17.129-2.105-.085-4.224-.14-6.366-.14h-56.928c-1.034-5.032-2.08-16.631 6.062-28.844zm206.865 42.23c-24.229 12.891-58.275 12.297-71.801 11.432-4.646-.293-8.871-.93-12.916-1.943-28.16-7.062-69.719-9.625-71.475-9.73-1.074-.057-2.18.324-2.982 1.08s-1.258 1.809-1.258 2.912v6.863h-51.75l.146-16h56.038c17.684 0 34.34 3.301 50.449 6.492 16.488 3.268 33.537 6.645 52.004 6.645 27.631 0 48.302-10.06 57.463-15.5.348 3.127-1.121 6.262-3.918 7.749z"/><path d="m204.67 88.989c.781.781 1.805 1.172 2.828 1.172s2.047-.391 2.828-1.172c1.562-1.562 1.562-4.094 0-5.656l-5.658-5.658c-1.562-1.562-4.094-1.562-5.656 0s-1.562 4.094 0 5.656z"/><path d="m184.871 69.19c.781.781 1.805 1.172 2.828 1.172s2.047-.391 2.828-1.172c1.562-1.562 1.562-4.094 0-5.656l-5.658-5.658c-1.562-1.562-4.094-1.562-5.656 0s-1.562 4.094 0 5.656z"/><path d="m201.84 70.362c1.023 0 2.047-.391 2.828-1.172l5.658-5.658c1.562-1.562 1.562-4.094 0-5.656s-4.094-1.562-5.656 0l-5.658 5.658c-1.562 1.562-1.562 4.094 0 5.656.781.782 1.804 1.172 2.828 1.172z"/><path d="m182.041 90.161c1.023 0 2.047-.391 2.828-1.172l5.658-5.658c1.562-1.562 1.562-4.094 0-5.656s-4.094-1.562-5.656 0l-5.658 5.658c-1.562 1.562-1.562 4.094 0 5.656.781.781 1.804 1.172 2.828 1.172z"/><path d="m70.769 63.532c2.264 0 4.099-1.835 4.099-4.099s-1.835-4.099-4.099-4.099-4.099 1.835-4.099 4.099 1.835 4.099 4.099 4.099z"/><path d="m262.769 63.532c2.264 0 4.099-1.835 4.099-4.099s-1.835-4.099-4.099-4.099-4.099 1.835-4.099 4.099 1.835 4.099 4.099 4.099z"/><path d="m242.769 171.432c6.617 0 12-5.383 12-12s-5.383-12-12-12-12 5.383-12 12 5.383 12 12 12zm0-16c2.205 0 4 1.795 4 4s-1.795 4-4 4-4-1.795-4-4 1.795-4 4-4z"/><path d="m70.769 103.432c0 6.617 5.383 12 12 12s12-5.383 12-12-5.383-12-12-12-12 5.383-12 12zm12-4c2.205 0 4 1.795 4 4s-1.795 4-4 4-4-1.795-4-4 1.795-4 4-4z"/></svg>