<svg id="shorts" enable-background="new 0 0 300 300" height="512" viewBox="0 0 300 300" width="512" xmlns="http://www.w3.org/2000/svg"><path d="m261.944 235.688-7.167-127.806c-.001-.037.017-.068.015-.104l-1.117-20c-.119-2.121-1.871-3.777-3.994-3.777h-.025-198.803-.607c-2.123 0-3.875 1.656-3.994 3.777l-8.295 147.91c-.002.038.018.073.017.111-.001.039-.022.072-.022.111v28.09c0 2.211 1.791 4 4 4h100c2.209 0 4-1.789 4-4v-27.249l3.83-9.845 4.17 9.898v27.196c0 2.211 1.791 4 4 4h100c2.209 0 4-1.789 4-4v-28.09c0-.04-.021-.072-.022-.111-.003-.038.017-.073.014-.111zm-108.021-19.552c.002-.048.027-.088.027-.136v-13.726c9.899-5.939 16-16.468 16-28.161v-62.113h24.925c3.159 10.631 16.173 44.128 54.728 46.503l4.116 73.407h-93.151zm-14.674 15.774h-93.068l4.116-73.396c27.032-1.663 41.505-18.614 48.828-32.282.212-.307.395-.619.516-.979 2.811-5.435 4.492-10.252 5.384-13.252h40.926v102.727c-.012.028-.034.049-.045.078zm-42.589-119.91c-.728 2.175-1.791 4.939-3.272 8h-31.438c-2.209 0-4 1.789-4 4v25.434c-2.277.49-4.675.846-7.203 1.045l2.158-38.479zm-7.867 16c-4.912 7.283-12.213 14.688-22.843 18.972v-18.972zm73.157-16v62.113c0 7.107-2.956 13.677-8 18.318v-80.431zm85.046 0 2.157 38.465c-30.972-2.392-42.456-27.67-45.962-38.465zm-1.122-20 .673 12h-24.597v-12zm-31.924 0v12h-4v-12zm-12 0v12h-12v-12zm-20 0v12h-4v-12zm-12 12h-16.584c2.727-.643 4.763-3.077 4.763-6s-2.036-5.357-4.763-6h16.584zm-19.415-12c-2.727.643-4.763 3.077-4.763 6s2.036 5.357 4.763 6h-16.585v-12zm-24.585 0v12h-4v-12zm-12 0v12h-16v-12zm-24 0v12h-4v-12zm-12 0v12h-23.986l.672-12zm-32 168v-20.086l92 .082v20.004zm116 0v-20.004l92-.082v20.086z"/><path d="m66.056 63.766c.781.781 1.807 1.172 2.83 1.172s2.047-.391 2.828-1.172c1.562-1.559 1.562-4.094.002-5.656l-4.859-4.863c-1.562-1.562-4.096-1.562-5.658 0-1.562 1.559-1.562 4.094-.002 5.656z"/><path d="m49.044 46.754c.781.781 1.807 1.172 2.83 1.172s2.047-.391 2.828-1.172c1.562-1.559 1.562-4.094.002-5.656l-4.859-4.863c-1.562-1.562-4.096-1.562-5.658 0-1.562 1.559-1.562 4.094-.002 5.656z"/><path d="m64.026 47.926c1.023 0 2.049-.391 2.83-1.172l4.859-4.863c1.561-1.562 1.561-4.098-.002-5.656-1.562-1.562-4.096-1.562-5.658 0l-4.859 4.863c-1.561 1.562-1.561 4.098.002 5.656.782.781 1.805 1.172 2.828 1.172z"/><path d="m47.015 64.938c1.023 0 2.049-.391 2.83-1.172l4.859-4.863c1.561-1.562 1.561-4.098-.002-5.656-1.562-1.562-4.096-1.562-5.658 0l-4.859 4.863c-1.561 1.562-1.561 4.098.002 5.656.781.781 1.804 1.172 2.828 1.172z"/><path d="m109.95 68.099c2.264 0 4.099-1.835 4.099-4.099s-1.835-4.1-4.099-4.1-4.099 1.836-4.099 4.1 1.835 4.099 4.099 4.099z"/><path d="m257.95 60.099c2.264 0 4.099-1.835 4.099-4.099s-1.835-4.1-4.099-4.1-4.099 1.836-4.099 4.1 1.835 4.099 4.099 4.099z"/><path d="m221.95 56c6.617 0 12-5.383 12-12s-5.383-12-12-12-12 5.383-12 12 5.383 12 12 12zm0-16c2.205 0 4 1.793 4 4s-1.795 4-4 4-4-1.793-4-4 1.795-4 4-4z"/></svg>