<svg id="mini_x5F_skirt" enable-background="new 0 0 300 300" height="512" viewBox="0 0 300 300" width="512" xmlns="http://www.w3.org/2000/svg"><path d="m56.944 59.915c.781.781 1.805 1.172 2.828 1.172s2.047-.391 2.828-1.172c1.563-1.562 1.563-4.094 0-5.656l-4.861-4.863c-1.562-1.562-4.094-1.562-5.656 0s-1.562 4.094 0 5.656z"/><path d="m39.93 42.904c.781.781 1.807 1.172 2.83 1.172s2.047-.391 2.828-1.172c1.562-1.559 1.562-4.094.002-5.656l-4.859-4.863c-1.562-1.562-4.096-1.562-5.658 0-1.562 1.559-1.562 4.094-.002 5.656z"/><path d="m54.91 44.076c1.023 0 2.049-.391 2.828-1.172l4.862-4.864c1.563-1.562 1.563-4.094 0-5.656-1.562-1.562-4.098-1.562-5.656 0l-4.861 4.863c-1.562 1.562-1.562 4.094 0 5.656.78.782 1.804 1.173 2.827 1.173z"/><path d="m45.588 49.396c-1.562-1.562-4.096-1.562-5.658 0l-4.859 4.863c-1.561 1.562-1.561 4.098.002 5.656.781.781 1.805 1.172 2.828 1.172s2.049-.391 2.83-1.172l4.859-4.863c1.561-1.562 1.561-4.097-.002-5.656z"/><path d="m116.836 44.249c2.264 0 4.099-1.835 4.099-4.099s-1.835-4.1-4.099-4.1-4.099 1.836-4.099 4.1 1.835 4.099 4.099 4.099z"/><path d="m44.737 112.15c0 2.264 1.835 4.099 4.099 4.099s4.099-1.835 4.099-4.099-1.835-4.1-4.099-4.1-4.099 1.836-4.099 4.1z"/><path d="m252.836 60.249c2.264 0 4.099-1.835 4.099-4.099s-1.835-4.1-4.099-4.1-4.099 1.836-4.099 4.1 1.835 4.099 4.099 4.099z"/><path d="m216.836 56.15c6.617 0 12-5.383 12-12s-5.383-12-12-12-12 5.383-12 12 5.383 12 12 12zm0-16c2.205 0 4 1.793 4 4s-1.795 4-4 4-4-1.793-4-4 1.795-4 4-4z"/><path d="m265.944 240.915-40.13-139.655c.169-.443.286-.913.286-1.415v-23.695c0-2.211-1.791-4-4-4h-20-12-68-12-24c-2.209 0-4 1.789-4 4v22.296c-.04.105-.121.183-.152.293l-40.854 142.176c-.275.953-.184 1.977.254 2.867.088.18 8.943 17.52 33.127 10.781 3.041 3.656 9.686 10.27 19.166 12.164 7.004 1.41 14.086-.008 21.113-4.18 9.178 5.344 25.971 10.562 38.764.617 5.273 4.098 11.225 5.621 17.043 5.617 8.299 0 16.326-3.094 21.721-6.234 7.023 4.172 14.109 5.59 21.115 4.18 9.48-1.895 16.125-8.508 19.166-12.164 24.199 6.77 33.037-10.602 33.127-10.781.437-.89.529-1.913.254-2.867zm-47.844-145.07h-12v-15.695h12zm-20-15.695v15.695h-4v-15.695zm-72 15.695v-15.695h60v15.695zm-8-15.695v15.695h-4v-15.695zm-28 0h16v15.695h-16zm-40.826 161.265 39.53-137.57h16.37l-31.993 142.737c-14.961 4.493-21.8-2.293-23.907-5.167zm45.994 17.481c-7.061-1.39-12.216-6.578-14.551-9.362l32.654-145.688h5.913l-7.116 150.868c-5.783 3.833-11.475 5.244-16.9 4.182zm24.833-2.573 7.192-152.478h22.807v151.662c-10.049 9.528-23.879 4.049-29.999.816zm37.936.14c.009-.109.063-.202.063-.313v-152.305h25.645l7.089 150.291c-.266.105-.534.206-.776.37-.81.542-19.089 12.575-32.021 1.957zm69.7-8.743c-.062.09-6.244 9.262-15.967 11.176-4.141.809-8.426.189-12.789-1.846l-7.226-153.205h7.052l30.809 142.386c-.745.295-1.414.787-1.879 1.489zm10.368-.089-31.112-143.786h11.241l39.53 137.574c-1.893 2.574-7.62 8.366-19.659 6.212z"/></svg>