<svg id="mini_x5F_skirt2" enable-background="new 0 0 300 300" height="512" viewBox="0 0 300 300" width="512" xmlns="http://www.w3.org/2000/svg"><path d="m240.458 79.454c-.002-.006.001-.013-.001-.02-3.496-13.07-6.477-20.219-6.602-20.516-.625-1.484-2.078-2.449-3.688-2.449h-121.704c-1.611 0-3.064.965-3.688 2.449-.125.301-3.105 7.445-6.6 20.516-.002.007.001.014-.001.02-.002.008-.009.014-.011.023-8.379 32.715-19.566 100.879-.373 189.836.398 1.84 2.025 3.156 3.91 3.156h85.916c1.906 0 3.547-1.348 3.922-3.215l11.582-57.918 11.586 57.918c.375 1.867 2.016 3.215 3.922 3.215h18.301c1.883 0 3.512-1.316 3.91-3.156 19.191-88.941 8.004-157.113-.371-189.836-.001-.009-.008-.015-.01-.023zm-129.251-14.985h116.219c.875 2.375 2.281 6.434 3.898 12h-124.017c1.617-5.567 3.025-9.625 3.9-12zm122.485 200h-11.785l-14.863-74.316c-.375-1.867-2.016-3.215-3.922-3.215s-3.547 1.348-3.922 3.215l-14.863 74.316h-79.395c-17.382-83.252-7.751-147.352.239-180h28.919c-7.347 13.43-10.952 25.558-10.679 36.102.055 2.176 1.834 3.898 3.996 3.898h.105c2.209-.059 3.953-1.895 3.895-4.102-.26-10.077 3.76-22.156 11.891-35.898h52.222c8.134 13.743 12.152 25.825 11.889 35.895-.055 2.211 1.688 4.047 3.895 4.105h.109c2.16 0 3.938-1.723 3.996-3.895.274-10.544-3.33-22.675-10.68-36.105h28.714c7.988 32.655 17.617 96.759.239 180z"/><path d="m55.524 56.234c.781.781 1.807 1.172 2.83 1.172s2.047-.391 2.828-1.172c1.562-1.559 1.562-4.094.002-5.656l-4.859-4.863c-1.562-1.562-4.096-1.562-5.658 0-1.562 1.559-1.562 4.094-.002 5.656z"/><path d="m38.512 39.223c.781.781 1.807 1.172 2.83 1.172s2.047-.391 2.828-1.172c1.562-1.559 1.562-4.094.002-5.656l-4.859-4.863c-1.562-1.562-4.096-1.562-5.658 0-1.562 1.559-1.562 4.094-.002 5.656z"/><path d="m53.494 40.395c1.023 0 2.049-.391 2.83-1.172l4.859-4.863c1.561-1.562 1.561-4.098-.002-5.656-1.562-1.562-4.096-1.562-5.658 0l-4.859 4.863c-1.561 1.562-1.561 4.098.002 5.656.782.781 1.805 1.172 2.828 1.172z"/><path d="m44.17 45.715c-1.562-1.562-4.096-1.562-5.658 0l-4.859 4.863c-1.561 1.562-1.561 4.098.002 5.656.781.781 1.805 1.172 2.828 1.172s2.049-.391 2.83-1.172l4.859-4.863c1.561-1.562 1.561-4.098-.002-5.656z"/><path d="m107.418 40.568c2.264 0 4.099-1.835 4.099-4.099s-1.835-4.1-4.099-4.1-4.099 1.836-4.099 4.1 1.835 4.099 4.099 4.099z"/><path d="m263.418 92.369c-2.264 0-4.099 1.836-4.099 4.1s1.835 4.099 4.099 4.099 4.099-1.835 4.099-4.099-1.835-4.1-4.099-4.1z"/><path d="m43.418 112.369c-2.264 0-4.099 1.836-4.099 4.1s1.835 4.099 4.099 4.099 4.099-1.835 4.099-4.099-1.835-4.1-4.099-4.1z"/><path d="m59.418 164.469c-6.617 0-12 5.383-12 12s5.383 12 12 12 12-5.383 12-12-5.383-12-12-12zm0 16c-2.205 0-4-1.793-4-4s1.795-4 4-4 4 1.793 4 4-1.795 4-4 4z"/><path d="m267.418 40.469c0-6.617-5.383-12-12-12s-12 5.383-12 12 5.383 12 12 12 12-5.383 12-12zm-12 4c-2.207 0-4-1.793-4-4s1.793-4 4-4 4 1.793 4 4-1.793 4-4 4z"/></svg>