<svg id="sneakers_x5F_men" enable-background="new 0 0 300 300" height="512" viewBox="0 0 300 300" width="512" xmlns="http://www.w3.org/2000/svg"><path d="m201.776 93.606c.781.781 1.805 1.172 2.828 1.172s2.047-.391 2.828-1.172c1.562-1.562 1.562-4.094 0-5.656l-5.658-5.658c-1.562-1.562-4.094-1.562-5.656 0s-1.562 4.094 0 5.656z"/><path d="m181.978 73.807c.781.781 1.805 1.172 2.828 1.172s2.047-.391 2.828-1.172c1.562-1.562 1.562-4.094 0-5.656l-5.658-5.658c-1.562-1.562-4.094-1.562-5.656 0s-1.562 4.094 0 5.656z"/><path d="m198.946 74.979c1.023 0 2.047-.391 2.828-1.172l5.658-5.658c1.562-1.562 1.562-4.094 0-5.656s-4.094-1.562-5.656 0l-5.658 5.658c-1.562 1.562-1.562 4.094 0 5.656.781.782 1.805 1.172 2.828 1.172z"/><path d="m179.147 94.778c1.023 0 2.047-.391 2.828-1.172l5.658-5.658c1.562-1.562 1.562-4.094 0-5.656s-4.094-1.562-5.656 0l-5.658 5.658c-1.562 1.562-1.562 4.094 0 5.656.782.782 1.805 1.172 2.828 1.172z"/><path d="m67.876 68.149c2.264 0 4.099-1.835 4.099-4.099s-1.835-4.099-4.099-4.099-4.099 1.835-4.099 4.099 1.835 4.099 4.099 4.099z"/><path d="m259.876 68.149c2.264 0 4.099-1.835 4.099-4.099s-1.835-4.099-4.099-4.099-4.099 1.835-4.099 4.099 1.835 4.099 4.099 4.099z"/><path d="m239.876 176.05c6.617 0 12-5.383 12-12s-5.383-12-12-12-12 5.383-12 12 5.383 12 12 12zm0-16c2.205 0 4 1.795 4 4s-1.795 4-4 4-4-1.795-4-4 1.795-4 4-4z"/><path d="m67.876 108.05c0 6.617 5.383 12 12 12s12-5.383 12-12-5.383-12-12-12-12 5.382-12 12zm12-4c2.205 0 4 1.795 4 4s-1.795 4-4 4-4-1.795-4-4 1.795-4 4-4z"/><path d="m261.702 207.876c-21.707-11.137-48.262-17.341-53.823-18.567-18.963-18.559-64.567-36.238-66.53-36.991-1.301-.504-2.77-.289-3.875.562l-18.52 14.25c-2.834 2.18-6.363 3.381-9.938 3.381h-17.087c-22.387 0-39.562-11.496-39.732-11.611-1.604-1.088-3.762-.875-5.117.512-3.426 3.512-6.092 8.344-7.92 14.359-2.953 9.699-3.823 22.564-2.596 38.234-.648 12.627 3.346 24.796 3.518 25.311.545 1.633 2.072 2.734 3.795 2.734h193.541c14.59 0 26.459-11.869 26.459-26.459v-.908-1.248c-.001-1.501-.841-2.876-2.175-3.559zm-54.73-10.572c5.718 1.292 24.146 5.757 41.808 13.345-32.158 4.788-80.617 3.435-102.227 2.502 3.281-5.514 9.235-9.101 15.887-9.101h20.916c8.36 0 16.517-2.34 23.616-6.746zm-156.155-29.881c6.371 3.629 21.822 11.088 41.111 11.088h17.088c5.33 0 10.592-1.791 14.816-5.041l16.719-12.863c2.322.934 6.467 2.645 11.566 4.899-1.828 1.777-4.423 4.495-6.619 7.575-1.281 1.799-.863 4.297.936 5.58.705.502 1.516.742 2.318.742 1.25 0 2.48-.584 3.262-1.678 3.156-4.432 7.553-8.23 7.598-8.268.133-.114.196-.271.31-.398 1.036.485 2.076.975 3.146 1.489-1.698 1.725-3.77 4.009-5.569 6.532-1.281 1.799-.863 4.297.936 5.58.705.502 1.516.742 2.318.742 1.25 0 2.48-.584 3.262-1.678 2.278-3.199 5.18-6.045 6.648-7.407 1.013.52 2.027 1.054 3.043 1.592-1.795 1.775-4.171 4.314-6.207 7.171-1.281 1.799-.863 4.297.936 5.58.705.502 1.516.742 2.318.742 1.25 0 2.48-.584 3.262-1.678 2.515-3.531 5.782-6.627 7.043-7.771 6.841 3.93 13.318 8.154 18.326 12.423-4.982 2.412-10.453 3.672-16.027 3.672h-20.917c-10.939 0-20.648 6.715-24.637 16.682-1.184-.064-2.016-.115-2.453-.141-8.844-2.139-25.049-3.568-48.203-4.256-6.945-24.201-26.914-33.088-38.863-36.283.75-1.733 1.596-3.278 2.533-4.627zm27.85 40.702c-13.469-.276-26.134-.271-34.369-.218-.646-11.096-.098-20.7 1.584-28.21 9.821 2.567 26.209 9.6 32.785 28.428zm158.75 23.925h-190.531c-.894-3.407-2.23-9.586-2.371-16.146 9.267-.062 24.05-.055 39.269.339 24.246.635 41.533 2.086 49.994 4.199.234.059.475.096.719.111 0 0 2.162.137 5.941.324 8.676.434 26.656 1.184 47.006 1.184 23.001 0 48.941-.988 67.959-4.443-1.847 8.242-9.195 14.432-17.986 14.432z"/></svg>