<svg id="UGGS" enable-background="new 0 0 300 300" height="512" viewBox="0 0 300 300" width="512" xmlns="http://www.w3.org/2000/svg"><path d="m204.044 75.606c.781.781 1.805 1.172 2.828 1.172s2.047-.391 2.828-1.172c1.562-1.561 1.562-4.094 0-5.656l-5.656-5.658c-1.562-1.562-4.094-1.562-5.656 0-1.562 1.561-1.562 4.094 0 5.656z"/><path d="m184.247 55.807c.781.781 1.805 1.172 2.828 1.172s2.047-.391 2.828-1.172c1.562-1.561 1.562-4.094 0-5.656l-5.656-5.658c-1.562-1.562-4.094-1.562-5.656 0-1.562 1.561-1.562 4.094 0 5.656z"/><path d="m201.216 56.979c1.023 0 2.047-.391 2.828-1.172l5.656-5.658c1.562-1.562 1.562-4.096 0-5.656-1.562-1.562-4.094-1.562-5.656 0l-5.656 5.658c-1.562 1.562-1.562 4.096 0 5.656.781.782 1.804 1.172 2.828 1.172z"/><path d="m181.419 76.778c1.023 0 2.047-.391 2.828-1.172l5.656-5.658c1.562-1.562 1.562-4.096 0-5.656-1.562-1.562-4.094-1.562-5.656 0l-5.656 5.658c-1.562 1.562-1.562 4.096 0 5.656.781.782 1.804 1.172 2.828 1.172z"/><path d="m262.145 50.149c2.264 0 4.099-1.835 4.099-4.099s-1.835-4.099-4.099-4.099-4.099 1.835-4.099 4.099 1.835 4.099 4.099 4.099z"/><path d="m242.145 158.05c6.617 0 12-5.383 12-12s-5.383-12-12-12-12 5.383-12 12 5.383 12 12 12zm0-16c2.207 0 4 1.795 4 4s-1.793 4-4 4-4-1.795-4-4 1.793-4 4-4z"/><path d="m265.575 218.638c-18.82-31.293-95.469-54.883-111.797-59.611v-104.977c0-2.207-1.789-3.998-3.996-4l-108.258-.114h-.004c-1.785 0-3.355 1.184-3.844 2.898-8.496 29.662-1.598 59.1 5.684 78.572 3.666 9.809 5.993 19.956 6.98 30.284-.068.334-.165.66-.144 1.016.027.465.166.888.33 1.293.227 2.988.365 5.987.365 9 0 7.512-2.004 14.93-5.793 21.455-5.777 9.959-7.465 19.16-5.008 27.352.995 3.325 2.586 6.015 4.3 8.242h-2.246c-2.211 0-4 1.791-4 4v20c0 2.209 1.789 4 4 4h164.27c14.734 0 28.91-2.23 42.137-6.629 12.164-4.045 15.812-7.275 16.418-7.881.754-.75 1.176-1.77 1.176-2.832v-18.275c0-.295-.051-.581-.114-.862.218-.967.095-2.014-.456-2.931zm-8.32 1.956-1.137.64c-10.262 5.768-21.91 8.816-33.684 8.816h-104.289v-26.287c7.668-2.708 26.51-11.815 33.473-37.023 15.186 4.448 86.204 26.447 105.637 53.854zm-111.477-61.823c-.396.488-.717 1.041-.848 1.7-4.425 22.123-18.865 31.266-26.785 34.7v-51.789l19.258 3.63c.246.045.496.068.742.068.926 0 1.828-.32 2.555-.92.914-.762 1.445-1.889 1.445-3.08v-14.062c0-1.191-.531-2.318-1.445-3.08-.922-.76-2.125-1.068-3.297-.852l-19.258 3.63v-21.333l19.258 3.63c.246.045.496.068.742.068.926 0 1.828-.32 2.555-.92.914-.762 1.445-1.889 1.445-3.08v-14.063c0-1.191-.531-2.318-1.445-3.08-.922-.76-2.125-1.072-3.297-.852l-19.258 3.63v-34.699l27.633.029zm-23.344-22.721 11.711-2.207v4.414zm0-36 11.711-2.207v4.414zm-77.847-42.11 65.559.068v34.708l-19.258-3.63c-1.176-.217-2.379.092-3.297.852-.914.762-1.445 1.889-1.445 3.08v14.062c0 1.191.531 2.318 1.445 3.08.727.6 1.629.92 2.555.92.246 0 .496-.023.742-.068l19.258-3.63v21.333l-19.258-3.63c-1.176-.213-2.379.094-3.297.852-.914.762-1.445 1.889-1.445 3.08v14.062c0 1.191.531 2.318 1.445 3.08.727.6 1.629.92 2.555.92.246 0 .496-.023.742-.068l19.258-3.63v65.652c-5.666-.321-19.774-3.071-24.488-21.919-5.547-22.195-20.348-27.203-27.593-28.32-1.159-10.287-3.55-20.398-7.212-30.19-6.618-17.701-12.923-44.072-6.266-70.664zm61.269 42.11-11.711 2.207v-4.414zm0 36-11.711 2.207v-4.414zm-58.133 83.363c-1.75-5.969-.305-13.014 4.297-20.939 4.496-7.744 6.871-16.551 6.871-25.473 0-2.008-.054-4.01-.148-6.008 5.606 1.339 15.143 6.004 19.156 22.064 5.979 23.931 24.896 27.457 32.246 27.912v13.08h-54.147c-1.742-1.09-6.481-4.516-8.275-10.636zm210.422 19.24c-1.703 1.037-5.328 2.918-12.117 5.178-12.41 4.127-25.738 6.219-39.613 6.219h-160.27v-12h176.289c12.426 0 24.727-3.041 35.711-8.814z"/></svg>