<svg id="socks" enable-background="new 0 0 300 300" height="512" viewBox="0 0 300 300" width="512" xmlns="http://www.w3.org/2000/svg"><path d="m166.309 221.115-.293-.375c-.277-.363-.562-.727-.883-1.066l-31.664-39.555v-62.598-24c0-2.211-1.789-4-4-4h-44c-2.211 0-4 1.789-4 4v24 43.188l-10.281 17.434c-.07.121-.137.246-.195.375-4.973 10.938-2.605 23.996 5.891 32.488l48.273 48.273c.391.391.812.727 1.242 1.051l.375.297c.004.003.009.004.013.008 5.281 4.536 11.837 6.781 18.37 6.781 7.211 0 14.395-2.73 19.797-8.137 10.3-10.296 10.893-27.054 1.36-38.156-.003-.002-.003-.005-.005-.008zm-76.84-123.594h36v16h-36zm-11.278 84.493 5.64-9.564c5.937 3.58 9.638 9.962 9.638 17.072 0 7.059-3.729 13.504-9.666 17.092l-1.263-1.264c-6.102-6.102-7.837-15.457-4.349-23.336zm11.353 30.34c7.355-5.179 11.925-13.617 11.925-22.833 0-9.99-5.213-18.961-13.575-23.961l1.021-1.73c.363-.613.555-1.316.555-2.031v-40.277h36v60c0 .91.309 1.789.879 2.5l31.551 39.41-28.637 28.641zm69.753 41.269c-6.313 6.31-16.01 7.473-23.66 3.386l27.042-27.046c4.091 7.65 2.927 17.35-3.382 23.66z"/><path d="m254.309 181.115-.293-.375c-.277-.363-.562-.727-.883-1.066l-31.664-39.555v-62.598-24c0-2.211-1.789-4-4-4h-44c-2.211 0-4 1.789-4 4v24 43.188l-10.281 17.434c-.07.121-.137.246-.195.375-4.973 10.938-2.605 23.996 5.891 32.488l48.273 48.273c.391.391.812.727 1.242 1.051l.375.297c.004.003.009.004.013.008 5.281 4.536 11.837 6.781 18.37 6.781 7.211 0 14.395-2.73 19.797-8.137 10.3-10.296 10.893-27.054 1.36-38.156-.003-.002-.003-.005-.005-.008zm-76.84-123.594h36v16h-36zm-11.278 84.493 5.64-9.564c5.937 3.58 9.638 9.962 9.638 17.072 0 7.059-3.729 13.504-9.666 17.092l-1.263-1.264c-6.102-6.102-7.837-15.457-4.349-23.336zm11.353 30.34c7.355-5.179 11.925-13.617 11.925-22.833 0-9.99-5.213-18.961-13.575-23.961l1.021-1.73c.363-.613.555-1.316.555-2.031v-40.278h36v60c0 .91.309 1.789.879 2.5l31.551 39.41-28.637 28.641zm69.753 41.269c-6.313 6.31-16.008 7.473-23.659 3.385l27.042-27.045c4.09 7.65 2.926 17.35-3.383 23.66z"/><path d="m62.371 50.768c-1.562-1.562-4.094-1.562-5.656 0s-1.562 4.094 0 5.656l4.863 4.863c.781.781 1.805 1.172 2.828 1.172s2.047-.391 2.828-1.172c1.562-1.562 1.562-4.094 0-5.656z"/><path d="m44.566 44.275c.781.781 1.805 1.172 2.828 1.172s2.047-.391 2.828-1.172c1.562-1.562 1.562-4.094 0-5.656l-4.863-4.863c-1.562-1.562-4.094-1.562-5.656 0s-1.562 4.094 0 5.656z"/><path d="m61.578 33.756-4.863 4.863c-1.562 1.562-1.562 4.094 0 5.656.781.781 1.805 1.172 2.828 1.172s2.047-.391 2.828-1.172l4.863-4.863c1.562-1.562 1.562-4.094 0-5.656s-4.093-1.563-5.656 0z"/><path d="m50.223 50.768c-1.562-1.562-4.094-1.562-5.656 0l-4.863 4.863c-1.562 1.562-1.562 4.094 0 5.656.781.781 1.805 1.172 2.828 1.172s2.047-.391 2.828-1.172l4.863-4.863c1.562-1.563 1.562-4.094 0-5.656z"/><path d="m125.469 53.621c2.264 0 4.099-1.835 4.099-4.099s-1.835-4.1-4.099-4.1-4.099 1.836-4.099 4.1 1.835 4.099 4.099 4.099z"/><path d="m253.469 57.621c2.264 0 4.099-1.835 4.099-4.099s-1.835-4.1-4.099-4.1-4.099 1.836-4.099 4.1 1.835 4.099 4.099 4.099z"/><path d="m49.469 109.422c-2.264 0-4.099 1.836-4.099 4.1s1.835 4.099 4.099 4.099 4.099-1.835 4.099-4.099-1.835-4.1-4.099-4.1z"/><path d="m249.469 125.521c6.617 0 12-5.383 12-12s-5.383-12-12-12-12 5.383-12 12 5.383 12 12 12zm0-16c2.207 0 4 1.793 4 4s-1.793 4-4 4-4-1.793-4-4 1.793-4 4-4z"/></svg>