<svg id="sports_x5F_bra" enable-background="new 0 0 300 300" height="512" viewBox="0 0 300 300" width="512" xmlns="http://www.w3.org/2000/svg"><path d="m263.488 53.715c-1.562-1.562-4.096-1.562-5.658 0-1.562 1.559-1.562 4.094-.002 5.656l4.859 4.863c.781.781 1.807 1.172 2.83 1.172s2.047-.391 2.828-1.172c1.562-1.559 1.562-4.094.002-5.656z"/><path d="m245.676 47.223c.781.781 1.807 1.172 2.83 1.172s2.047-.391 2.828-1.172c1.562-1.559 1.562-4.094.002-5.656l-4.859-4.863c-1.562-1.562-4.096-1.562-5.658 0-1.562 1.559-1.562 4.094-.002 5.656z"/><path d="m260.658 48.395c1.023 0 2.049-.391 2.83-1.172l4.859-4.863c1.561-1.562 1.561-4.098-.002-5.656-1.562-1.562-4.096-1.562-5.658 0l-4.859 4.863c-1.561 1.562-1.561 4.098.002 5.656.781.781 1.805 1.172 2.828 1.172z"/><path d="m243.646 65.406c1.023 0 2.049-.391 2.83-1.172l4.859-4.863c1.561-1.562 1.561-4.098-.002-5.656-1.562-1.562-4.096-1.562-5.658 0l-4.859 4.863c-1.561 1.562-1.561 4.098.002 5.656.781.782 1.805 1.172 2.828 1.172z"/><path d="m158.582 108.568c2.264 0 4.099-1.835 4.099-4.099s-1.835-4.1-4.099-4.1-4.099 1.836-4.099 4.1 1.835 4.099 4.099 4.099z"/><path d="m34.582 52.369c-2.264 0-4.099 1.836-4.099 4.1s1.835 4.099 4.099 4.099 4.099-1.835 4.099-4.099-1.835-4.1-4.099-4.1z"/><path d="m98.582 68.469c6.617 0 12-5.383 12-12s-5.383-12-12-12-12 5.383-12 12 5.383 12 12 12zm0-16c2.205 0 4 1.793 4 4s-1.795 4-4 4-4-1.793-4-4 1.795-4 4-4z"/><path d="m255.676 199.496-9.652-16.094c-4.869-8.121-7.441-17.418-7.441-26.879v-64.054c0-2.211-1.791-4-4-4h-20c-2.209 0-4 1.789-4 4v15.59c0 32.496-26.438 58.934-58.936 58.934h-2.129c-32.498 0-58.936-26.438-58.936-58.934v-15.59c0-2.211-1.791-4-4-4h-20c-2.209 0-4 1.789-4 4v64.055c0 9.461-2.572 18.758-7.439 26.875l-9.654 16.098c-.488.812-.672 1.773-.518 2.707l6.395 38.912v.002l3.287 20c.318 1.934 1.988 3.352 3.947 3.352h183.965c1.959 0 3.629-1.418 3.947-3.352l3.287-20c0-.001 0-.001 0-.002l6.395-38.912c.153-.934-.03-1.895-.518-2.708zm-193.672-11.984c5.611-9.359 8.578-20.078 8.578-30.988v-60.055h12v11.59c0 36.906 30.027 66.934 66.936 66.934h2.129c36.908 0 66.936-30.027 66.936-66.934v-11.59h12v60.055c0 10.91 2.967 21.629 8.58 30.992l8.898 14.84-5.606 34.113h-183.746l-5.606-34.113zm-.008 68.957-1.972-12h181.116l-1.972 12z"/><circle cx="150.582" cy="188.469" r="4"/><circle cx="150.582" cy="200.469" r="4"/></svg>