<svg id="glasses" enable-background="new 0 0 300 300" height="512" viewBox="0 0 300 300" width="512" xmlns="http://www.w3.org/2000/svg"><path d="m266 144.172v-25.195c0-1.406-.738-2.707-1.941-3.43-43.215-25.926-83.191-4.914-98.375 5.328-9.234 6.234-22.129 6.234-31.371 0-15.184-10.238-55.176-31.254-98.371-5.328-1.204.723-1.942 2.023-1.942 3.43v25.195c0 19.953 10.01 37.589 25.249 48.225l-8.722 15.259c-.707 1.238-.703 2.758.012 3.992.719 1.234 2.035 1.992 3.461 1.992h16c1.516 0 2.898-.855 3.578-2.211l5.117-10.235c4.528 1.122 9.236 1.782 14.105 1.782 25.527 0 46.906-19.137 49.727-44.512.219-1.988 1.895-3.488 3.898-3.488h7.148c2.004 0 3.68 1.5 3.898 3.488 2.82 25.375 24.199 44.512 49.727 44.512 4.875 0 9.586-.662 14.119-1.785.01.021.007.045.018.066l5.086 10.172c.68 1.355 2.062 2.211 3.578 2.211h16c1.426 0 2.742-.758 3.461-1.992.715-1.234.719-2.754.012-3.992l-8.722-15.259c15.24-10.636 25.25-28.272 25.25-48.225zm-198.473 61.469h-6.633l5.221-9.136c1.584.812 3.203 1.56 4.866 2.227zm171.578 0h-6.633l-3.454-6.909c1.663-.667 3.282-1.416 4.866-2.227zm-31.906-10.664c-21.445 0-39.406-16.078-41.773-37.395-.672-6.047-5.766-10.605-11.852-10.605h-7.148c-6.086 0-11.18 4.559-11.852 10.605-2.367 21.316-20.328 37.395-41.773 37.395-28.012 0-50.801-22.789-50.801-50.805v-22.898c38.523-21.793 74.156-2.988 87.84 6.234 11.898 8.023 28.426 8.023 40.316 0 13.691-9.23 49.312-28.023 87.844-6.234v22.898c0 28.016-22.789 50.805-50.801 50.805z"/><path d="m210.52 117.574c-20.137 2.906-40.52 15.379-40.52 33.598 0 10.254 5.336 21.422 13.93 29.145 6.965 6.258 15.375 9.598 24.012 9.598 1.188 0 2.379-.062 3.574-.191 26.984-2.879 40.668-20.836 40.668-53.371 0-5.617-1.977-10.18-5.879-13.559-8.496-7.356-24.157-6.896-35.785-5.22zm.144 64.196c-9.742 1.02-16.996-3.453-21.387-7.402-6.851-6.157-11.277-15.263-11.277-23.196 0-13.035 17.113-23.293 33.66-25.68 4.395-.633 8.473-.945 12.141-.945 7.949 0 14 1.465 17.266 4.293 2.098 1.816 3.117 4.273 3.117 7.512 0 28.543-10.653 42.976-33.52 45.418z"/><path d="m89.48 117.578c-11.633-1.684-27.289-2.141-35.785 5.215-3.902 3.379-5.879 7.941-5.879 13.559 0 32.535 13.684 50.492 40.668 53.371 1.195.129 2.387.191 3.574.191 8.637 0 17.047-3.34 24.012-9.598 8.594-7.723 13.93-18.891 13.93-29.145 0-18.218-20.383-30.691-40.52-33.593zm21.243 56.789c-4.395 3.949-11.645 8.426-21.387 7.402-22.867-2.441-33.52-16.875-33.52-45.418 0-3.238 1.02-5.695 3.117-7.512 3.266-2.828 9.312-4.293 17.266-4.293 3.668 0 7.746.312 12.141.949 16.547 2.383 33.66 12.641 33.66 25.676 0 7.934-4.426 17.04-11.277 23.196z"/><path d="m254.109 67.766c.781.781 1.805 1.172 2.828 1.172s2.047-.391 2.828-1.172c1.562-1.562 1.562-4.094 0-5.656l-4.863-4.863c-1.562-1.562-4.094-1.562-5.656 0s-1.562 4.094 0 5.656z"/><path d="m237.098 50.754c.781.781 1.805 1.172 2.828 1.172s2.047-.391 2.828-1.172c1.562-1.562 1.562-4.094 0-5.656l-4.863-4.863c-1.562-1.562-4.094-1.562-5.656 0s-1.562 4.094 0 5.656z"/><path d="m252.074 51.926c1.023 0 2.047-.391 2.828-1.172l4.863-4.863c1.562-1.562 1.562-4.094 0-5.656s-4.094-1.562-5.656 0l-4.863 4.863c-1.562 1.562-1.562 4.094 0 5.656.781.781 1.805 1.172 2.828 1.172z"/><path d="m235.062 68.938c1.023 0 2.047-.391 2.828-1.172l4.863-4.863c1.562-1.562 1.562-4.094 0-5.656s-4.094-1.562-5.656 0l-4.863 4.863c-1.562 1.562-1.562 4.094 0 5.656.782.781 1.805 1.172 2.828 1.172z"/><path d="m94.902 249.246c-1.562-1.562-4.094-1.562-5.656 0s-1.562 4.094 0 5.656l4.863 4.863c.781.781 1.805 1.172 2.828 1.172s2.047-.391 2.828-1.172c1.562-1.562 1.562-4.094 0-5.656z"/><path d="m77.891 232.234c-1.562-1.562-4.094-1.562-5.656 0s-1.562 4.094 0 5.656l4.863 4.863c.781.781 1.805 1.172 2.828 1.172s2.047-.391 2.828-1.172c1.562-1.562 1.562-4.094 0-5.656z"/><path d="m94.109 232.234-4.863 4.863c-1.562 1.562-1.562 4.094 0 5.656.781.781 1.805 1.172 2.828 1.172s2.047-.391 2.828-1.172l4.863-4.863c1.562-1.562 1.562-4.094 0-5.656s-4.093-1.562-5.656 0z"/><path d="m77.098 249.246-4.863 4.863c-1.562 1.562-1.562 4.094 0 5.656.781.781 1.805 1.172 2.828 1.172s2.047-.391 2.828-1.172l4.863-4.863c1.562-1.562 1.562-4.094 0-5.656s-4.094-1.562-5.656 0z"/><path d="m110 84.099c2.264 0 4.1-1.835 4.1-4.099s-1.836-4.1-4.1-4.1-4.1 1.836-4.1 4.1 1.836 4.099 4.1 4.099z"/><path d="m162 52.099c2.264 0 4.1-1.835 4.1-4.099s-1.836-4.1-4.1-4.1-4.1 1.836-4.1 4.1 1.836 4.099 4.1 4.099z"/><path d="m230 235.9c-2.264 0-4.1 1.836-4.1 4.1s1.836 4.099 4.1 4.099 4.1-1.835 4.1-4.099-1.836-4.1-4.1-4.1z"/><path d="m142 203.9c-2.264 0-4.1 1.836-4.1 4.1s1.836 4.099 4.1 4.099 4.1-1.835 4.1-4.099-1.836-4.1-4.1-4.1z"/><path d="m54 88c6.617 0 12-5.383 12-12s-5.383-12-12-12-12 5.383-12 12 5.383 12 12 12zm0-16c2.207 0 4 1.793 4 4s-1.793 4-4 4-4-1.793-4-4 1.793-4 4-4z"/><path d="m182 232c-6.617 0-12 5.383-12 12s5.383 12 12 12 12-5.383 12-12-5.383-12-12-12zm0 16c-2.207 0-4-1.793-4-4s1.793-4 4-4 4 1.793 4 4-1.793 4-4 4z"/></svg>