<svg id="sweater" enable-background="new 0 0 300 300" height="512" viewBox="0 0 300 300" width="512" xmlns="http://www.w3.org/2000/svg"><path d="m183.95 46.468h-68c-2.209 0-4-1.791-4-4s1.791-4 4-4h68c2.209 0 4 1.791 4 4s-1.791 4-4 4z"/><path d="m206.214 254.468h-110.546c-1.218 0-2.369-.555-3.128-1.507-28.25-35.438-21.879-176.943-21.595-182.949.06-1.267.717-2.43 1.771-3.135l41.455-27.733c1.59-1.063 3.708-.852 5.058.501l14.455 14.506c4.609 4.625 10.737 7.173 17.255 7.173 6.519 0 12.647-2.547 17.259-7.174l14.455-14.506c1.299-1.305 3.32-1.554 4.897-.603l46.464 28c1.186.714 1.917 1.99 1.936 3.374.078 5.993 1.594 147.168-26.608 182.545-.759.953-1.91 1.508-3.128 1.508zm-108.544-8h106.546c23.497-33.262 23.833-155.678 23.751-173.73l-41.86-25.226-12.242 12.286c-6.123 6.144-14.264 9.527-22.924 9.527h-.001c-8.66 0-16.8-3.383-22.921-9.527l-12.132-12.175-37.034 24.773c-.675 17.295-4.604 140.724 18.817 174.072z"/><path d="m207.95 270.468h-112c-2.209 0-4-1.791-4-4v-16c0-2.209 1.791-4 4-4h112c2.209 0 4 1.791 4 4v16c0 2.209-1.791 4-4 4zm-108-8h104v-8h-104z"/><path d="m266.886 63.404c-1.024 0-2.048-.391-2.829-1.172l-4.859-4.861c-1.562-1.563-1.562-4.095.001-5.657 1.563-1.561 4.096-1.561 5.657.001l4.859 4.861c1.562 1.563 1.562 4.095-.001 5.657-.781.78-1.805 1.171-2.828 1.171z"/><path d="m249.875 46.392c-1.023 0-2.047-.39-2.828-1.171l-4.861-4.86c-1.563-1.562-1.563-4.094-.001-5.657 1.563-1.563 4.095-1.563 5.657 0l4.861 4.86c1.563 1.562 1.563 4.094.001 5.657-.781.78-1.806 1.171-2.829 1.171z"/><path d="m262.026 46.392c-1.023 0-2.047-.391-2.828-1.171-1.563-1.562-1.563-4.095 0-5.657l4.859-4.86c1.561-1.563 4.094-1.562 5.656 0 1.563 1.562 1.563 4.095 0 5.657l-4.859 4.86c-.78.78-1.804 1.171-2.828 1.171z"/><path d="m245.014 63.404c-1.023 0-2.048-.391-2.828-1.172-1.563-1.562-1.563-4.095 0-5.657l4.861-4.861c1.563-1.562 4.096-1.562 5.656 0 1.563 1.562 1.563 4.095 0 5.657l-4.861 4.861c-.781.781-1.805 1.172-2.828 1.172z"/><circle cx="267.95" cy="102.468" r="4.099"/><circle cx="67.95" cy="42.468" r="4.099"/><path d="m43.95 86.468c-6.617 0-12-5.383-12-12s5.383-12 12-12 12 5.383 12 12-5.383 12-12 12zm0-16c-2.206 0-4 1.794-4 4s1.794 4 4 4 4-1.794 4-4-1.794-4-4-4z"/><path d="m187.95 114.468c-1.023 0-2.048-.391-2.828-1.171l-8-8c-1.563-1.563-1.563-4.095 0-5.657 1.561-1.562 4.096-1.562 5.656 0l5.172 5.172 5.172-5.172c1.561-1.562 4.096-1.562 5.656 0 1.563 1.563 1.563 4.095 0 5.657l-8 8c-.78.78-1.804 1.171-2.828 1.171z"/><path d="m195.95 122.468c-1.023 0-2.048-.391-2.828-1.171l-5.172-5.172-5.172 5.172c-1.561 1.562-4.096 1.562-5.656 0-1.563-1.563-1.563-4.095 0-5.657l8-8c1.561-1.562 4.096-1.562 5.656 0l8 8c1.563 1.563 1.563 4.095 0 5.657-.78.78-1.804 1.171-2.828 1.171z"/><path d="m119.95 114.468c-1.024 0-2.047-.391-2.829-1.171l-8-8c-1.562-1.563-1.562-4.095 0-5.657 1.563-1.562 4.095-1.562 5.657 0l5.171 5.172 5.171-5.172c1.563-1.562 4.095-1.562 5.657 0 1.562 1.563 1.562 4.095 0 5.657l-8 8c-.779.78-1.803 1.171-2.827 1.171z"/><path d="m127.95 122.468c-1.024 0-2.047-.391-2.829-1.171l-5.171-5.172-5.171 5.172c-1.563 1.562-4.095 1.562-5.657 0-1.562-1.563-1.562-4.095 0-5.657l8-8c1.563-1.562 4.095-1.562 5.657 0l8 8c1.562 1.563 1.562 4.095 0 5.657-.781.78-1.805 1.171-2.829 1.171z"/><path d="m187.95 174.468c-1.023 0-2.048-.391-2.828-1.172l-8-8c-1.563-1.562-1.563-4.095 0-5.656 1.561-1.563 4.096-1.563 5.656 0l5.172 5.171 5.172-5.171c1.561-1.563 4.096-1.563 5.656 0 1.563 1.562 1.563 4.095 0 5.656l-8 8c-.78.781-1.804 1.172-2.828 1.172z"/><path d="m195.95 182.468c-1.023 0-2.048-.391-2.828-1.172l-5.172-5.171-5.172 5.171c-1.561 1.563-4.096 1.563-5.656 0-1.563-1.562-1.563-4.095 0-5.656l8-8c1.561-1.563 4.096-1.563 5.656 0l8 8c1.563 1.562 1.563 4.095 0 5.656-.78.781-1.804 1.172-2.828 1.172z"/><path d="m119.95 174.468c-1.024 0-2.047-.391-2.829-1.172l-8-8c-1.562-1.562-1.562-4.095 0-5.656 1.563-1.563 4.095-1.563 5.657 0l5.171 5.171 5.171-5.171c1.563-1.563 4.095-1.563 5.657 0 1.562 1.562 1.562 4.095 0 5.656l-8 8c-.779.781-1.803 1.172-2.827 1.172z"/><path d="m127.95 182.468c-1.024 0-2.047-.391-2.829-1.172l-5.171-5.171-5.171 5.171c-1.563 1.563-4.095 1.563-5.657 0-1.562-1.562-1.562-4.095 0-5.656l8-8c1.563-1.563 4.095-1.563 5.657 0l8 8c1.562 1.562 1.562 4.095 0 5.656-.781.781-1.805 1.172-2.829 1.172z"/><path d="m151.95 142.468c-1.024 0-2.047-.391-2.829-1.171l-8-8c-1.562-1.563-1.562-4.095 0-5.657 1.563-1.562 4.095-1.562 5.657 0l5.171 5.172 5.172-5.172c1.561-1.562 4.096-1.562 5.656 0 1.563 1.563 1.563 4.095 0 5.657l-8 8c-.779.78-1.803 1.171-2.827 1.171z"/><path d="m159.95 150.468c-1.023 0-2.048-.391-2.828-1.171l-5.172-5.172-5.171 5.172c-1.563 1.562-4.095 1.562-5.657 0-1.562-1.563-1.562-4.095 0-5.657l8-8c1.562-1.562 4.096-1.562 5.657 0l8 8c1.563 1.563 1.563 4.095 0 5.657-.781.78-1.805 1.171-2.829 1.171z"/><path d="m151.95 210.468c-1.024 0-2.047-.391-2.829-1.172l-8-8c-1.562-1.562-1.562-4.095 0-5.656 1.563-1.563 4.095-1.563 5.657 0l5.171 5.171 5.172-5.171c1.561-1.563 4.096-1.563 5.656 0 1.563 1.562 1.563 4.095 0 5.656l-8 8c-.779.781-1.803 1.172-2.827 1.172z"/><path d="m159.95 218.468c-1.023 0-2.048-.391-2.828-1.172l-5.172-5.171-5.171 5.171c-1.563 1.563-4.095 1.563-5.657 0-1.562-1.562-1.562-4.095 0-5.656l8-8c1.562-1.562 4.096-1.563 5.657 0l8 8c1.563 1.562 1.563 4.095 0 5.656-.781.781-1.805 1.172-2.829 1.172z"/><path d="m259.254 258.469h-38.492c-1.905 0-3.547-1.345-3.922-3.213l-.969-4.826c-1.295-6.448-2.239-13.049-2.806-19.617-.189-2.201 1.44-4.14 3.642-4.329 2.197-.19 4.139 1.44 4.329 3.642.54 6.272 1.441 12.573 2.679 18.729l.324 1.614h31.316c2.302-104.598-26.815-177.761-27.113-178.497-.829-2.047.157-4.379 2.204-5.209 2.049-.831 4.378.155 5.209 2.202.309.759 30.775 77.168 27.597 185.622-.064 2.161-1.835 3.882-3.998 3.882z"/><path d="m258.576 274.468h-34.6c-1.905 0-3.547-1.344-3.922-3.212l-3.214-16c-.236-1.176.067-2.396.827-3.322.76-.928 1.896-1.466 3.095-1.466h38.492c1.081 0 2.116.438 2.869 1.213.754.776 1.161 1.823 1.129 2.904-.179 6.096-.396 11.217-.684 16.117-.123 2.114-1.874 3.766-3.992 3.766zm-31.323-8h27.535c.126-2.527.237-5.162.337-8h-29.479z"/><path d="m84.295 258.468h-40.092c-2.163 0-3.934-1.72-3.998-3.881-3.221-108.538 29.532-185.313 29.864-186.076.879-2.025 3.234-2.957 5.261-2.076 2.026.879 2.956 3.234 2.078 5.261-.32.739-31.598 74.177-29.306 178.772h32.944l.179-.855c.803-3.839 1.475-7.757 1.997-11.644.294-2.189 2.313-3.713 4.496-3.433 2.189.294 3.727 2.308 3.433 4.497-.547 4.078-1.252 8.188-2.095 12.218l-.844 4.036c-.389 1.853-2.024 3.181-3.917 3.181z"/><path d="m80.946 274.468h-36.043c-2.114 0-3.863-1.646-3.993-3.755-.301-4.915-.525-10.04-.705-16.127-.032-1.081.375-2.129 1.128-2.904.753-.776 1.789-1.214 2.87-1.214h40.091c1.205 0 2.345.543 3.104 1.478.76.936 1.058 2.163.811 3.342l-3.348 16c-.388 1.853-2.022 3.18-3.915 3.18zm-32.263-8h29.014l1.674-8h-31.036c.102 2.835.216 5.47.348 8z"/></svg>