<svg id="t_x5F_shirt1" enable-background="new 0 0 300 300" height="512" viewBox="0 0 300 300" width="512" xmlns="http://www.w3.org/2000/svg"><path d="m233.7 153.364c-.73 0-1.465-.2-2.118-.608l-13.337-8.33c-1.874-1.17-2.443-3.638-1.273-5.512 1.171-1.873 3.638-2.444 5.512-1.273l10.669 6.664 25.57-25.017-41.233-42.582c-1.536-1.587-1.495-4.12.092-5.656 1.586-1.536 4.118-1.497 5.656.091l44 45.441c1.53 1.582 1.497 4.103-.077 5.642l-30.663 30c-.769.751-1.779 1.14-2.798 1.14z"/><path d="m128.359 69.365c-1.866 0-3.536-1.313-3.917-3.213-.435-2.166.968-4.274 3.134-4.709 16.444-3.303 35.21-3.314 57.374-.035 2.185.324 3.694 2.357 3.371 4.542-.323 2.186-2.356 3.691-4.543 3.372-21.231-3.143-39.102-3.155-54.627-.035-.265.052-.53.078-.792.078z"/><path d="m79.028 153.364c-1.02 0-2.03-.389-2.799-1.142l-30.663-30c-1.573-1.54-1.607-4.061-.076-5.642l44-45.441c1.536-1.587 4.069-1.628 5.656-.091s1.627 4.069.091 5.656l-41.232 42.582 25.57 25.017 10.669-6.664c1.875-1.17 4.342-.6 5.512 1.273 1.17 1.874.6 4.341-1.273 5.512l-13.337 8.33c-.653.41-1.388.61-2.118.61z"/><path d="m220.364 273.364h-128c-2.209 0-4-1.791-4-4v-196.071c0-1.754 1.144-3.304 2.82-3.822 12.019-3.711 24.382-6.427 36.747-8.072 1.103-.145 2.208.169 3.064.872.856.702 1.383 1.728 1.456 2.833.828 12.697 11.332 22.644 23.915 22.644 12.559 0 23.062-9.925 23.911-22.595.074-1.104.603-2.129 1.46-2.83.855-.7 1.968-1.017 3.063-.867 12.304 1.649 24.661 4.345 36.729 8.01 1.686.512 2.838 2.066 2.838 3.827v196.071c-.003 2.209-1.794 4-4.003 4zm-124-8h120v-189.085c-9.455-2.738-19.072-4.86-28.678-6.328-2.991 14.766-16.011 25.796-31.322 25.796-15.343 0-28.368-11.054-31.334-25.854-9.638 1.467-19.251 3.604-28.667 6.372v189.099z"/><path d="m159.588 209.964c-.685 0-1.37-.175-1.988-.529l-27.14-15.546c-1.368-.783-2.147-2.297-1.992-3.865.065-.66 1.696-16.359 9.842-33.108 10.988-22.589 28.592-36.083 50.909-39.021 1.784-.232 3.507.751 4.207 2.41 8.757 20.737 6.023 42.749-7.904 63.655-10.325 15.5-23.043 24.849-23.58 25.239-.699.507-1.525.765-2.354.765zm-22.808-21.675 22.453 12.861c3.851-3.167 12.55-10.936 19.758-21.817 11.778-17.781 14.53-35.604 8.202-53.024-18.227 3.354-32.209 14.746-41.588 33.9-5.74 11.723-8.04 23.155-8.825 28.08z"/><path d="m171.643 167.669c-6.752 0-12.245-5.493-12.245-12.246 0-6.752 5.493-12.246 12.245-12.246 6.753 0 12.246 5.494 12.246 12.246 0 6.753-5.493 12.246-12.246 12.246zm0-16.492c-2.341 0-4.245 1.905-4.245 4.246s1.904 4.246 4.245 4.246 4.246-1.905 4.246-4.246-1.906-4.246-4.246-4.246z"/><path d="m161.993 229.365c-.786 0-1.563-.231-2.229-.679-.963-.646-1.598-1.679-1.74-2.829l-2.404-19.4c-.271-2.192 1.285-4.19 3.478-4.462 2.196-.264 4.19 1.285 4.462 3.478l1.784 14.397c5.55-2.577 10.857-6.844 14.657-10.328 2.281-2.092 2.995-5.439 1.776-8.33l-5.878-13.94c-.858-2.035.096-4.381 2.132-5.239 2.034-.858 4.381.097 5.239 2.132l5.878 13.939c2.53 5.997 1.026 12.964-3.741 17.335-5.451 4.998-13.757 11.448-22.364 13.787-.346.093-.699.139-1.05.139z"/><path d="m114.497 202.158c-.595 0-1.189-.133-1.737-.396-1.044-.504-1.819-1.437-2.123-2.555-2.337-8.607-.976-19.034.579-26.267 1.359-6.323 6.608-11.145 13.061-11.997l14.996-1.982c2.199-.286 4.201 1.252 4.49 3.441.29 2.19-1.251 4.2-3.441 4.49l-14.997 1.982c-3.11.41-5.637 2.72-6.288 5.747-1.083 5.04-2.079 11.777-1.494 17.867l13.322-5.744c2.03-.874 4.383.061 5.257 2.089s-.061 4.383-2.089 5.257l-17.951 7.74c-.507.22-1.046.328-1.585.328z"/><path d="m138.241 215.762c-.674 0-1.357-.171-1.984-.53-1.917-1.098-2.581-3.542-1.482-5.459l20.404-35.621c1.097-1.917 3.541-2.583 5.459-1.482 1.917 1.098 2.581 3.542 1.482 5.459l-20.404 35.621c-.739 1.289-2.088 2.012-3.475 2.012z"/><path d="m65.092 68.092c-1.024 0-2.047-.391-2.829-1.171l-5.657-5.657c-1.562-1.563-1.562-4.095 0-5.657 1.563-1.562 4.095-1.562 5.657 0l5.657 5.657c1.562 1.563 1.562 4.095 0 5.657-.781.78-1.804 1.171-2.828 1.171z"/><path d="m45.293 48.293c-1.024 0-2.047-.391-2.829-1.171l-5.657-5.657c-1.562-1.563-1.562-4.095 0-5.657 1.563-1.562 4.095-1.562 5.657 0l5.657 5.657c1.562 1.563 1.562 4.095 0 5.657-.781.78-1.804 1.171-2.828 1.171z"/><path d="m59.435 48.293c-1.024 0-2.047-.391-2.829-1.171-1.562-1.563-1.562-4.095 0-5.657l5.657-5.657c1.563-1.562 4.095-1.562 5.657 0 1.562 1.563 1.562 4.095 0 5.657l-5.657 5.657c-.781.78-1.804 1.171-2.828 1.171z"/><path d="m39.636 68.092c-1.024 0-2.047-.391-2.829-1.171-1.562-1.563-1.562-4.095 0-5.657l5.657-5.657c1.563-1.562 4.095-1.562 5.657 0 1.562 1.563 1.562 4.095 0 5.657l-5.657 5.657c-.78.78-1.804 1.171-2.828 1.171z"/><ellipse cx="252.369" cy="49.362" rx="4.099" ry="4.099" transform="matrix(.316 -.949 .949 .316 125.731 273.169)"/><circle cx="52.364" cy="169.364" r="4.099"/><path d="m260.364 197.364c-6.617 0-12-5.383-12-12s5.383-12 12-12 12 5.383 12 12-5.383 12-12 12zm0-16c-2.206 0-4 1.794-4 4s1.794 4 4 4 4-1.794 4-4-1.794-4-4-4z"/></svg>