<svg id="stripped_x5F_t-shirt" enable-background="new 0 0 300 300" height="512" viewBox="0 0 300 300" width="512" xmlns="http://www.w3.org/2000/svg"><path d="m233.7 153.364c-.73 0-1.465-.2-2.118-.608l-13.337-8.33c-1.17-.731-1.881-2.013-1.881-3.393v-3.669c0-2.209 1.791-4 4-4s4 1.791 4 4v1.452l8.788 5.489 25.57-25.017-10.023-10.351c-1.536-1.587-1.495-4.12.092-5.656 1.586-1.536 4.117-1.496 5.656.091l12.791 13.21c1.53 1.582 1.497 4.103-.077 5.642l-30.663 30c-.769.751-1.779 1.14-2.798 1.14z"/><path d="m220.364 141.364c-1.023 0-2.047-.391-2.828-1.171-1.563-1.562-1.563-4.095 0-5.657l28.426-28.426-28.472-29.404c-1.536-1.587-1.495-4.12.092-5.656 1.586-1.536 4.118-1.497 5.656.091l31.209 32.231c1.519 1.569 1.499 4.067-.046 5.611l-31.209 31.21c-.78.78-1.804 1.171-2.828 1.171z"/><path d="m128.364 65.364c17.144-3.444 36.027-2.956 56 0"/><path d="m128.359 69.365c-1.866 0-3.536-1.313-3.917-3.213-.435-2.166.968-4.274 3.134-4.709 16.444-3.303 35.21-3.314 57.374-.035 2.185.324 3.694 2.357 3.371 4.542-.323 2.186-2.356 3.691-4.543 3.372-21.231-3.143-39.102-3.155-54.627-.035-.265.052-.53.078-.792.078z"/><path d="m220.364 273.364h-128c-2.209 0-4-1.791-4-4v-196.071c0-1.754 1.144-3.304 2.82-3.822 12.019-3.711 24.382-6.427 36.747-8.072 1.103-.145 2.208.169 3.064.872.856.702 1.383 1.728 1.456 2.833.828 12.697 11.332 22.644 23.915 22.644 12.559 0 23.062-9.925 23.911-22.595.074-1.104.603-2.129 1.46-2.83.855-.7 1.968-1.017 3.063-.867 12.304 1.649 24.661 4.345 36.729 8.01 1.686.512 2.838 2.066 2.838 3.827v196.071c-.003 2.209-1.794 4-4.003 4zm-124-8h120v-189.085c-9.455-2.738-19.072-4.86-28.678-6.328-2.991 14.766-16.011 25.796-31.322 25.796-15.343 0-28.368-11.054-31.334-25.854-9.638 1.467-19.251 3.604-28.667 6.372v189.099z"/><path d="m65.092 68.092c-1.024 0-2.047-.391-2.829-1.171l-5.657-5.657c-1.562-1.563-1.562-4.095 0-5.657 1.563-1.562 4.095-1.562 5.657 0l5.657 5.657c1.562 1.563 1.562 4.095 0 5.657-.781.78-1.804 1.171-2.828 1.171z"/><path d="m45.293 48.293c-1.024 0-2.047-.391-2.829-1.171l-5.657-5.657c-1.562-1.563-1.562-4.095 0-5.657 1.563-1.562 4.095-1.562 5.657 0l5.657 5.657c1.562 1.563 1.562 4.095 0 5.657-.781.78-1.804 1.171-2.828 1.171z"/><path d="m59.435 48.293c-1.024 0-2.047-.391-2.829-1.171-1.562-1.563-1.562-4.095 0-5.657l5.657-5.657c1.563-1.562 4.095-1.562 5.657 0 1.562 1.563 1.562 4.095 0 5.657l-5.657 5.657c-.781.78-1.804 1.171-2.828 1.171z"/><path d="m39.636 68.092c-1.024 0-2.047-.391-2.829-1.171-1.562-1.563-1.562-4.095 0-5.657l5.657-5.657c1.563-1.562 4.095-1.562 5.657 0 1.562 1.563 1.562 4.095 0 5.657l-5.657 5.657c-.78.78-1.804 1.171-2.828 1.171z"/><ellipse cx="252.364" cy="49.364" rx="4.099" ry="4.099" transform="matrix(.16 -.987 .987 .16 163.213 290.562)"/><circle cx="52.364" cy="169.364" r="4.099"/><path d="m260.364 197.364c-6.617 0-12-5.383-12-12s5.383-12 12-12 12 5.383 12 12-5.383 12-12 12zm0-16c-2.206 0-4 1.794-4 4s1.794 4 4 4 4-1.794 4-4-1.794-4-4-4z"/><path d="" style="fill:none;stroke:#000;stroke-width:8;stroke-linecap:round;stroke-linejoin:round;stroke-miterlimit:10"/><path d="m92.364 141.364c-1.024 0-2.047-.391-2.829-1.171l-31.21-31.21c-1.544-1.544-1.564-4.042-.045-5.611l31.21-32.232c1.537-1.587 4.069-1.628 5.656-.091s1.627 4.069.091 5.656l-28.472 29.403 28.427 28.426c1.562 1.563 1.562 4.095 0 5.657-.781.782-1.804 1.173-2.828 1.173z"/><path d="m79.028 153.364c-1.02 0-2.03-.389-2.799-1.142l-30.663-30c-1.573-1.54-1.607-4.061-.076-5.642l12.79-13.21c1.536-1.587 4.068-1.629 5.656-.091 1.587 1.537 1.628 4.069.091 5.656l-10.022 10.352 25.57 25.017 8.788-5.489v-1.452c0-2.209 1.791-4 4-4s4 1.791 4 4v3.669c0 1.379-.711 2.662-1.881 3.393l-13.337 8.33c-.652.409-1.387.609-2.117.609z"/><path d="m220.364 161.364h-128c-2.209 0-4-1.791-4-4s1.791-4 4-4h128c2.209 0 4 1.791 4 4s-1.791 4-4 4z"/><path d="m220.364 177.364h-128c-2.209 0-4-1.791-4-4s1.791-4 4-4h128c2.209 0 4 1.791 4 4s-1.791 4-4 4z"/><path d="m220.364 197.364h-128c-2.209 0-4-1.791-4-4s1.791-4 4-4h128c2.209 0 4 1.791 4 4s-1.791 4-4 4z"/><path d="m220.364 221.364h-128c-2.209 0-4-1.791-4-4s1.791-4 4-4h128c2.209 0 4 1.791 4 4s-1.791 4-4 4z"/><path d="m220.364 233.364h-128c-2.209 0-4-1.791-4-4s1.791-4 4-4h128c2.209 0 4 1.791 4 4s-1.791 4-4 4z"/><path d="m220.364 253.364h-128c-2.209 0-4-1.791-4-4s1.791-4 4-4h128c2.209 0 4 1.791 4 4s-1.791 4-4 4z"/></svg>