<svg id="top" enable-background="new 0 0 300 300" height="512" viewBox="0 0 300 300" width="512" xmlns="http://www.w3.org/2000/svg"><path d="m223.156 105.979c-24.758-9.781-17.979-62.277-17.906-62.809.156-1.164-.205-2.34-.992-3.211-4.453-4.953-11.26-7.398-17.303-6.254-24.07 4.57-46.799 4.656-67.562.242-5.725-1.207-11.801 1.035-16.279 6.012-.787.875-1.148 2.051-.99 3.215.07.527 6.891 53.008-17.908 62.805-1.525.602-2.529 2.078-2.529 3.719v136.477c0 1.531.875 2.93 2.252 3.598 23.057 11.199 46.316 16.801 69.621 16.801 23.299 0 46.643-5.602 69.863-16.797 1.385-.664 2.264-2.066 2.264-3.602v-136.477c-.002-1.641-1.005-3.117-2.531-3.719zm-38.543-63.771c-1.065 28.761-14.774 52.427-30.927 52.427-16.021 0-29.646-23.278-30.9-51.933 19.287 3.412 40.039 3.249 61.827-.494zm33.072 201.435c-42.635 19.848-85.674 19.848-128 .008v-131.375c24.969-12.785 21.695-57.902 20.602-68.168 1.396-1.202 2.928-1.94 4.463-2.264.931 32.14 15.638 57.386 34.936 60.471v32.321c0 2.211 1.791 4 4 4s4-1.789 4-4v-32.321c19.3-3.085 34.009-28.338 34.936-60.485 1.584.439 3.137 1.219 4.459 2.306-1.096 10.32-4.34 55.367 20.605 68.141v131.366z"/><circle cx="167.685" cy="112.635" r="3.788"/><circle cx="167.685" cy="128.635" r="3.788"/><path d="m255.584 64.877c-1.562-1.562-4.098-1.562-5.656 0-1.562 1.562-1.562 4.094 0 5.656l5.658 5.656c.781.781 1.805 1.172 2.828 1.172s2.049-.391 2.828-1.172c1.562-1.562 1.562-4.094 0-5.656z"/><path d="m235.785 45.081c-1.562-1.562-4.098-1.562-5.656 0-1.562 1.562-1.562 4.094 0 5.656l5.658 5.656c.781.781 1.805 1.172 2.828 1.172s2.049-.391 2.828-1.172c1.562-1.562 1.562-4.094 0-5.656z"/><path d="m252.756 57.565c1.023 0 2.047-.391 2.828-1.172l5.658-5.656c1.562-1.562 1.562-4.094 0-5.656s-4.094-1.562-5.656 0l-5.658 5.656c-1.562 1.562-1.562 4.094 0 5.656.781.781 1.804 1.172 2.828 1.172z"/><path d="m235.787 64.877-5.658 5.656c-1.562 1.562-1.562 4.094 0 5.656.781.781 1.805 1.172 2.828 1.172s2.047-.391 2.828-1.172l5.658-5.656c1.562-1.562 1.562-4.094 0-5.656s-4.094-1.562-5.656 0z"/><path d="m257.685 122.536c-2.264 0-4.099 1.835-4.099 4.099s1.835 4.099 4.099 4.099 4.099-1.835 4.099-4.099-1.835-4.099-4.099-4.099z"/><path d="m41.685 114.536c-2.264 0-4.099 1.835-4.099 4.099s1.835 4.099 4.099 4.099 4.099-1.835 4.099-4.099-1.835-4.099-4.099-4.099z"/><path d="m53.685 34.635c-6.617 0-12 5.383-12 12s5.383 12 12 12 12-5.383 12-12-5.382-12-12-12zm0 16c-2.205 0-4-1.793-4-4s1.795-4 4-4 4 1.793 4 4-1.794 4-4 4z"/></svg>