<svg id="cotton_x5F_tote" enable-background="new 0 0 300 300" height="512" viewBox="0 0 300 300" width="512" xmlns="http://www.w3.org/2000/svg"><path d="m214.363 106h-16v-56c0-1.215-.551-2.365-1.5-3.123l-20-16c-.266-.212-.559-.372-.86-.508-.036-.016-.063-.043-.1-.059-.44-.184-.908-.259-1.38-.279-.056-.001-.103-.031-.16-.031h-52c-.062 0-.112.032-.173.035-.467.02-.929.094-1.364.275-.041.017-.072.048-.113.066-.297.135-.587.291-.85.5l-20 16c-.949.758-1.5 1.908-1.5 3.123v56h-16c-2.211 0-4 1.791-4 4v138.896c0 11.637 9.469 21.104 21.105 21.104h97.789c11.637 0 21.105-9.467 21.105-21.104v-138.895c.001-2.209-1.788-4-3.999-4zm-24 0h-12v-63.678l12 9.6zm-64 0v-52h44v52zm44-60h-44v-8h44zm-64 5.922 12-9.6v63.678h-12zm104 196.974c0 7.225-5.879 13.104-13.105 13.104h-97.789c-7.227 0-13.105-5.879-13.105-13.104v-134.896h16 20 52 20 16v134.896z"/><path d="m60.262 56.242c-1.562-1.562-4.094-1.562-5.656 0-1.562 1.561-1.562 4.094 0 5.656l5.656 5.658c.781.781 1.805 1.172 2.828 1.172s2.047-.391 2.828-1.172c1.562-1.561 1.562-4.094 0-5.656z"/><path d="m40.465 36.443c-1.562-1.562-4.094-1.562-5.656 0-1.562 1.561-1.562 4.094 0 5.656l5.656 5.658c.781.781 1.805 1.172 2.828 1.172s2.047-.391 2.828-1.172c1.562-1.561 1.562-4.094 0-5.656z"/><path d="m60.262 36.443-5.656 5.658c-1.562 1.562-1.562 4.096 0 5.656.781.781 1.805 1.172 2.828 1.172s2.047-.391 2.828-1.172l5.656-5.658c1.562-1.562 1.562-4.096 0-5.656-1.563-1.562-4.094-1.562-5.656 0z"/><path d="m40.465 56.242-5.656 5.658c-1.562 1.562-1.562 4.096 0 5.656.781.781 1.805 1.172 2.828 1.172s2.047-.391 2.828-1.172l5.656-5.658c1.562-1.562 1.562-4.096 0-5.656-1.562-1.562-4.094-1.562-5.656 0z"/><path d="m58.363 97.901c-2.264 0-4.1 1.835-4.1 4.099s1.836 4.099 4.1 4.099 4.1-1.835 4.1-4.099-1.836-4.099-4.1-4.099z"/><path d="m230.363 53.901c-2.264 0-4.1 1.835-4.1 4.099s1.836 4.099 4.1 4.099 4.1-1.835 4.1-4.099-1.836-4.099-4.1-4.099z"/><path d="m254.363 82c-6.617 0-12 5.383-12 12s5.383 12 12 12 12-5.383 12-12-5.383-12-12-12zm0 16c-2.207 0-4-1.795-4-4s1.793-4 4-4 4 1.795 4 4-1.793 4-4 4z"/><path d="m163.84 156.09c-5.777 0-11.289 2.195-15.477 6.035-4.188-3.84-9.699-6.035-15.477-6.035-12.637 0-22.918 10.281-22.918 22.918 0 13.117 26.148 38.51 36.41 44.375.613.352 1.301.527 1.984.527s1.371-.176 1.984-.527c10.262-5.865 36.41-31.258 36.41-44.375.002-12.637-10.279-22.918-22.916-22.918zm-15.477 59.096c-10.805-7.363-30.395-28.547-30.395-36.178 0-8.227 6.691-14.918 14.918-14.918 4.844 0 9.406 2.379 12.203 6.361 1.5 2.133 5.047 2.133 6.547 0 2.797-3.982 7.359-6.361 12.203-6.361 8.227 0 14.918 6.691 14.918 14.918.001 7.631-19.589 28.814-30.394 36.178z"/></svg>