<svg id="tote" enable-background="new 0 0 300 300" height="512" viewBox="0 0 300 300" width="512" xmlns="http://www.w3.org/2000/svg"><path d="m62.262 65.557c.781.781 1.805 1.172 2.828 1.172s2.047-.391 2.828-1.172c1.562-1.561 1.562-4.094 0-5.656l-5.656-5.658c-1.562-1.562-4.094-1.562-5.656 0-1.562 1.561-1.562 4.094 0 5.656z"/><path d="m42.465 45.758c.781.781 1.805 1.172 2.828 1.172s2.047-.391 2.828-1.172c1.562-1.561 1.562-4.094 0-5.656l-5.656-5.658c-1.562-1.562-4.094-1.562-5.656 0-1.562 1.561-1.562 4.094 0 5.656z"/><path d="m59.434 46.93c1.023 0 2.047-.391 2.828-1.172l5.656-5.658c1.562-1.562 1.562-4.096 0-5.656-1.562-1.562-4.094-1.562-5.656 0l-5.656 5.658c-1.562 1.562-1.562 4.096 0 5.656.781.781 1.804 1.172 2.828 1.172z"/><path d="m48.121 59.898c1.562-1.562 1.562-4.096 0-5.656-1.562-1.562-4.094-1.562-5.656 0l-5.656 5.658c-1.562 1.562-1.562 4.096 0 5.656.781.781 1.805 1.172 2.828 1.172s2.047-.391 2.828-1.172z"/><path d="m252.363 88.099c2.264 0 4.1-1.835 4.1-4.099s-1.836-4.099-4.1-4.099-4.1 1.835-4.1 4.099 1.837 4.099 4.1 4.099z"/><path d="m108.363 52.099c2.264 0 4.1-1.835 4.1-4.099s-1.836-4.099-4.1-4.099-4.1 1.835-4.1 4.099 1.837 4.099 4.1 4.099z"/><path d="m212.363 56c6.617 0 12-5.383 12-12s-5.383-12-12-12-12 5.383-12 12 5.383 12 12 12zm0-16c2.207 0 4 1.795 4 4s-1.793 4-4 4-4-1.795-4-4 1.793-4 4-4z"/><path d="m263.445 125.447c-.762-.916-1.891-1.447-3.082-1.447h-40.509c-4.015-34.274-32.819-60-67.491-60-34.768 0-63.468 25.693-67.478 60h-40.522c-1.191 0-2.32.531-3.082 1.447-.758.918-1.07 2.125-.848 3.297l22.219 117.459c2.391 12.629 13.453 21.797 26.309 21.797h126.805c12.855 0 23.918-9.168 26.309-21.797l22.219-117.459c.222-1.172-.091-2.379-.849-3.297zm-45.082 42.553c5.516 0 10 4.486 10 10s-4.484 10-10 10-10-4.486-10-10 4.485-10 10-10zm-66-96c30.275 0 55.457 22.234 59.41 52h-118.814c3.944-29.793 29.043-52 59.404-52zm81.852 172.715c-1.676 8.857-9.434 15.285-18.449 15.285h-126.805c-9.016 0-16.773-6.428-18.449-15.285l-21.321-112.715h163.172v29.106c-6.969 2.485-12 9.083-12 16.894 0 9.926 8.074 18 18 18s18-8.074 18-18c0-9.241-7.024-16.788-16-17.798v-28.202h35.172z"/><path d="m168.363 144h-28c-2.211 0-4 1.791-4 4s1.789 4 4 4h28c2.211 0 4-1.791 4-4s-1.789-4-4-4z"/></svg>