<svg id="trench_x5F_coat" enable-background="new 0 0 300 300" height="512" viewBox="0 0 300 300" width="512" xmlns="http://www.w3.org/2000/svg"><path d="m214.086 59.853c-.151-.314-.337-.602-.569-.871-.11-.127-.216-.245-.339-.355-.08-.072-.133-.164-.219-.23l-17.723-13.578-7.312-5.605c-.297-.227-.636-.339-.968-.472l-3.735-3.735c-.449-1.719-1.94-3.012-3.801-3.012h-40c-1.813 0-3.282 1.227-3.774 2.879l-4.492 4.492-25.344 19.007c-1.004.751-1.56 1.912-1.585 3.117-.273.334-.53.687-.688 1.113-2.844 7.66-12.117 34.383-12.117 56.523v63.945 12.789 12.789c0 2.211 1.789 4 4 4h12.547l-3.747 46.84c-.129 1.629.742 3.168 2.199 3.898.395.195 9.871 4.855 28.434 7.234.172.02.344.031.512.031.501 0 .984-.096 1.433-.269 9.476 1.135 18.087 1.621 25.771 1.621 32.414 0 48.926-8.199 49.777-8.633 1.438-.734 2.293-2.266 2.168-3.875l-3.668-46.848h12.469c2.211 0 4-1.789 4-4v-12.789-12.789-63.945c0-26.055-12.543-57.707-13.074-59.039-.038-.089-.113-.147-.155-.233zm5.228 132.008h-10.097l-.375-4.789h10.471v4.789zm-21.352-104.672c-2.66 8.137-3.664 16.602-2.996 25.16l2.165 27.645h-10.449c-1.656-4.646-6.055-8-11.263-8s-9.606 3.354-11.263 8h-24.737v-13.836l7.74-23.723 45.647-17.957c1.469-.578 2.461-1.969 2.531-3.547.07-1.574-.793-3.047-2.207-3.754l-5.633-2.816 5.633-2.816c1.355-.68 2.211-2.062 2.211-3.578v-12.988l10.504 8.046zm-74.543 64.805v-4h40v4zm56 4c0 2.207-1.793 4-4 4s-4-1.793-4-4v-12c0-2.207 1.793-4 4-4s4 1.793 4 4zm-8 11.263c1.257.448 2.591.737 4 .737s2.743-.289 4-.737v44.737c0 2.207-1.793 4-4 4s-4-1.793-4-4zm16-19.263h8v4h-8zm-45.449-77.211-10.578-5.289v-15.055l7.039-7.039 1.996 5.977c1.715 5.141 4.312 9.887 7.727 14.109l6.148 7.602-10.385 12.979-7.342-3.432 5.395-2.695c1.355-.68 2.211-2.062 2.211-3.578s-.856-2.899-2.211-3.579zm34.793 7.156 4.762 2.379-32.637 12.84 1.281-4.098 20.531-25.656c3.336-4.176 5.883-8.859 7.566-13.918l2.031-6.086 2.09 2.09 4.953 4.949v15.055l-10.578 5.289c-1.355.68-2.211 2.062-2.211 3.578s.856 2.899 2.212 3.578zm-22.391-19.484c-2.809-3.473-4.945-7.379-6.359-11.609l-2.284-6.852h27.272l-2.324 6.965c-1.383 4.164-3.48 8.016-6.227 11.445l-5.032 6.289zm-30.98-3.272v12.784c0 1.516.855 2.898 2.211 3.578l5.633 2.816-5.633 2.816c-1.371.688-2.23 2.098-2.211 3.629.02 1.535.914 2.922 2.305 3.574l15.315 7.163-2.252 7.201c-.307.982-.188 2.008.237 2.903l-7.382 22.632c-.129.402-.195.82-.195 1.242v14.473h-9.613l2.211-27.637c.688-8.562-.344-17.039-3.062-25.191l-8.039-24.125zm-23.973 131.889h10.594l-.383 4.789h-10.21v-4.789zm8.677-113.192 5.272 15.817c2.375 7.125 3.273 14.535 2.672 22.02l-5.388 67.355h-11.233v-59.945c0-15.643 5.024-33.982 8.677-45.247zm-8.677 130.77v-4.789h9.571l-.383 4.789zm20.787-44.656h11.213v102.047c-9.429-1.52-15.79-3.585-18.992-4.801zm19.213 102.664v-102.664h24v52c0 6.617 5.383 12 12 12s12-5.383 12-12v-52h11.278l7.617 97.262c-7.043 2.703-29.496 9.594-66.895 5.402zm70.799-58.008-.375-4.789h9.47v4.789zm9.096-25.578h-11.098l-5.273-67.348c-.59-7.504.293-14.922 2.625-22.051l5.105-15.649c3.674 11.359 8.641 29.577 8.641 45.103z"/><path d="m172.156 120.07c-2.574 0-4.66 2.086-4.66 4.66s2.086 4.66 4.66 4.66 4.66-2.086 4.66-4.66c0-2.573-2.087-4.66-4.66-4.66z"/><path d="m150.577 120.07c-2.574 0-4.66 2.086-4.66 4.66s2.086 4.66 4.66 4.66 4.66-2.086 4.66-4.66c0-2.573-2.086-4.66-4.66-4.66z"/><path d="m150.577 172.017c-2.574 0-4.66 2.086-4.66 4.66s2.086 4.66 4.66 4.66 4.66-2.086 4.66-4.66c0-2.573-2.086-4.66-4.66-4.66z"/><path d="m150.577 197.596c-2.574 0-4.66 2.086-4.66 4.66s2.086 4.66 4.66 4.66 4.66-2.086 4.66-4.66c0-2.573-2.086-4.66-4.66-4.66z"/><path d="m56.321 49.24c-1.562-1.562-4.094-1.562-5.656 0s-1.562 4.094 0 5.656l4.863 4.863c.781.781 1.805 1.172 2.828 1.172s2.047-.391 2.828-1.172c1.562-1.562 1.562-4.094 0-5.656z"/><path d="m39.31 32.229c-1.562-1.562-4.094-1.562-5.656 0s-1.562 4.094 0 5.656l4.863 4.863c.781.781 1.805 1.172 2.828 1.172s2.047-.391 2.828-1.172c1.562-1.562 1.562-4.094 0-5.656z"/><path d="m55.528 32.229-4.863 4.863c-1.562 1.562-1.562 4.094 0 5.656.781.781 1.805 1.172 2.828 1.172s2.047-.391 2.828-1.172l4.863-4.863c1.562-1.562 1.562-4.094 0-5.656s-4.093-1.563-5.656 0z"/><path d="m38.517 49.24-4.863 4.863c-1.562 1.562-1.562 4.094 0 5.656.781.781 1.805 1.172 2.828 1.172s2.047-.391 2.828-1.172l4.863-4.863c1.562-1.562 1.562-4.094 0-5.656s-4.094-1.562-5.656 0z"/><path d="m71.419 107.895c-2.264 0-4.099 1.835-4.099 4.099s1.835 4.099 4.099 4.099 4.099-1.835 4.099-4.099-1.835-4.099-4.099-4.099z"/><path d="m263.419 103.895c-2.264 0-4.099 1.835-4.099 4.099s1.835 4.099 4.099 4.099 4.099-1.835 4.099-4.099-1.835-4.099-4.099-4.099z"/><path d="m235.419 27.994c-6.617 0-12 5.383-12 12s5.383 12 12 12 12-5.383 12-12-5.383-12-12-12zm0 16c-2.207 0-4-1.793-4-4s1.793-4 4-4 4 1.793 4 4-1.793 4-4 4z"/></svg>