<svg id="underwear_x5F_set" enable-background="new 0 0 300 300" height="512" viewBox="0 0 300 300" width="512" xmlns="http://www.w3.org/2000/svg"><path d="m198.05 49.531c0-5.516-4.484-10-10-10s-10 4.484-10 10v51.187l-24.32 12.614c-6.262 3.242-13.738 3.238-19.986-.035l-23.693-12.382v-51.384c0-5.516-4.486-10-10-10s-10 4.484-10 10v51.961l-28 12.902v41.137h31.248c4.221 1.59 10.23 2.965 16.656 2.965 7.262 0 15.049-1.771 21.377-6.965h25.029c12.174 9.719 29.372 7.361 38.428 4h31.262v-41.145l-28-12.79v-52.065zm-10-2c1.102 0 2 .898 2 2v50.492h-4v-50.492c0-1.101.898-2 2-2zm-88 0c1.104 0 2 .898 2 2v50.492h-4v-50.492c0-1.101.896-2 2-2zm38.409 96 3.368-4.102c.645-.781 1.469-.898 1.902-.902h.004c.434 0 1.254.117 1.898.895l3.408 4.109zm79.591 4h-14.931c3.069-4.299 6.048-10.345 6.048-17.637 0-2.211-1.789-4-4-4s-4 1.789-4 4c0 9.414-7.266 16.451-9.152 18.118-3.552 1.241-24.604 7.771-35.298-7.728l-4.918-5.957c-1.996-2.414-4.934-3.801-8.066-3.801-.004 0-.012 0-.016 0-3.137.004-6.078 1.398-8.07 3.824l-5.092 6.227c-10.487 15.363-30.995 8.714-34.513 7.432-1.817-1.479-9.776-8.503-9.776-18.115 0-2.211-1.791-4-4-4s-4 1.789-4 4c0 7.293 3.13 13.332 6.367 17.637h-14.583v-28.011l24.941-11.496h11.389l23.656 12.367c8.568 4.477 18.803 4.488 27.373.043l23.934-12.41h11.52l25.188 11.504v28.003z"/><path d="m244.987 88.469c1.023 0 2.047-.391 2.828-1.172 1.562-1.562 1.562-4.094 0-5.656l-4.863-4.863c-1.562-1.562-4.094-1.562-5.656 0s-1.562 4.094 0 5.656l4.863 4.863c.781.781 1.805 1.172 2.828 1.172z"/><path d="m225.94 59.766c-1.562-1.562-4.094-1.562-5.656 0s-1.562 4.094 0 5.656l4.863 4.863c.781.781 1.805 1.172 2.828 1.172s2.047-.391 2.828-1.172c1.562-1.562 1.562-4.094 0-5.656z"/><path d="m240.124 71.457c1.023 0 2.047-.391 2.828-1.172l4.863-4.863c1.562-1.562 1.562-4.094 0-5.656s-4.094-1.562-5.656 0l-4.863 4.863c-1.562 1.562-1.562 4.094 0 5.656.781.781 1.804 1.172 2.828 1.172z"/><path d="m225.147 76.777-4.863 4.863c-1.562 1.562-1.562 4.094 0 5.656.781.781 1.805 1.172 2.828 1.172s2.047-.391 2.828-1.172l4.863-4.863c1.562-1.562 1.562-4.094 0-5.656s-4.093-1.562-5.656 0z"/><path d="m82.956 248.777c-1.562-1.562-4.096-1.562-5.658 0-1.562 1.559-1.562 4.094-.002 5.656l4.859 4.863c.781.781 1.807 1.172 2.83 1.172s2.047-.391 2.828-1.172c1.562-1.559 1.562-4.094.002-5.656z"/><path d="m65.944 231.766c-1.562-1.562-4.096-1.562-5.658 0-1.562 1.559-1.562 4.094-.002 5.656l4.859 4.863c.781.781 1.807 1.172 2.83 1.172s2.047-.391 2.828-1.172c1.562-1.559 1.562-4.094.002-5.656z"/><path d="m82.155 231.766-4.859 4.863c-1.561 1.562-1.561 4.098.002 5.656.781.781 1.805 1.172 2.828 1.172s2.049-.391 2.83-1.172l4.859-4.863c1.561-1.562 1.561-4.098-.002-5.656-1.562-1.563-4.095-1.563-5.658 0z"/><path d="m65.143 248.777-4.859 4.863c-1.561 1.562-1.561 4.098.002 5.656.781.781 1.805 1.172 2.828 1.172s2.049-.391 2.83-1.172l4.859-4.863c1.561-1.562 1.561-4.098-.002-5.656-1.562-1.562-4.095-1.562-5.658 0z"/><path d="m70.05 95.63c2.264 0 4.099-1.835 4.099-4.099s-1.835-4.1-4.099-4.1-4.099 1.836-4.099 4.1 1.835 4.099 4.099 4.099z"/><path d="m245.95 171.531c0 2.264 1.835 4.099 4.099 4.099s4.099-1.835 4.099-4.099-1.835-4.1-4.099-4.1-4.099 1.837-4.099 4.1z"/><path d="m42.05 179.432c-2.264 0-4.099 1.836-4.099 4.1s1.835 4.099 4.099 4.099 4.099-1.835 4.099-4.099-1.835-4.1-4.099-4.1z"/><path d="m50.05 39.531c-6.617 0-12 5.383-12 12s5.383 12 12 12 12-5.383 12-12-5.383-12-12-12zm0 16c-2.205 0-4-1.793-4-4s1.795-4 4-4 4 1.793 4 4-1.795 4-4 4z"/><path d="m250.05 207.531c-6.617 0-12 5.383-12 12s5.383 12 12 12 12-5.383 12-12-5.383-12-12-12zm0 16c-2.207 0-4-1.793-4-4s1.793-4 4-4 4 1.793 4 4-1.793 4-4 4z"/><path d="m200.765 186.215c-64.766 26.906-116.467.426-116.98.156l-3.148-1.656-12.348 17.961v5.668l3.617.348c27.68 2.66 51.283 21.441 60.133 47.852l.914 2.73h18.312l.914-2.73c8.852-26.41 32.457-45.191 60.133-47.852l3.617-.348v-5.668l-12.168-17.703zm-55.2 65.058h-6.914c-9.803-26.039-32.674-44.93-59.885-49.715l4.514-6.566c12.514 5.582 59.234 22.832 117.543-.168l4.629 6.734c-27.211 4.786-50.082 23.676-59.887 49.715z"/></svg>