<svg id="white_x5F_underwears" enable-background="new 0 0 300 300" height="512" viewBox="0 0 300 300" width="512" xmlns="http://www.w3.org/2000/svg"><path d="m261.676 100.469c0-2.211-1.791-4-4-4h-208.832c-2.209 0-4 1.789-4 4v27.793c0 .003.002.006.002.01v42.619c0 2.207 1.791 3.996 3.998 4 .375 0 37.688.281 47.387 20.344.044.091.125.145.175.23l2.501 20.793c3.305 27.484 26.672 48.211 54.354 48.211s51.049-20.727 54.354-48.211l2.477-20.598c9.368-20.479 47.205-20.769 47.585-20.769 2.207-.004 3.998-1.793 3.998-4v-42.619c0-.003.002-.006.002-.01v-27.793zm-208.832 4h200.832v19.793h-200.832zm.002 62.566v-34.773h35.959l5.839 48.552c-13.064-10.838-33.235-13.258-41.798-13.779zm100.414 89.434c-23.637 0-43.59-17.695-46.412-41.164l-9.987-83.043h112.798l-9.987 83.043c-2.822 23.468-22.775 41.164-46.412 41.164zm100.414-89.434c-8.564.521-28.735 2.94-41.798 13.778l5.839-48.552h35.959z"/><path d="m61.365 64.234c.781.781 1.807 1.172 2.83 1.172s2.047-.391 2.828-1.172c1.562-1.559 1.562-4.094.002-5.656l-4.859-4.863c-1.562-1.562-4.096-1.562-5.658 0-1.562 1.559-1.562 4.094-.002 5.656z"/><path d="m44.354 47.223c.781.781 1.807 1.172 2.83 1.172s2.047-.391 2.828-1.172c1.562-1.559 1.562-4.094.002-5.656l-4.859-4.863c-1.562-1.562-4.096-1.562-5.658 0-1.562 1.559-1.562 4.094-.002 5.656z"/><path d="m59.336 48.395c1.023 0 2.049-.391 2.83-1.172l4.859-4.863c1.561-1.562 1.561-4.098-.002-5.656-1.562-1.562-4.096-1.562-5.658 0l-4.859 4.863c-1.561 1.562-1.561 4.098.002 5.656.781.781 1.805 1.172 2.828 1.172z"/><path d="m50.014 59.371c1.561-1.562 1.561-4.098-.002-5.656-1.562-1.562-4.096-1.562-5.658 0l-4.859 4.863c-1.561 1.562-1.561 4.098.002 5.656.781.781 1.805 1.172 2.828 1.172s2.049-.391 2.83-1.172z"/><path d="m125.26 52.568c2.264 0 4.099-1.835 4.099-4.099s-1.835-4.1-4.099-4.1-4.099 1.836-4.099 4.1 1.835 4.099 4.099 4.099z"/><path d="m245.26 192.369c-2.264 0-4.099 1.836-4.099 4.1s1.835 4.099 4.099 4.099 4.099-1.835 4.099-4.099-1.835-4.1-4.099-4.1z"/><path d="m233.26 228.469c-6.617 0-12 5.383-12 12s5.383 12 12 12 12-5.383 12-12-5.383-12-12-12zm0 16c-2.205 0-4-1.793-4-4s1.795-4 4-4 4 1.793 4 4-1.795 4-4 4z"/></svg>