<svg id="vest" enable-background="new 0 0 300 300" height="512" viewBox="0 0 300 300" width="512" xmlns="http://www.w3.org/2000/svg"><path d="m122.729 211.835-30.881-6.176c-2.178-.445-4.275.969-4.707 3.137-.434 2.168.971 4.273 3.137 4.707l30.881 6.176c.266.055.529.078.789.078 1.867 0 3.539-1.312 3.918-3.215.434-2.168-.97-4.274-3.137-4.707z"/><path d="m234.993 134.788c-4.404-1.609-8.42-5.598-11.934-11.863-4.857-8.652-7.424-18.277-7.424-27.84v-45.485c0-1.621-.98-3.086-2.48-3.699l-33.715-13.844c-.641-.268-1.324-.322-1.995-.239-.673-.022-1.353.064-1.991.403-18.207 9.645-35.053 9.676-51.494.082-.509-.299-1.055-.454-1.606-.51-.126-.013-.246.025-.373.024-.452-.003-.889.049-1.315.194-.067.023-.141.004-.207.031l-34.616 13.843c-1.52.609-2.516 2.078-2.516 3.715v45.484c0 10.223-2.391 19.844-6.914 27.824-3.484 6.152-7.463 10.117-11.828 11.785-2.418.926-4.305 2.871-5.176 5.34-.9 2.547-.637 5.352.723 7.691 4.297 7.402 11.504 22.508 11.504 40.492v52c0 1.637.998 3.109 2.518 3.715l60.154 24c.482.191.984.285 1.48.285 1.232 0 2.43-.57 3.201-1.602l11.061-14.747 10.947 14.736c.771 1.035 1.973 1.613 3.213 1.613.473 0 .951-.082 1.414-.258l63.428-24c1.555-.59 2.584-2.078 2.584-3.742v-52c0-18.324 5.518-33.645 8.805-41.141 1.01-2.301 1.025-4.84.039-7.145-1.012-2.365-3.012-4.24-5.487-5.142zm-61.667-92.705c-4.496 45.617-15.271 77.943-23.303 96.708-7.883-18.229-18.794-50.444-23.403-96.174 7.292 3.209 14.747 4.827 22.339 4.827 7.985 0 16.122-1.809 24.367-5.361zm-38.899 217.283-54.791-21.859v-49.289c0-19.859-7.885-36.41-12.586-44.508-.254-.441-.152-.855-.098-1.012.094-.266.26-.445.492-.531 6.145-2.348 11.504-7.5 15.93-15.312 5.203-9.18 7.953-20.168 7.953-31.77v-42.778l27.113-10.84c5.167 53.793 18.991 89.704 27.166 106.964-3.135 6.358-5.236 9.626-5.31 9.739-.43.652-.66 1.418-.66 2.199v76.156c0 .859.277 1.695.789 2.387l4.65 6.26zm98.687-115.504c-3.539 8.074-9.479 24.574-9.479 44.355v49.238l-58.018 21.953-17.982-24.207v-73.671c4.264-6.926 26.809-46.523 33.789-120.012l26.211 10.762v42.805c0 10.93 2.922 21.91 8.447 31.754 4.477 7.98 9.916 13.184 16.17 15.465.406.148.725.43.871.773.112.262.11.515-.009.785z"/><path d="m211.159 204.913-34.617 6.922c-2.166.434-3.57 2.539-3.137 4.707.379 1.902 2.051 3.215 3.918 3.215.26 0 .523-.023.789-.078l34.617-6.922c2.166-.434 3.57-2.539 3.137-4.707-.431-2.169-2.527-3.586-4.707-3.137z"/><circle cx="159.636" cy="172.217" r="4"/><circle cx="159.636" cy="196.217" r="4"/><path d="m261.534 54.46c-1.562-1.562-4.098-1.562-5.656 0-1.562 1.562-1.562 4.094 0 5.656l5.658 5.656c.781.781 1.805 1.172 2.828 1.172s2.049-.391 2.828-1.172c1.562-1.562 1.562-4.094 0-5.656z"/><path d="m241.735 34.663c-1.562-1.562-4.098-1.562-5.656 0-1.562 1.562-1.562 4.094 0 5.656l5.658 5.656c.781.781 1.805 1.172 2.828 1.172s2.049-.391 2.828-1.172c1.562-1.562 1.562-4.094 0-5.656z"/><path d="m258.706 47.147c1.023 0 2.047-.391 2.828-1.172l5.658-5.656c1.562-1.562 1.562-4.094 0-5.656s-4.094-1.562-5.656 0l-5.658 5.656c-1.562 1.562-1.562 4.094 0 5.656.781.781 1.805 1.172 2.828 1.172z"/><path d="m241.737 54.46-5.658 5.656c-1.562 1.562-1.562 4.094 0 5.656.781.781 1.805 1.172 2.828 1.172s2.047-.391 2.828-1.172l5.658-5.656c1.562-1.562 1.562-4.094 0-5.656s-4.093-1.563-5.656 0z"/><path d="m255.636 96.118c-2.264 0-4.099 1.835-4.099 4.099s1.835 4.099 4.099 4.099 4.099-1.835 4.099-4.099-1.835-4.099-4.099-4.099z"/><path d="m63.735 96.217c0-2.264-1.835-4.099-4.099-4.099s-4.099 1.835-4.099 4.099 1.835 4.099 4.099 4.099 4.099-1.835 4.099-4.099z"/><path d="m43.636 32.217c-6.617 0-12 5.383-12 12s5.383 12 12 12 12-5.383 12-12-5.383-12-12-12zm0 16c-2.205 0-4-1.793-4-4s1.795-4 4-4 4 1.793 4 4-1.795 4-4 4z"/></svg>